<svg width="510" height="73" viewBox="0 0 510 73" fill="none" xmlns="http://www.w3.org/2000/svg">
<path d="M20.512 50.128C20.512 51.28 21.412 52.18 22.564 52.18C23.5 52.18 24.256 51.676 24.616 50.776L26.74 45.916H38.98L41.032 50.632C41.428 51.568 42.148 52.18 43.192 52.18C44.38 52.18 45.28 51.244 45.28 50.056C45.28 49.768 45.208 49.444 45.028 49.12L35.668 28.24C35.164 27.124 34.3 26.44 33.04 26.44H32.824C31.564 26.44 30.664 27.124 30.16 28.24L20.8 49.12C20.62 49.48 20.512 49.804 20.512 50.128ZM28.432 41.992L32.86 31.804L37.288 41.992H28.432ZM68.9767 52.432C73.0447 52.432 75.7447 51.136 78.1207 49.048C78.5167 48.688 78.8407 48.148 78.8407 47.464C78.8407 46.348 77.8687 45.412 76.7527 45.412C76.2127 45.412 75.7447 45.628 75.4207 45.916C73.5847 47.464 71.7847 48.328 69.1207 48.328C64.2967 48.328 60.8047 44.332 60.8047 39.4V39.328C60.8047 34.396 64.3327 30.436 69.1207 30.436C71.5327 30.436 73.4047 31.3 75.1327 32.704C75.4207 32.92 75.8527 33.136 76.4647 33.136C77.6887 33.136 78.6607 32.2 78.6607 30.976C78.6607 30.184 78.2647 29.572 77.7967 29.212C75.6007 27.52 73.0447 26.368 69.1567 26.368C61.5247 26.368 56.1607 32.236 56.1607 39.4V39.472C56.1607 46.708 61.6327 52.432 68.9767 52.432ZM90.2353 52.432C96.1033 52.432 100.423 47.932 100.423 42.532V42.46C100.423 37.024 96.1393 32.596 90.3073 32.596C84.4753 32.596 80.1553 37.096 80.1553 42.532V42.604C80.1553 48.004 84.4393 52.432 90.2353 52.432ZM90.3073 48.616C86.9233 48.616 84.5113 45.844 84.5113 42.532V42.46C84.5113 39.148 86.7433 36.412 90.2353 36.412C93.6553 36.412 96.0673 39.184 96.0673 42.532V42.604C96.0673 45.88 93.8353 48.616 90.3073 48.616ZM103.059 50.02C103.059 51.244 104.031 52.18 105.219 52.18C106.443 52.18 107.415 51.244 107.415 50.02V41.272C107.415 38.356 109.071 36.556 111.483 36.556C113.895 36.556 115.335 38.212 115.335 41.164V50.02C115.335 51.244 116.307 52.18 117.531 52.18C118.719 52.18 119.691 51.244 119.691 50.02V41.272C119.691 38.212 121.383 36.556 123.759 36.556C126.207 36.556 127.611 38.176 127.611 41.2V50.02C127.611 51.244 128.583 52.18 129.807 52.18C131.031 52.18 131.967 51.244 131.967 50.02V39.868C131.967 35.224 129.447 32.596 125.307 32.596C122.427 32.596 120.411 33.928 118.899 35.944C117.891 33.928 115.947 32.596 113.211 32.596C110.295 32.596 108.639 34.18 107.415 35.872V34.972C107.415 33.748 106.443 32.776 105.219 32.776C103.995 32.776 103.059 33.748 103.059 34.972V50.02ZM135.466 50.02C135.466 51.244 136.438 52.18 137.626 52.18C138.85 52.18 139.822 51.244 139.822 50.02V41.272C139.822 38.356 141.478 36.556 143.89 36.556C146.302 36.556 147.742 38.212 147.742 41.164V50.02C147.742 51.244 148.714 52.18 149.938 52.18C151.126 52.18 152.098 51.244 152.098 50.02V41.272C152.098 38.212 153.79 36.556 156.166 36.556C158.614 36.556 160.018 38.176 160.018 41.2V50.02C160.018 51.244 160.99 52.18 162.214 52.18C163.438 52.18 164.374 51.244 164.374 50.02V39.868C164.374 35.224 161.854 32.596 157.714 32.596C154.834 32.596 152.818 33.928 151.306 35.944C150.298 33.928 148.354 32.596 145.618 32.596C142.702 32.596 141.046 34.18 139.822 35.872V34.972C139.822 33.748 138.85 32.776 137.626 32.776C136.402 32.776 135.466 33.748 135.466 34.972V50.02ZM184.757 34.972C184.757 33.748 183.749 32.776 182.561 32.776C181.337 32.776 180.365 33.748 180.365 34.972V43.72C180.365 46.672 178.601 48.4 176.081 48.4C173.489 48.4 172.013 46.744 172.013 43.792V34.972C172.013 33.748 171.041 32.776 169.817 32.776C168.629 32.776 167.657 33.748 167.657 34.972V45.088C167.657 49.516 170.141 52.396 174.425 52.396C177.377 52.396 179.141 50.848 180.365 49.048V50.02C180.365 51.244 181.373 52.18 182.561 52.18C183.785 52.18 184.757 51.208 184.757 50.02V34.972ZM188.398 50.02C188.398 51.244 189.37 52.18 190.558 52.18C191.782 52.18 192.754 51.244 192.754 50.02V41.272C192.754 38.32 194.518 36.556 197.038 36.556C199.63 36.556 201.106 38.248 201.106 41.2V50.02C201.106 51.244 202.078 52.18 203.302 52.18C204.526 52.18 205.462 51.244 205.462 50.02V39.868C205.462 35.476 202.978 32.596 198.694 32.596C195.742 32.596 193.978 34.144 192.754 35.908V34.972C192.754 33.748 191.782 32.776 190.558 32.776C189.334 32.776 188.398 33.748 188.398 34.972V50.02ZM208.85 28.096C208.85 29.392 209.93 30.256 211.334 30.256C212.738 30.256 213.818 29.392 213.818 28.096V27.88C213.818 26.584 212.738 25.756 211.334 25.756C209.93 25.756 208.85 26.584 208.85 27.88V28.096ZM209.174 50.02C209.174 51.244 210.146 52.18 211.334 52.18C212.558 52.18 213.53 51.244 213.53 50.02V34.972C213.53 33.748 212.558 32.776 211.334 32.776C210.11 32.776 209.174 33.748 209.174 34.972V50.02ZM223.795 52.324C224.947 52.324 225.847 52.144 226.783 51.82C227.395 51.568 227.935 50.92 227.935 50.128C227.935 49.12 227.071 48.328 226.099 48.328C225.955 48.328 225.523 48.436 225.019 48.436C223.543 48.436 222.679 47.752 222.679 46.06V36.736H226.099C227.143 36.736 228.007 35.908 228.007 34.864C228.007 33.82 227.143 32.992 226.099 32.992H222.679V29.752C222.679 28.564 221.707 27.592 220.519 27.592C219.295 27.592 218.323 28.564 218.323 29.752V32.992H217.603C216.559 32.992 215.731 33.82 215.731 34.864C215.731 35.908 216.559 36.736 217.603 36.736H218.323V46.744C218.323 50.92 220.591 52.324 223.795 52.324ZM233.88 57.868C236.939 57.868 238.668 56.428 240.288 52.54L247.236 35.872C247.308 35.656 247.416 35.188 247.416 34.828C247.416 33.676 246.48 32.776 245.328 32.776C244.212 32.776 243.6 33.532 243.24 34.432L238.488 47.068L233.376 34.432C232.979 33.424 232.368 32.776 231.252 32.776C230.028 32.776 229.092 33.676 229.092 34.9C229.092 35.188 229.2 35.62 229.344 35.944L236.4 51.712L236.256 52.108C235.536 53.584 234.852 54.124 233.556 54.124C232.944 54.124 232.548 54.016 232.044 53.872C231.828 53.8 231.612 53.728 231.252 53.728C230.316 53.728 229.488 54.448 229.488 55.528C229.488 56.572 230.208 57.112 230.856 57.328C231.756 57.688 232.656 57.868 233.88 57.868ZM259.249 49.768C259.249 51.028 260.221 52 261.481 52H268.645C276.565 52 282.037 46.492 282.037 39.4V39.328C282.037 32.236 276.565 26.8 268.645 26.8H261.481C260.221 26.8 259.249 27.772 259.249 29.032V49.768ZM263.677 47.968V30.832H268.645C273.937 30.832 277.393 34.468 277.393 39.4V39.472C277.393 44.404 273.937 47.968 268.645 47.968H263.677ZM285.106 50.02C285.106 51.244 286.078 52.18 287.266 52.18C288.49 52.18 289.462 51.208 289.462 50.02V44.404C289.462 39.904 291.586 37.528 294.682 36.988C295.654 36.808 296.41 36.052 296.41 34.9C296.41 33.64 295.618 32.74 294.25 32.74C292.342 32.74 290.47 34.54 289.462 36.916V34.972C289.462 33.748 288.49 32.776 287.266 32.776C286.042 32.776 285.106 33.748 285.106 34.972V50.02ZM298.105 28.096C298.105 29.392 299.185 30.256 300.589 30.256C301.993 30.256 303.073 29.392 303.073 28.096V27.88C303.073 26.584 301.993 25.756 300.589 25.756C299.185 25.756 298.105 26.584 298.105 27.88V28.096ZM298.429 50.02C298.429 51.244 299.401 52.18 300.589 52.18C301.813 52.18 302.785 51.244 302.785 50.02V34.972C302.785 33.748 301.813 32.776 300.589 32.776C299.365 32.776 298.429 33.748 298.429 34.972V50.02ZM317.081 50.452L323.417 35.908C323.525 35.692 323.669 35.26 323.669 34.864C323.669 33.676 322.733 32.776 321.545 32.776C320.393 32.776 319.817 33.532 319.493 34.288L314.525 46.96L309.629 34.36C309.269 33.46 308.657 32.776 307.469 32.776C306.281 32.776 305.309 33.784 305.309 34.864C305.309 35.26 305.453 35.62 305.561 35.944L311.897 50.452C312.401 51.604 313.193 52.36 314.381 52.36H314.597C315.785 52.36 316.577 51.568 317.081 50.452ZM328.544 41.164C328.94 38.212 330.812 36.16 333.476 36.16C336.356 36.16 338.012 38.356 338.3 41.164H328.544ZM340.82 49.912C341.144 49.588 341.396 49.12 341.396 48.58C341.396 47.572 340.64 46.816 339.668 46.816C339.164 46.816 338.876 46.96 338.552 47.212C337.328 48.22 335.888 48.868 334.052 48.868C331.244 48.868 329.048 47.14 328.58 44.044H340.496C341.612 44.044 342.548 43.18 342.548 41.956C342.548 37.564 339.56 32.596 333.512 32.596C328.076 32.596 324.224 37.06 324.224 42.496V42.568C324.224 48.436 328.472 52.432 333.98 52.432C336.932 52.432 339.092 51.46 340.82 49.912ZM345.195 50.02C345.195 51.244 346.167 52.18 347.355 52.18C348.579 52.18 349.551 51.244 349.551 50.02V41.272C349.551 38.32 351.315 36.556 353.835 36.556C356.427 36.556 357.903 38.248 357.903 41.2V50.02C357.903 51.244 358.875 52.18 360.099 52.18C361.323 52.18 362.259 51.244 362.259 50.02V39.868C362.259 35.476 359.775 32.596 355.491 32.596C352.539 32.596 350.775 34.144 349.551 35.908V34.972C349.551 33.748 348.579 32.776 347.355 32.776C346.131 32.776 345.195 33.748 345.195 34.972V50.02ZM375.216 49.984C375.216 51.208 376.188 52.18 377.448 52.18C378.672 52.18 379.644 51.208 379.644 49.984V43.9H384.648C390.192 43.9 394.728 40.948 394.728 35.296V35.224C394.728 30.148 391.056 26.8 385.152 26.8H377.448C376.188 26.8 375.216 27.772 375.216 29.032V49.984ZM379.644 39.904V30.832H384.792C388.104 30.832 390.228 32.38 390.228 35.332V35.404C390.228 38.032 388.14 39.904 384.792 39.904H379.644ZM396.959 50.02C396.959 51.244 397.931 52.18 399.119 52.18C400.343 52.18 401.315 51.208 401.315 50.02V44.404C401.315 39.904 403.439 37.528 406.535 36.988C407.507 36.808 408.263 36.052 408.263 34.9C408.263 33.64 407.471 32.74 406.103 32.74C404.195 32.74 402.323 34.54 401.315 36.916V34.972C401.315 33.748 400.343 32.776 399.119 32.776C397.895 32.776 396.959 33.748 396.959 34.972V50.02ZM418.433 52.432C424.301 52.432 428.621 47.932 428.621 42.532V42.46C428.621 37.024 424.337 32.596 418.505 32.596C412.673 32.596 408.353 37.096 408.353 42.532V42.604C408.353 48.004 412.637 52.432 418.433 52.432ZM418.505 48.616C415.121 48.616 412.709 45.844 412.709 42.532V42.46C412.709 39.148 414.941 36.412 418.433 36.412C421.853 36.412 424.265 39.184 424.265 42.532V42.604C424.265 45.88 422.033 48.616 418.505 48.616ZM430.609 57.868C433.813 57.868 435.865 56.104 435.865 52.252V34.972C435.865 33.748 434.893 32.776 433.669 32.776C432.445 32.776 431.509 33.748 431.509 34.972V52.252C431.509 53.692 430.861 54.304 429.889 54.304C429.853 54.304 429.709 54.268 429.637 54.268C428.701 54.268 427.909 54.988 427.909 56.068C427.909 57.256 428.917 57.832 430.285 57.868H430.609ZM431.185 28.096C431.185 29.392 432.265 30.256 433.669 30.256C435.073 30.256 436.153 29.392 436.153 28.096V27.88C436.153 26.584 435.073 25.756 433.669 25.756C432.265 25.756 431.185 26.584 431.185 27.88V28.096ZM443.034 41.164C443.43 38.212 445.302 36.16 447.966 36.16C450.846 36.16 452.502 38.356 452.79 41.164H443.034ZM455.31 49.912C455.634 49.588 455.886 49.12 455.886 48.58C455.886 47.572 455.13 46.816 454.158 46.816C453.654 46.816 453.366 46.96 453.042 47.212C451.818 48.22 450.378 48.868 448.542 48.868C445.734 48.868 443.538 47.14 443.07 44.044H454.986C456.102 44.044 457.038 43.18 457.038 41.956C457.038 37.564 454.05 32.596 448.002 32.596C442.566 32.596 438.714 37.06 438.714 42.496V42.568C438.714 48.436 442.962 52.432 448.47 52.432C451.422 52.432 453.582 51.46 455.31 49.912ZM468.468 52.432C471.636 52.432 473.688 51.352 475.38 49.732C475.776 49.408 475.992 48.94 475.992 48.364C475.992 47.32 475.164 46.456 474.12 46.456C473.616 46.456 473.184 46.708 472.932 46.924C471.744 47.932 470.412 48.616 468.684 48.616C465.336 48.616 462.996 45.916 462.996 42.532V42.46C462.996 39.148 465.336 36.412 468.504 36.412C470.232 36.412 471.456 37.096 472.572 38.032C472.86 38.248 473.328 38.464 473.868 38.464C474.984 38.464 475.884 37.6 475.884 36.484C475.884 35.764 475.488 35.224 475.2 34.972C473.58 33.568 471.528 32.596 468.54 32.596C462.816 32.596 458.64 37.132 458.64 42.532V42.604C458.64 48.004 462.816 52.432 468.468 52.432ZM484.823 52.324C485.975 52.324 486.875 52.144 487.811 51.82C488.423 51.568 488.963 50.92 488.963 50.128C488.963 49.12 488.099 48.328 487.127 48.328C486.983 48.328 486.551 48.436 486.047 48.436C484.571 48.436 483.707 47.752 483.707 46.06V36.736H487.127C488.171 36.736 489.035 35.908 489.035 34.864C489.035 33.82 488.171 32.992 487.127 32.992H483.707V29.752C483.707 28.564 482.735 27.592 481.547 27.592C480.323 27.592 479.351 28.564 479.351 29.752V32.992H478.631C477.587 32.992 476.759 33.82 476.759 34.864C476.759 35.908 477.587 36.736 478.631 36.736H479.351V46.744C479.351 50.92 481.619 52.324 484.823 52.324Z" fill="black"/>
<path d="M20.512 45.128C20.512 46.28 21.412 47.18 22.564 47.18C23.5 47.18 24.256 46.676 24.616 45.776L26.74 40.916H38.98L41.032 45.632C41.428 46.568 42.148 47.18 43.192 47.18C44.38 47.18 45.28 46.244 45.28 45.056C45.28 44.768 45.208 44.444 45.028 44.12L35.668 23.24C35.164 22.124 34.3 21.44 33.04 21.44H32.824C31.564 21.44 30.664 22.124 30.16 23.24L20.8 44.12C20.62 44.48 20.512 44.804 20.512 45.128ZM28.432 36.992L32.86 26.804L37.288 36.992H28.432ZM259.249 44.768C259.249 46.028 260.221 47 261.481 47H268.645C276.565 47 282.037 41.492 282.037 34.4V34.328C282.037 27.236 276.565 21.8 268.645 21.8H261.481C260.221 21.8 259.249 22.772 259.249 24.032V44.768ZM263.677 42.968V25.832H268.645C273.937 25.832 277.393 29.468 277.393 34.4V34.472C277.393 39.404 273.937 42.968 268.645 42.968H263.677ZM285.106 45.02C285.106 46.244 286.078 47.18 287.266 47.18C288.49 47.18 289.462 46.208 289.462 45.02V39.404C289.462 34.904 291.586 32.528 294.682 31.988C295.654 31.808 296.41 31.052 296.41 29.9C296.41 28.64 295.618 27.74 294.25 27.74C292.342 27.74 290.47 29.54 289.462 31.916V29.972C289.462 28.748 288.49 27.776 287.266 27.776C286.042 27.776 285.106 28.748 285.106 29.972V45.02ZM298.105 23.096C298.105 24.392 299.185 25.256 300.589 25.256C301.993 25.256 303.073 24.392 303.073 23.096V22.88C303.073 21.584 301.993 20.756 300.589 20.756C299.185 20.756 298.105 21.584 298.105 22.88V23.096ZM298.429 45.02C298.429 46.244 299.401 47.18 300.589 47.18C301.813 47.18 302.785 46.244 302.785 45.02V29.972C302.785 28.748 301.813 27.776 300.589 27.776C299.365 27.776 298.429 28.748 298.429 29.972V45.02ZM317.081 45.452L323.417 30.908C323.525 30.692 323.669 30.26 323.669 29.864C323.669 28.676 322.733 27.776 321.545 27.776C320.393 27.776 319.817 28.532 319.493 29.288L314.525 41.96L309.629 29.36C309.269 28.46 308.657 27.776 307.469 27.776C306.281 27.776 305.309 28.784 305.309 29.864C305.309 30.26 305.453 30.62 305.561 30.944L311.897 45.452C312.401 46.604 313.193 47.36 314.381 47.36H314.597C315.785 47.36 316.577 46.568 317.081 45.452ZM328.544 36.164C328.94 33.212 330.812 31.16 333.476 31.16C336.356 31.16 338.012 33.356 338.3 36.164H328.544ZM340.82 44.912C341.144 44.588 341.396 44.12 341.396 43.58C341.396 42.572 340.64 41.816 339.668 41.816C339.164 41.816 338.876 41.96 338.552 42.212C337.328 43.22 335.888 43.868 334.052 43.868C331.244 43.868 329.048 42.14 328.58 39.044H340.496C341.612 39.044 342.548 38.18 342.548 36.956C342.548 32.564 339.56 27.596 333.512 27.596C328.076 27.596 324.224 32.06 324.224 37.496V37.568C324.224 43.436 328.472 47.432 333.98 47.432C336.932 47.432 339.092 46.46 340.82 44.912ZM345.195 45.02C345.195 46.244 346.167 47.18 347.355 47.18C348.579 47.18 349.551 46.244 349.551 45.02V36.272C349.551 33.32 351.315 31.556 353.835 31.556C356.427 31.556 357.903 33.248 357.903 36.2V45.02C357.903 46.244 358.875 47.18 360.099 47.18C361.323 47.18 362.259 46.244 362.259 45.02V34.868C362.259 30.476 359.775 27.596 355.491 27.596C352.539 27.596 350.775 29.144 349.551 30.908V29.972C349.551 28.748 348.579 27.776 347.355 27.776C346.131 27.776 345.195 28.748 345.195 29.972V45.02ZM375.216 44.984C375.216 46.208 376.188 47.18 377.448 47.18C378.672 47.18 379.644 46.208 379.644 44.984V38.9H384.648C390.192 38.9 394.728 35.948 394.728 30.296V30.224C394.728 25.148 391.056 21.8 385.152 21.8H377.448C376.188 21.8 375.216 22.772 375.216 24.032V44.984ZM379.644 34.904V25.832H384.792C388.104 25.832 390.228 27.38 390.228 30.332V30.404C390.228 33.032 388.14 34.904 384.792 34.904H379.644ZM396.959 45.02C396.959 46.244 397.931 47.18 399.119 47.18C400.343 47.18 401.315 46.208 401.315 45.02V39.404C401.315 34.904 403.439 32.528 406.535 31.988C407.507 31.808 408.263 31.052 408.263 29.9C408.263 28.64 407.471 27.74 406.103 27.74C404.195 27.74 402.323 29.54 401.315 31.916V29.972C401.315 28.748 400.343 27.776 399.119 27.776C397.895 27.776 396.959 28.748 396.959 29.972V45.02ZM418.433 47.432C424.301 47.432 428.621 42.932 428.621 37.532V37.46C428.621 32.024 424.337 27.596 418.505 27.596C412.673 27.596 408.353 32.096 408.353 37.532V37.604C408.353 43.004 412.637 47.432 418.433 47.432ZM418.505 43.616C415.121 43.616 412.709 40.844 412.709 37.532V37.46C412.709 34.148 414.941 31.412 418.433 31.412C421.853 31.412 424.265 34.184 424.265 37.532V37.604C424.265 40.88 422.033 43.616 418.505 43.616ZM430.609 52.868C433.813 52.868 435.865 51.104 435.865 47.252V29.972C435.865 28.748 434.893 27.776 433.669 27.776C432.445 27.776 431.509 28.748 431.509 29.972V47.252C431.509 48.692 430.861 49.304 429.889 49.304C429.853 49.304 429.709 49.268 429.637 49.268C428.701 49.268 427.909 49.988 427.909 51.068C427.909 52.256 428.917 52.832 430.285 52.868H430.609ZM431.185 23.096C431.185 24.392 432.265 25.256 433.669 25.256C435.073 25.256 436.153 24.392 436.153 23.096V22.88C436.153 21.584 435.073 20.756 433.669 20.756C432.265 20.756 431.185 21.584 431.185 22.88V23.096ZM443.034 36.164C443.43 33.212 445.302 31.16 447.966 31.16C450.846 31.16 452.502 33.356 452.79 36.164H443.034ZM455.31 44.912C455.634 44.588 455.886 44.12 455.886 43.58C455.886 42.572 455.13 41.816 454.158 41.816C453.654 41.816 453.366 41.96 453.042 42.212C451.818 43.22 450.378 43.868 448.542 43.868C445.734 43.868 443.538 42.14 443.07 39.044H454.986C456.102 39.044 457.038 38.18 457.038 36.956C457.038 32.564 454.05 27.596 448.002 27.596C442.566 27.596 438.714 32.06 438.714 37.496V37.568C438.714 43.436 442.962 47.432 448.47 47.432C451.422 47.432 453.582 46.46 455.31 44.912ZM468.468 47.432C471.636 47.432 473.688 46.352 475.38 44.732C475.776 44.408 475.992 43.94 475.992 43.364C475.992 42.32 475.164 41.456 474.12 41.456C473.616 41.456 473.184 41.708 472.932 41.924C471.744 42.932 470.412 43.616 468.684 43.616C465.336 43.616 462.996 40.916 462.996 37.532V37.46C462.996 34.148 465.336 31.412 468.504 31.412C470.232 31.412 471.456 32.096 472.572 33.032C472.86 33.248 473.328 33.464 473.868 33.464C474.984 33.464 475.884 32.6 475.884 31.484C475.884 30.764 475.488 30.224 475.2 29.972C473.58 28.568 471.528 27.596 468.54 27.596C462.816 27.596 458.64 32.132 458.64 37.532V37.604C458.64 43.004 462.816 47.432 468.468 47.432ZM484.823 47.324C485.975 47.324 486.875 47.144 487.811 46.82C488.423 46.568 488.963 45.92 488.963 45.128C488.963 44.12 488.099 43.328 487.127 43.328C486.983 43.328 486.551 43.436 486.047 43.436C484.571 43.436 483.707 42.752 483.707 41.06V31.736H487.127C488.171 31.736 489.035 30.908 489.035 29.864C489.035 28.82 488.171 27.992 487.127 27.992H483.707V24.752C483.707 23.564 482.735 22.592 481.547 22.592C480.323 22.592 479.351 23.564 479.351 24.752V27.992H478.631C477.587 27.992 476.759 28.82 476.759 29.864C476.759 30.908 477.587 31.736 478.631 31.736H479.351V41.744C479.351 45.92 481.619 47.324 484.823 47.324Z" fill="#00E59D"/>
<path d="M68.9767 47.432C73.0447 47.432 75.7447 46.136 78.1207 44.048C78.5167 43.688 78.8407 43.148 78.8407 42.464C78.8407 41.348 77.8687 40.412 76.7527 40.412C76.2127 40.412 75.7447 40.628 75.4207 40.916C73.5847 42.464 71.7847 43.328 69.1207 43.328C64.2967 43.328 60.8047 39.332 60.8047 34.4V34.328C60.8047 29.396 64.3327 25.436 69.1207 25.436C71.5327 25.436 73.4047 26.3 75.1327 27.704C75.4207 27.92 75.8527 28.136 76.4647 28.136C77.6887 28.136 78.6607 27.2 78.6607 25.976C78.6607 25.184 78.2647 24.572 77.7967 24.212C75.6007 22.52 73.0447 21.368 69.1567 21.368C61.5247 21.368 56.1607 27.236 56.1607 34.4V34.472C56.1607 41.708 61.6327 47.432 68.9767 47.432ZM90.2353 47.432C96.1033 47.432 100.423 42.932 100.423 37.532V37.46C100.423 32.024 96.1393 27.596 90.3073 27.596C84.4753 27.596 80.1553 32.096 80.1553 37.532V37.604C80.1553 43.004 84.4393 47.432 90.2353 47.432ZM90.3073 43.616C86.9233 43.616 84.5113 40.844 84.5113 37.532V37.46C84.5113 34.148 86.7433 31.412 90.2353 31.412C93.6553 31.412 96.0673 34.184 96.0673 37.532V37.604C96.0673 40.88 93.8353 43.616 90.3073 43.616ZM103.059 45.02C103.059 46.244 104.031 47.18 105.219 47.18C106.443 47.18 107.415 46.244 107.415 45.02V36.272C107.415 33.356 109.071 31.556 111.483 31.556C113.895 31.556 115.335 33.212 115.335 36.164V45.02C115.335 46.244 116.307 47.18 117.531 47.18C118.719 47.18 119.691 46.244 119.691 45.02V36.272C119.691 33.212 121.383 31.556 123.759 31.556C126.207 31.556 127.611 33.176 127.611 36.2V45.02C127.611 46.244 128.583 47.18 129.807 47.18C131.031 47.18 131.967 46.244 131.967 45.02V34.868C131.967 30.224 129.447 27.596 125.307 27.596C122.427 27.596 120.411 28.928 118.899 30.944C117.891 28.928 115.947 27.596 113.211 27.596C110.295 27.596 108.639 29.18 107.415 30.872V29.972C107.415 28.748 106.443 27.776 105.219 27.776C103.995 27.776 103.059 28.748 103.059 29.972V45.02ZM135.466 45.02C135.466 46.244 136.438 47.18 137.626 47.18C138.85 47.18 139.822 46.244 139.822 45.02V36.272C139.822 33.356 141.478 31.556 143.89 31.556C146.302 31.556 147.742 33.212 147.742 36.164V45.02C147.742 46.244 148.714 47.18 149.938 47.18C151.126 47.18 152.098 46.244 152.098 45.02V36.272C152.098 33.212 153.79 31.556 156.166 31.556C158.614 31.556 160.018 33.176 160.018 36.2V45.02C160.018 46.244 160.99 47.18 162.214 47.18C163.438 47.18 164.374 46.244 164.374 45.02V34.868C164.374 30.224 161.854 27.596 157.714 27.596C154.834 27.596 152.818 28.928 151.306 30.944C150.298 28.928 148.354 27.596 145.618 27.596C142.702 27.596 141.046 29.18 139.822 30.872V29.972C139.822 28.748 138.85 27.776 137.626 27.776C136.402 27.776 135.466 28.748 135.466 29.972V45.02ZM184.757 29.972C184.757 28.748 183.749 27.776 182.561 27.776C181.337 27.776 180.365 28.748 180.365 29.972V38.72C180.365 41.672 178.601 43.4 176.081 43.4C173.489 43.4 172.013 41.744 172.013 38.792V29.972C172.013 28.748 171.041 27.776 169.817 27.776C168.629 27.776 167.657 28.748 167.657 29.972V40.088C167.657 44.516 170.141 47.396 174.425 47.396C177.377 47.396 179.141 45.848 180.365 44.048V45.02C180.365 46.244 181.373 47.18 182.561 47.18C183.785 47.18 184.757 46.208 184.757 45.02V29.972ZM188.398 45.02C188.398 46.244 189.37 47.18 190.558 47.18C191.782 47.18 192.754 46.244 192.754 45.02V36.272C192.754 33.32 194.518 31.556 197.038 31.556C199.63 31.556 201.106 33.248 201.106 36.2V45.02C201.106 46.244 202.078 47.18 203.302 47.18C204.526 47.18 205.462 46.244 205.462 45.02V34.868C205.462 30.476 202.978 27.596 198.694 27.596C195.742 27.596 193.978 29.144 192.754 30.908V29.972C192.754 28.748 191.782 27.776 190.558 27.776C189.334 27.776 188.398 28.748 188.398 29.972V45.02ZM208.85 23.096C208.85 24.392 209.93 25.256 211.334 25.256C212.738 25.256 213.818 24.392 213.818 23.096V22.88C213.818 21.584 212.738 20.756 211.334 20.756C209.93 20.756 208.85 21.584 208.85 22.88V23.096ZM209.174 45.02C209.174 46.244 210.146 47.18 211.334 47.18C212.558 47.18 213.53 46.244 213.53 45.02V29.972C213.53 28.748 212.558 27.776 211.334 27.776C210.11 27.776 209.174 28.748 209.174 29.972V45.02ZM223.795 47.324C224.947 47.324 225.847 47.144 226.783 46.82C227.395 46.568 227.935 45.92 227.935 45.128C227.935 44.12 227.071 43.328 226.099 43.328C225.955 43.328 225.523 43.436 225.019 43.436C223.543 43.436 222.679 42.752 222.679 41.06V31.736H226.099C227.143 31.736 228.007 30.908 228.007 29.864C228.007 28.82 227.143 27.992 226.099 27.992H222.679V24.752C222.679 23.564 221.707 22.592 220.519 22.592C219.295 22.592 218.323 23.564 218.323 24.752V27.992H217.603C216.559 27.992 215.731 28.82 215.731 29.864C215.731 30.908 216.559 31.736 217.603 31.736H218.323V41.744C218.323 45.92 220.591 47.324 223.795 47.324ZM233.88 52.868C236.939 52.868 238.668 51.428 240.288 47.54L247.236 30.872C247.308 30.656 247.416 30.188 247.416 29.828C247.416 28.676 246.48 27.776 245.328 27.776C244.212 27.776 243.6 28.532 243.24 29.432L238.488 42.068L233.376 29.432C232.979 28.424 232.368 27.776 231.252 27.776C230.028 27.776 229.092 28.676 229.092 29.9C229.092 30.188 229.2 30.62 229.344 30.944L236.4 46.712L236.256 47.108C235.536 48.584 234.852 49.124 233.556 49.124C232.944 49.124 232.548 49.016 232.044 48.872C231.828 48.8 231.612 48.728 231.252 48.728C230.316 48.728 229.488 49.448 229.488 50.528C229.488 51.572 230.208 52.112 230.856 52.328C231.756 52.688 232.656 52.868 233.88 52.868Z" fill="#FF0000"/>
<g filter="url(#filter0_f)">
<path d="M20.512 45.128C20.512 46.28 21.412 47.18 22.564 47.18C23.5 47.18 24.256 46.676 24.616 45.776L26.74 40.916H38.98L41.032 45.632C41.428 46.568 42.148 47.18 43.192 47.18C44.38 47.18 45.28 46.244 45.28 45.056C45.28 44.768 45.208 44.444 45.028 44.12L35.668 23.24C35.164 22.124 34.3 21.44 33.04 21.44H32.824C31.564 21.44 30.664 22.124 30.16 23.24L20.8 44.12C20.62 44.48 20.512 44.804 20.512 45.128ZM28.432 36.992L32.86 26.804L37.288 36.992H28.432ZM259.249 44.768C259.249 46.028 260.221 47 261.481 47H268.645C276.565 47 282.037 41.492 282.037 34.4V34.328C282.037 27.236 276.565 21.8 268.645 21.8H261.481C260.221 21.8 259.249 22.772 259.249 24.032V44.768ZM263.677 42.968V25.832H268.645C273.937 25.832 277.393 29.468 277.393 34.4V34.472C277.393 39.404 273.937 42.968 268.645 42.968H263.677ZM285.106 45.02C285.106 46.244 286.078 47.18 287.266 47.18C288.49 47.18 289.462 46.208 289.462 45.02V39.404C289.462 34.904 291.586 32.528 294.682 31.988C295.654 31.808 296.41 31.052 296.41 29.9C296.41 28.64 295.618 27.74 294.25 27.74C292.342 27.74 290.47 29.54 289.462 31.916V29.972C289.462 28.748 288.49 27.776 287.266 27.776C286.042 27.776 285.106 28.748 285.106 29.972V45.02ZM298.105 23.096C298.105 24.392 299.185 25.256 300.589 25.256C301.993 25.256 303.073 24.392 303.073 23.096V22.88C303.073 21.584 301.993 20.756 300.589 20.756C299.185 20.756 298.105 21.584 298.105 22.88V23.096ZM298.429 45.02C298.429 46.244 299.401 47.18 300.589 47.18C301.813 47.18 302.785 46.244 302.785 45.02V29.972C302.785 28.748 301.813 27.776 300.589 27.776C299.365 27.776 298.429 28.748 298.429 29.972V45.02ZM317.081 45.452L323.417 30.908C323.525 30.692 323.669 30.26 323.669 29.864C323.669 28.676 322.733 27.776 321.545 27.776C320.393 27.776 319.817 28.532 319.493 29.288L314.525 41.96L309.629 29.36C309.269 28.46 308.657 27.776 307.469 27.776C306.281 27.776 305.309 28.784 305.309 29.864C305.309 30.26 305.453 30.62 305.561 30.944L311.897 45.452C312.401 46.604 313.193 47.36 314.381 47.36H314.597C315.785 47.36 316.577 46.568 317.081 45.452ZM328.544 36.164C328.94 33.212 330.812 31.16 333.476 31.16C336.356 31.16 338.012 33.356 338.3 36.164H328.544ZM340.82 44.912C341.144 44.588 341.396 44.12 341.396 43.58C341.396 42.572 340.64 41.816 339.668 41.816C339.164 41.816 338.876 41.96 338.552 42.212C337.328 43.22 335.888 43.868 334.052 43.868C331.244 43.868 329.048 42.14 328.58 39.044H340.496C341.612 39.044 342.548 38.18 342.548 36.956C342.548 32.564 339.56 27.596 333.512 27.596C328.076 27.596 324.224 32.06 324.224 37.496V37.568C324.224 43.436 328.472 47.432 333.98 47.432C336.932 47.432 339.092 46.46 340.82 44.912ZM345.195 45.02C345.195 46.244 346.167 47.18 347.355 47.18C348.579 47.18 349.551 46.244 349.551 45.02V36.272C349.551 33.32 351.315 31.556 353.835 31.556C356.427 31.556 357.903 33.248 357.903 36.2V45.02C357.903 46.244 358.875 47.18 360.099 47.18C361.323 47.18 362.259 46.244 362.259 45.02V34.868C362.259 30.476 359.775 27.596 355.491 27.596C352.539 27.596 350.775 29.144 349.551 30.908V29.972C349.551 28.748 348.579 27.776 347.355 27.776C346.131 27.776 345.195 28.748 345.195 29.972V45.02ZM375.216 44.984C375.216 46.208 376.188 47.18 377.448 47.18C378.672 47.18 379.644 46.208 379.644 44.984V38.9H384.648C390.192 38.9 394.728 35.948 394.728 30.296V30.224C394.728 25.148 391.056 21.8 385.152 21.8H377.448C376.188 21.8 375.216 22.772 375.216 24.032V44.984ZM379.644 34.904V25.832H384.792C388.104 25.832 390.228 27.38 390.228 30.332V30.404C390.228 33.032 388.14 34.904 384.792 34.904H379.644ZM396.959 45.02C396.959 46.244 397.931 47.18 399.119 47.18C400.343 47.18 401.315 46.208 401.315 45.02V39.404C401.315 34.904 403.439 32.528 406.535 31.988C407.507 31.808 408.263 31.052 408.263 29.9C408.263 28.64 407.471 27.74 406.103 27.74C404.195 27.74 402.323 29.54 401.315 31.916V29.972C401.315 28.748 400.343 27.776 399.119 27.776C397.895 27.776 396.959 28.748 396.959 29.972V45.02ZM418.433 47.432C424.301 47.432 428.621 42.932 428.621 37.532V37.46C428.621 32.024 424.337 27.596 418.505 27.596C412.673 27.596 408.353 32.096 408.353 37.532V37.604C408.353 43.004 412.637 47.432 418.433 47.432ZM418.505 43.616C415.121 43.616 412.709 40.844 412.709 37.532V37.46C412.709 34.148 414.941 31.412 418.433 31.412C421.853 31.412 424.265 34.184 424.265 37.532V37.604C424.265 40.88 422.033 43.616 418.505 43.616ZM430.609 52.868C433.813 52.868 435.865 51.104 435.865 47.252V29.972C435.865 28.748 434.893 27.776 433.669 27.776C432.445 27.776 431.509 28.748 431.509 29.972V47.252C431.509 48.692 430.861 49.304 429.889 49.304C429.853 49.304 429.709 49.268 429.637 49.268C428.701 49.268 427.909 49.988 427.909 51.068C427.909 52.256 428.917 52.832 430.285 52.868H430.609ZM431.185 23.096C431.185 24.392 432.265 25.256 433.669 25.256C435.073 25.256 436.153 24.392 436.153 23.096V22.88C436.153 21.584 435.073 20.756 433.669 20.756C432.265 20.756 431.185 21.584 431.185 22.88V23.096ZM443.034 36.164C443.43 33.212 445.302 31.16 447.966 31.16C450.846 31.16 452.502 33.356 452.79 36.164H443.034ZM455.31 44.912C455.634 44.588 455.886 44.12 455.886 43.58C455.886 42.572 455.13 41.816 454.158 41.816C453.654 41.816 453.366 41.96 453.042 42.212C451.818 43.22 450.378 43.868 448.542 43.868C445.734 43.868 443.538 42.14 443.07 39.044H454.986C456.102 39.044 457.038 38.18 457.038 36.956C457.038 32.564 454.05 27.596 448.002 27.596C442.566 27.596 438.714 32.06 438.714 37.496V37.568C438.714 43.436 442.962 47.432 448.47 47.432C451.422 47.432 453.582 46.46 455.31 44.912ZM468.468 47.432C471.636 47.432 473.688 46.352 475.38 44.732C475.776 44.408 475.992 43.94 475.992 43.364C475.992 42.32 475.164 41.456 474.12 41.456C473.616 41.456 473.184 41.708 472.932 41.924C471.744 42.932 470.412 43.616 468.684 43.616C465.336 43.616 462.996 40.916 462.996 37.532V37.46C462.996 34.148 465.336 31.412 468.504 31.412C470.232 31.412 471.456 32.096 472.572 33.032C472.86 33.248 473.328 33.464 473.868 33.464C474.984 33.464 475.884 32.6 475.884 31.484C475.884 30.764 475.488 30.224 475.2 29.972C473.58 28.568 471.528 27.596 468.54 27.596C462.816 27.596 458.64 32.132 458.64 37.532V37.604C458.64 43.004 462.816 47.432 468.468 47.432ZM484.823 47.324C485.975 47.324 486.875 47.144 487.811 46.82C488.423 46.568 488.963 45.92 488.963 45.128C488.963 44.12 488.099 43.328 487.127 43.328C486.983 43.328 486.551 43.436 486.047 43.436C484.571 43.436 483.707 42.752 483.707 41.06V31.736H487.127C488.171 31.736 489.035 30.908 489.035 29.864C489.035 28.82 488.171 27.992 487.127 27.992H483.707V24.752C483.707 23.564 482.735 22.592 481.547 22.592C480.323 22.592 479.351 23.564 479.351 24.752V27.992H478.631C477.587 27.992 476.759 28.82 476.759 29.864C476.759 30.908 477.587 31.736 478.631 31.736H479.351V41.744C479.351 45.92 481.619 47.324 484.823 47.324Z" fill="#00E59D"/>
<path d="M68.9767 47.432C73.0447 47.432 75.7447 46.136 78.1207 44.048C78.5167 43.688 78.8407 43.148 78.8407 42.464C78.8407 41.348 77.8687 40.412 76.7527 40.412C76.2127 40.412 75.7447 40.628 75.4207 40.916C73.5847 42.464 71.7847 43.328 69.1207 43.328C64.2967 43.328 60.8047 39.332 60.8047 34.4V34.328C60.8047 29.396 64.3327 25.436 69.1207 25.436C71.5327 25.436 73.4047 26.3 75.1327 27.704C75.4207 27.92 75.8527 28.136 76.4647 28.136C77.6887 28.136 78.6607 27.2 78.6607 25.976C78.6607 25.184 78.2647 24.572 77.7967 24.212C75.6007 22.52 73.0447 21.368 69.1567 21.368C61.5247 21.368 56.1607 27.236 56.1607 34.4V34.472C56.1607 41.708 61.6327 47.432 68.9767 47.432ZM90.2353 47.432C96.1033 47.432 100.423 42.932 100.423 37.532V37.46C100.423 32.024 96.1393 27.596 90.3073 27.596C84.4753 27.596 80.1553 32.096 80.1553 37.532V37.604C80.1553 43.004 84.4393 47.432 90.2353 47.432ZM90.3073 43.616C86.9233 43.616 84.5113 40.844 84.5113 37.532V37.46C84.5113 34.148 86.7433 31.412 90.2353 31.412C93.6553 31.412 96.0673 34.184 96.0673 37.532V37.604C96.0673 40.88 93.8353 43.616 90.3073 43.616ZM103.059 45.02C103.059 46.244 104.031 47.18 105.219 47.18C106.443 47.18 107.415 46.244 107.415 45.02V36.272C107.415 33.356 109.071 31.556 111.483 31.556C113.895 31.556 115.335 33.212 115.335 36.164V45.02C115.335 46.244 116.307 47.18 117.531 47.18C118.719 47.18 119.691 46.244 119.691 45.02V36.272C119.691 33.212 121.383 31.556 123.759 31.556C126.207 31.556 127.611 33.176 127.611 36.2V45.02C127.611 46.244 128.583 47.18 129.807 47.18C131.031 47.18 131.967 46.244 131.967 45.02V34.868C131.967 30.224 129.447 27.596 125.307 27.596C122.427 27.596 120.411 28.928 118.899 30.944C117.891 28.928 115.947 27.596 113.211 27.596C110.295 27.596 108.639 29.18 107.415 30.872V29.972C107.415 28.748 106.443 27.776 105.219 27.776C103.995 27.776 103.059 28.748 103.059 29.972V45.02ZM135.466 45.02C135.466 46.244 136.438 47.18 137.626 47.18C138.85 47.18 139.822 46.244 139.822 45.02V36.272C139.822 33.356 141.478 31.556 143.89 31.556C146.302 31.556 147.742 33.212 147.742 36.164V45.02C147.742 46.244 148.714 47.18 149.938 47.18C151.126 47.18 152.098 46.244 152.098 45.02V36.272C152.098 33.212 153.79 31.556 156.166 31.556C158.614 31.556 160.018 33.176 160.018 36.2V45.02C160.018 46.244 160.99 47.18 162.214 47.18C163.438 47.18 164.374 46.244 164.374 45.02V34.868C164.374 30.224 161.854 27.596 157.714 27.596C154.834 27.596 152.818 28.928 151.306 30.944C150.298 28.928 148.354 27.596 145.618 27.596C142.702 27.596 141.046 29.18 139.822 30.872V29.972C139.822 28.748 138.85 27.776 137.626 27.776C136.402 27.776 135.466 28.748 135.466 29.972V45.02ZM184.757 29.972C184.757 28.748 183.749 27.776 182.561 27.776C181.337 27.776 180.365 28.748 180.365 29.972V38.72C180.365 41.672 178.601 43.4 176.081 43.4C173.489 43.4 172.013 41.744 172.013 38.792V29.972C172.013 28.748 171.041 27.776 169.817 27.776C168.629 27.776 167.657 28.748 167.657 29.972V40.088C167.657 44.516 170.141 47.396 174.425 47.396C177.377 47.396 179.141 45.848 180.365 44.048V45.02C180.365 46.244 181.373 47.18 182.561 47.18C183.785 47.18 184.757 46.208 184.757 45.02V29.972ZM188.398 45.02C188.398 46.244 189.37 47.18 190.558 47.18C191.782 47.18 192.754 46.244 192.754 45.02V36.272C192.754 33.32 194.518 31.556 197.038 31.556C199.63 31.556 201.106 33.248 201.106 36.2V45.02C201.106 46.244 202.078 47.18 203.302 47.18C204.526 47.18 205.462 46.244 205.462 45.02V34.868C205.462 30.476 202.978 27.596 198.694 27.596C195.742 27.596 193.978 29.144 192.754 30.908V29.972C192.754 28.748 191.782 27.776 190.558 27.776C189.334 27.776 188.398 28.748 188.398 29.972V45.02ZM208.85 23.096C208.85 24.392 209.93 25.256 211.334 25.256C212.738 25.256 213.818 24.392 213.818 23.096V22.88C213.818 21.584 212.738 20.756 211.334 20.756C209.93 20.756 208.85 21.584 208.85 22.88V23.096ZM209.174 45.02C209.174 46.244 210.146 47.18 211.334 47.18C212.558 47.18 213.53 46.244 213.53 45.02V29.972C213.53 28.748 212.558 27.776 211.334 27.776C210.11 27.776 209.174 28.748 209.174 29.972V45.02ZM223.795 47.324C224.947 47.324 225.847 47.144 226.783 46.82C227.395 46.568 227.935 45.92 227.935 45.128C227.935 44.12 227.071 43.328 226.099 43.328C225.955 43.328 225.523 43.436 225.019 43.436C223.543 43.436 222.679 42.752 222.679 41.06V31.736H226.099C227.143 31.736 228.007 30.908 228.007 29.864C228.007 28.82 227.143 27.992 226.099 27.992H222.679V24.752C222.679 23.564 221.707 22.592 220.519 22.592C219.295 22.592 218.323 23.564 218.323 24.752V27.992H217.603C216.559 27.992 215.731 28.82 215.731 29.864C215.731 30.908 216.559 31.736 217.603 31.736H218.323V41.744C218.323 45.92 220.591 47.324 223.795 47.324ZM233.88 52.868C236.939 52.868 238.668 51.428 240.288 47.54L247.236 30.872C247.308 30.656 247.416 30.188 247.416 29.828C247.416 28.676 246.48 27.776 245.328 27.776C244.212 27.776 243.6 28.532 243.24 29.432L238.488 42.068L233.376 29.432C232.979 28.424 232.368 27.776 231.252 27.776C230.028 27.776 229.092 28.676 229.092 29.9C229.092 30.188 229.2 30.62 229.344 30.944L236.4 46.712L236.256 47.108C235.536 48.584 234.852 49.124 233.556 49.124C232.944 49.124 232.548 49.016 232.044 48.872C231.828 48.8 231.612 48.728 231.252 48.728C230.316 48.728 229.488 49.448 229.488 50.528C229.488 51.572 230.208 52.112 230.856 52.328C231.756 52.688 232.656 52.868 233.88 52.868Z" fill="#FF0000"/>
</g>
<defs>
<filter id="filter0_f" x="0.511719" y="0.755859" width="508.523" height="72.112" filterUnits="userSpaceOnUse" color-interpolation-filters="sRGB">
<feFlood flood-opacity="0" result="BackgroundImageFix"/>
<feBlend mode="normal" in="SourceGraphic" in2="BackgroundImageFix" result="shape"/>
<feGaussianBlur stdDeviation="10" result="effect1_foregroundBlur"/>
</filter>
</defs>
</svg>
