<svg width="359" height="68" viewBox="0 0 359 68" fill="none" xmlns="http://www.w3.org/2000/svg">
<path d="M20.24 49.768C20.24 51.028 21.212 52 22.472 52H31.904C37.52 52 41.228 49.588 41.228 45.088V45.016C41.228 41.596 39.176 39.904 36.224 38.896C38.096 37.924 39.824 36.304 39.824 33.28V33.208C39.824 31.516 39.248 30.148 38.132 29.032C36.692 27.592 34.424 26.8 31.544 26.8H22.472C21.212 26.8 20.24 27.772 20.24 29.032V49.768ZM24.596 37.42V30.724H30.968C33.812 30.724 35.396 31.948 35.396 33.928V34C35.396 36.304 33.488 37.42 30.644 37.42H24.596ZM24.596 48.076V41.164H31.616C35.108 41.164 36.8 42.424 36.8 44.548V44.62C36.8 46.888 34.964 48.076 31.94 48.076H24.596ZM47.1925 41.164C47.5885 38.212 49.4605 36.16 52.1245 36.16C55.0045 36.16 56.6605 38.356 56.9485 41.164H47.1925ZM59.4685 49.912C59.7925 49.588 60.0445 49.12 60.0445 48.58C60.0445 47.572 59.2885 46.816 58.3165 46.816C57.8125 46.816 57.5245 46.96 57.2005 47.212C55.9765 48.22 54.5365 48.868 52.7005 48.868C49.8925 48.868 47.6965 47.14 47.2285 44.044H59.1445C60.2605 44.044 61.1965 43.18 61.1965 41.956C61.1965 37.564 58.2085 32.596 52.1605 32.596C46.7245 32.596 42.8725 37.06 42.8725 42.496V42.568C42.8725 48.436 47.1205 52.432 52.6285 52.432C55.5805 52.432 57.7405 51.46 59.4685 49.912ZM67.119 41.164C67.515 38.212 69.387 36.16 72.051 36.16C74.931 36.16 76.587 38.356 76.875 41.164H67.119ZM79.395 49.912C79.719 49.588 79.971 49.12 79.971 48.58C79.971 47.572 79.215 46.816 78.243 46.816C77.739 46.816 77.451 46.96 77.127 47.212C75.903 48.22 74.463 48.868 72.627 48.868C69.819 48.868 67.623 47.14 67.155 44.044H79.071C80.187 44.044 81.123 43.18 81.123 41.956C81.123 37.564 78.135 32.596 72.087 32.596C66.651 32.596 62.799 37.06 62.799 42.496V42.568C62.799 48.436 67.047 52.432 72.555 52.432C75.507 52.432 77.667 51.46 79.395 49.912ZM90.1416 52.324C91.2936 52.324 92.1936 52.144 93.1296 51.82C93.7416 51.568 94.2816 50.92 94.2816 50.128C94.2816 49.12 93.4176 48.328 92.4456 48.328C92.3016 48.328 91.8696 48.436 91.3656 48.436C89.8896 48.436 89.0256 47.752 89.0256 46.06V36.736H92.4456C93.4896 36.736 94.3536 35.908 94.3536 34.864C94.3536 33.82 93.4896 32.992 92.4456 32.992H89.0256V29.752C89.0256 28.564 88.0536 27.592 86.8656 27.592C85.6416 27.592 84.6696 28.564 84.6696 29.752V32.992H83.9496C82.9056 32.992 82.0776 33.82 82.0776 34.864C82.0776 35.908 82.9056 36.736 83.9496 36.736H84.6696V46.744C84.6696 50.92 86.9376 52.324 90.1416 52.324ZM96.7704 50.02C96.7704 51.244 97.7424 52.18 98.9304 52.18C100.154 52.18 101.126 51.244 101.126 50.02V41.272C101.126 38.32 102.89 36.556 105.41 36.556C108.002 36.556 109.478 38.248 109.478 41.2V50.02C109.478 51.244 110.45 52.18 111.674 52.18C112.898 52.18 113.834 51.244 113.834 50.02V39.868C113.834 35.476 111.35 32.596 107.066 32.596C104.114 32.596 102.35 34.144 101.126 35.908V27.7C101.126 26.512 100.154 25.54 98.9304 25.54C97.7064 25.54 96.7704 26.512 96.7704 27.7V50.02ZM126.331 52.432C132.199 52.432 136.519 47.932 136.519 42.532V42.46C136.519 37.024 132.235 32.596 126.403 32.596C120.571 32.596 116.251 37.096 116.251 42.532V42.604C116.251 48.004 120.535 52.432 126.331 52.432ZM126.403 48.616C123.019 48.616 120.607 45.844 120.607 42.532V42.46C120.607 39.148 122.839 36.412 126.331 36.412C129.751 36.412 132.163 39.184 132.163 42.532V42.604C132.163 45.88 129.931 48.616 126.403 48.616ZM148.856 50.452L155.192 35.908C155.3 35.692 155.444 35.26 155.444 34.864C155.444 33.676 154.508 32.776 153.32 32.776C152.168 32.776 151.592 33.532 151.268 34.288L146.3 46.96L141.404 34.36C141.044 33.46 140.432 32.776 139.244 32.776C138.056 32.776 137.084 33.784 137.084 34.864C137.084 35.26 137.228 35.62 137.336 35.944L143.672 50.452C144.176 51.604 144.968 52.36 146.156 52.36H146.372C147.56 52.36 148.352 51.568 148.856 50.452ZM160.318 41.164C160.714 38.212 162.586 36.16 165.25 36.16C168.13 36.16 169.786 38.356 170.074 41.164H160.318ZM172.594 49.912C172.918 49.588 173.17 49.12 173.17 48.58C173.17 47.572 172.414 46.816 171.442 46.816C170.938 46.816 170.65 46.96 170.326 47.212C169.102 48.22 167.662 48.868 165.826 48.868C163.018 48.868 160.822 47.14 160.354 44.044H172.27C173.386 44.044 174.322 43.18 174.322 41.956C174.322 37.564 171.334 32.596 165.286 32.596C159.85 32.596 155.998 37.06 155.998 42.496V42.568C155.998 48.436 160.246 52.432 165.754 52.432C168.706 52.432 170.866 51.46 172.594 49.912ZM176.969 50.02C176.969 51.244 177.941 52.18 179.129 52.18C180.353 52.18 181.325 51.244 181.325 50.02V41.272C181.325 38.32 183.089 36.556 185.609 36.556C188.201 36.556 189.677 38.248 189.677 41.2V50.02C189.677 51.244 190.649 52.18 191.873 52.18C193.097 52.18 194.033 51.244 194.033 50.02V39.868C194.033 35.476 191.549 32.596 187.265 32.596C184.313 32.596 182.549 34.144 181.325 35.908V34.972C181.325 33.748 180.353 32.776 179.129 32.776C177.905 32.776 176.969 33.748 176.969 34.972V50.02ZM205.694 50.128C205.694 51.388 206.702 52.18 207.71 52.18C208.682 52.18 209.258 51.748 209.87 50.956L216.53 42.28L223.298 51.1C223.838 51.82 224.378 52.18 225.314 52.18C226.574 52.18 227.51 51.244 227.51 50.02C227.51 49.372 227.186 48.832 226.826 48.364L219.41 39.112L226.466 30.328C226.898 29.788 227.15 29.284 227.15 28.636C227.15 27.412 226.106 26.62 225.134 26.62C224.162 26.62 223.55 27.052 222.974 27.844L216.674 36.088L210.302 27.7C209.762 26.98 209.222 26.62 208.286 26.62C207.026 26.62 206.09 27.556 206.09 28.78C206.09 29.392 206.414 29.968 206.774 30.436L213.83 39.184L206.342 48.472C205.946 49.012 205.694 49.516 205.694 50.128ZM239.882 49.984C239.882 51.208 240.854 52.18 242.114 52.18C243.338 52.18 244.31 51.208 244.31 49.984V41.74H255.182C256.298 41.74 257.198 40.84 257.198 39.724C257.198 38.608 256.298 37.708 255.182 37.708H244.31V30.832H256.802C257.918 30.832 258.818 29.932 258.818 28.816C258.818 27.7 257.918 26.8 256.802 26.8H242.114C240.854 26.8 239.882 27.772 239.882 29.032V49.984ZM278.087 34.972C278.087 33.748 277.079 32.776 275.891 32.776C274.667 32.776 273.695 33.748 273.695 34.972V43.72C273.695 46.672 271.931 48.4 269.411 48.4C266.819 48.4 265.343 46.744 265.343 43.792V34.972C265.343 33.748 264.371 32.776 263.147 32.776C261.959 32.776 260.987 33.748 260.987 34.972V45.088C260.987 49.516 263.471 52.396 267.755 52.396C270.707 52.396 272.471 50.848 273.695 49.048V50.02C273.695 51.244 274.703 52.18 275.891 52.18C277.115 52.18 278.087 51.208 278.087 50.02V34.972ZM281.727 50.02C281.727 51.244 282.699 52.18 283.887 52.18C285.111 52.18 286.083 51.244 286.083 50.02V41.272C286.083 38.32 287.847 36.556 290.367 36.556C292.959 36.556 294.435 38.248 294.435 41.2V50.02C294.435 51.244 295.407 52.18 296.631 52.18C297.855 52.18 298.791 51.244 298.791 50.02V39.868C298.791 35.476 296.307 32.596 292.023 32.596C289.071 32.596 287.307 34.144 286.083 35.908V34.972C286.083 33.748 285.111 32.776 283.887 32.776C282.663 32.776 281.727 33.748 281.727 34.972V50.02ZM320.936 27.7C320.936 26.476 319.964 25.54 318.74 25.54C317.552 25.54 316.58 26.476 316.58 27.7V35.944C315.212 34.144 313.232 32.596 310.1 32.596C305.564 32.596 301.28 36.16 301.28 42.46V42.532C301.28 48.832 305.636 52.396 310.1 52.396C313.196 52.396 315.176 50.812 316.58 48.832V50.02C316.58 51.244 317.552 52.18 318.776 52.18C319.964 52.18 320.936 51.244 320.936 50.02V27.7ZM311.144 36.376C314.06 36.376 316.652 38.788 316.652 42.46V42.532C316.652 46.168 314.06 48.616 311.144 48.616C308.192 48.616 305.672 46.204 305.672 42.532V42.46C305.672 38.68 308.156 36.376 311.144 36.376ZM331.12 52.36C335.08 52.36 338.176 50.38 338.176 46.384V46.312C338.176 42.892 335.044 41.632 332.272 40.768C330.04 40.048 327.988 39.472 327.988 38.068V37.996C327.988 36.916 328.96 36.124 330.652 36.124C331.984 36.124 333.568 36.628 335.116 37.42C335.404 37.564 335.62 37.636 335.98 37.636C336.988 37.636 337.78 36.88 337.78 35.872C337.78 35.116 337.348 34.54 336.736 34.216C334.9 33.244 332.776 32.668 330.76 32.668C326.98 32.668 323.992 34.864 323.992 38.464V38.536C323.992 42.172 327.124 43.324 329.932 44.116C332.164 44.8 334.18 45.304 334.18 46.78V46.852C334.18 48.112 333.1 48.904 331.228 48.904C329.5 48.904 327.592 48.292 325.756 47.068C325.504 46.924 325.18 46.816 324.82 46.816C323.812 46.816 323.056 47.608 323.056 48.58C323.056 49.3 323.416 49.84 323.884 50.092C326.08 51.604 328.708 52.36 331.12 52.36Z" fill="black"/>
<path d="M20.24 44.768C20.24 46.028 21.212 47 22.472 47H31.904C37.52 47 41.228 44.588 41.228 40.088V40.016C41.228 36.596 39.176 34.904 36.224 33.896C38.096 32.924 39.824 31.304 39.824 28.28V28.208C39.824 26.516 39.248 25.148 38.132 24.032C36.692 22.592 34.424 21.8 31.544 21.8H22.472C21.212 21.8 20.24 22.772 20.24 24.032V44.768ZM24.596 32.42V25.724H30.968C33.812 25.724 35.396 26.948 35.396 28.928V29C35.396 31.304 33.488 32.42 30.644 32.42H24.596ZM24.596 43.076V36.164H31.616C35.108 36.164 36.8 37.424 36.8 39.548V39.62C36.8 41.888 34.964 43.076 31.94 43.076H24.596ZM47.1925 36.164C47.5885 33.212 49.4605 31.16 52.1245 31.16C55.0045 31.16 56.6605 33.356 56.9485 36.164H47.1925ZM59.4685 44.912C59.7925 44.588 60.0445 44.12 60.0445 43.58C60.0445 42.572 59.2885 41.816 58.3165 41.816C57.8125 41.816 57.5245 41.96 57.2005 42.212C55.9765 43.22 54.5365 43.868 52.7005 43.868C49.8925 43.868 47.6965 42.14 47.2285 39.044H59.1445C60.2605 39.044 61.1965 38.18 61.1965 36.956C61.1965 32.564 58.2085 27.596 52.1605 27.596C46.7245 27.596 42.8725 32.06 42.8725 37.496V37.568C42.8725 43.436 47.1205 47.432 52.6285 47.432C55.5805 47.432 57.7405 46.46 59.4685 44.912ZM67.119 36.164C67.515 33.212 69.387 31.16 72.051 31.16C74.931 31.16 76.587 33.356 76.875 36.164H67.119ZM79.395 44.912C79.719 44.588 79.971 44.12 79.971 43.58C79.971 42.572 79.215 41.816 78.243 41.816C77.739 41.816 77.451 41.96 77.127 42.212C75.903 43.22 74.463 43.868 72.627 43.868C69.819 43.868 67.623 42.14 67.155 39.044H79.071C80.187 39.044 81.123 38.18 81.123 36.956C81.123 32.564 78.135 27.596 72.087 27.596C66.651 27.596 62.799 32.06 62.799 37.496V37.568C62.799 43.436 67.047 47.432 72.555 47.432C75.507 47.432 77.667 46.46 79.395 44.912ZM90.1416 47.324C91.2936 47.324 92.1936 47.144 93.1296 46.82C93.7416 46.568 94.2816 45.92 94.2816 45.128C94.2816 44.12 93.4176 43.328 92.4456 43.328C92.3016 43.328 91.8696 43.436 91.3656 43.436C89.8896 43.436 89.0256 42.752 89.0256 41.06V31.736H92.4456C93.4896 31.736 94.3536 30.908 94.3536 29.864C94.3536 28.82 93.4896 27.992 92.4456 27.992H89.0256V24.752C89.0256 23.564 88.0536 22.592 86.8656 22.592C85.6416 22.592 84.6696 23.564 84.6696 24.752V27.992H83.9496C82.9056 27.992 82.0776 28.82 82.0776 29.864C82.0776 30.908 82.9056 31.736 83.9496 31.736H84.6696V41.744C84.6696 45.92 86.9376 47.324 90.1416 47.324ZM96.7704 45.02C96.7704 46.244 97.7424 47.18 98.9304 47.18C100.154 47.18 101.126 46.244 101.126 45.02V36.272C101.126 33.32 102.89 31.556 105.41 31.556C108.002 31.556 109.478 33.248 109.478 36.2V45.02C109.478 46.244 110.45 47.18 111.674 47.18C112.898 47.18 113.834 46.244 113.834 45.02V34.868C113.834 30.476 111.35 27.596 107.066 27.596C104.114 27.596 102.35 29.144 101.126 30.908V22.7C101.126 21.512 100.154 20.54 98.9304 20.54C97.7064 20.54 96.7704 21.512 96.7704 22.7V45.02ZM126.331 47.432C132.199 47.432 136.519 42.932 136.519 37.532V37.46C136.519 32.024 132.235 27.596 126.403 27.596C120.571 27.596 116.251 32.096 116.251 37.532V37.604C116.251 43.004 120.535 47.432 126.331 47.432ZM126.403 43.616C123.019 43.616 120.607 40.844 120.607 37.532V37.46C120.607 34.148 122.839 31.412 126.331 31.412C129.751 31.412 132.163 34.184 132.163 37.532V37.604C132.163 40.88 129.931 43.616 126.403 43.616ZM148.856 45.452L155.192 30.908C155.3 30.692 155.444 30.26 155.444 29.864C155.444 28.676 154.508 27.776 153.32 27.776C152.168 27.776 151.592 28.532 151.268 29.288L146.3 41.96L141.404 29.36C141.044 28.46 140.432 27.776 139.244 27.776C138.056 27.776 137.084 28.784 137.084 29.864C137.084 30.26 137.228 30.62 137.336 30.944L143.672 45.452C144.176 46.604 144.968 47.36 146.156 47.36H146.372C147.56 47.36 148.352 46.568 148.856 45.452ZM160.318 36.164C160.714 33.212 162.586 31.16 165.25 31.16C168.13 31.16 169.786 33.356 170.074 36.164H160.318ZM172.594 44.912C172.918 44.588 173.17 44.12 173.17 43.58C173.17 42.572 172.414 41.816 171.442 41.816C170.938 41.816 170.65 41.96 170.326 42.212C169.102 43.22 167.662 43.868 165.826 43.868C163.018 43.868 160.822 42.14 160.354 39.044H172.27C173.386 39.044 174.322 38.18 174.322 36.956C174.322 32.564 171.334 27.596 165.286 27.596C159.85 27.596 155.998 32.06 155.998 37.496V37.568C155.998 43.436 160.246 47.432 165.754 47.432C168.706 47.432 170.866 46.46 172.594 44.912ZM176.969 45.02C176.969 46.244 177.941 47.18 179.129 47.18C180.353 47.18 181.325 46.244 181.325 45.02V36.272C181.325 33.32 183.089 31.556 185.609 31.556C188.201 31.556 189.677 33.248 189.677 36.2V45.02C189.677 46.244 190.649 47.18 191.873 47.18C193.097 47.18 194.033 46.244 194.033 45.02V34.868C194.033 30.476 191.549 27.596 187.265 27.596C184.313 27.596 182.549 29.144 181.325 30.908V29.972C181.325 28.748 180.353 27.776 179.129 27.776C177.905 27.776 176.969 28.748 176.969 29.972V45.02ZM239.882 44.984C239.882 46.208 240.854 47.18 242.114 47.18C243.338 47.18 244.31 46.208 244.31 44.984V36.74H255.182C256.298 36.74 257.198 35.84 257.198 34.724C257.198 33.608 256.298 32.708 255.182 32.708H244.31V25.832H256.802C257.918 25.832 258.818 24.932 258.818 23.816C258.818 22.7 257.918 21.8 256.802 21.8H242.114C240.854 21.8 239.882 22.772 239.882 24.032V44.984ZM278.087 29.972C278.087 28.748 277.079 27.776 275.891 27.776C274.667 27.776 273.695 28.748 273.695 29.972V38.72C273.695 41.672 271.931 43.4 269.411 43.4C266.819 43.4 265.343 41.744 265.343 38.792V29.972C265.343 28.748 264.371 27.776 263.147 27.776C261.959 27.776 260.987 28.748 260.987 29.972V40.088C260.987 44.516 263.471 47.396 267.755 47.396C270.707 47.396 272.471 45.848 273.695 44.048V45.02C273.695 46.244 274.703 47.18 275.891 47.18C277.115 47.18 278.087 46.208 278.087 45.02V29.972ZM281.727 45.02C281.727 46.244 282.699 47.18 283.887 47.18C285.111 47.18 286.083 46.244 286.083 45.02V36.272C286.083 33.32 287.847 31.556 290.367 31.556C292.959 31.556 294.435 33.248 294.435 36.2V45.02C294.435 46.244 295.407 47.18 296.631 47.18C297.855 47.18 298.791 46.244 298.791 45.02V34.868C298.791 30.476 296.307 27.596 292.023 27.596C289.071 27.596 287.307 29.144 286.083 30.908V29.972C286.083 28.748 285.111 27.776 283.887 27.776C282.663 27.776 281.727 28.748 281.727 29.972V45.02ZM320.936 22.7C320.936 21.476 319.964 20.54 318.74 20.54C317.552 20.54 316.58 21.476 316.58 22.7V30.944C315.212 29.144 313.232 27.596 310.1 27.596C305.564 27.596 301.28 31.16 301.28 37.46V37.532C301.28 43.832 305.636 47.396 310.1 47.396C313.196 47.396 315.176 45.812 316.58 43.832V45.02C316.58 46.244 317.552 47.18 318.776 47.18C319.964 47.18 320.936 46.244 320.936 45.02V22.7ZM311.144 31.376C314.06 31.376 316.652 33.788 316.652 37.46V37.532C316.652 41.168 314.06 43.616 311.144 43.616C308.192 43.616 305.672 41.204 305.672 37.532V37.46C305.672 33.68 308.156 31.376 311.144 31.376ZM331.12 47.36C335.08 47.36 338.176 45.38 338.176 41.384V41.312C338.176 37.892 335.044 36.632 332.272 35.768C330.04 35.048 327.988 34.472 327.988 33.068V32.996C327.988 31.916 328.96 31.124 330.652 31.124C331.984 31.124 333.568 31.628 335.116 32.42C335.404 32.564 335.62 32.636 335.98 32.636C336.988 32.636 337.78 31.88 337.78 30.872C337.78 30.116 337.348 29.54 336.736 29.216C334.9 28.244 332.776 27.668 330.76 27.668C326.98 27.668 323.992 29.864 323.992 33.464V33.536C323.992 37.172 327.124 38.324 329.932 39.116C332.164 39.8 334.18 40.304 334.18 41.78V41.852C334.18 43.112 333.1 43.904 331.228 43.904C329.5 43.904 327.592 43.292 325.756 42.068C325.504 41.924 325.18 41.816 324.82 41.816C323.812 41.816 323.056 42.608 323.056 43.58C323.056 44.3 323.416 44.84 323.884 45.092C326.08 46.604 328.708 47.36 331.12 47.36Z" fill="#00E59D"/>
<path d="M205.694 45.128C205.694 46.388 206.702 47.18 207.71 47.18C208.682 47.18 209.258 46.748 209.87 45.956L216.53 37.28L223.298 46.1C223.838 46.82 224.378 47.18 225.314 47.18C226.574 47.18 227.51 46.244 227.51 45.02C227.51 44.372 227.186 43.832 226.826 43.364L219.41 34.112L226.466 25.328C226.898 24.788 227.15 24.284 227.15 23.636C227.15 22.412 226.106 21.62 225.134 21.62C224.162 21.62 223.55 22.052 222.974 22.844L216.674 31.088L210.302 22.7C209.762 21.98 209.222 21.62 208.286 21.62C207.026 21.62 206.09 22.556 206.09 23.78C206.09 24.392 206.414 24.968 206.774 25.436L213.83 34.184L206.342 43.472C205.946 44.012 205.694 44.516 205.694 45.128Z" fill="#FF0000"/>
<g filter="url(#filter0_f)">
<path d="M20.24 44.768C20.24 46.028 21.212 47 22.472 47H31.904C37.52 47 41.228 44.588 41.228 40.088V40.016C41.228 36.596 39.176 34.904 36.224 33.896C38.096 32.924 39.824 31.304 39.824 28.28V28.208C39.824 26.516 39.248 25.148 38.132 24.032C36.692 22.592 34.424 21.8 31.544 21.8H22.472C21.212 21.8 20.24 22.772 20.24 24.032V44.768ZM24.596 32.42V25.724H30.968C33.812 25.724 35.396 26.948 35.396 28.928V29C35.396 31.304 33.488 32.42 30.644 32.42H24.596ZM24.596 43.076V36.164H31.616C35.108 36.164 36.8 37.424 36.8 39.548V39.62C36.8 41.888 34.964 43.076 31.94 43.076H24.596ZM47.1925 36.164C47.5885 33.212 49.4605 31.16 52.1245 31.16C55.0045 31.16 56.6605 33.356 56.9485 36.164H47.1925ZM59.4685 44.912C59.7925 44.588 60.0445 44.12 60.0445 43.58C60.0445 42.572 59.2885 41.816 58.3165 41.816C57.8125 41.816 57.5245 41.96 57.2005 42.212C55.9765 43.22 54.5365 43.868 52.7005 43.868C49.8925 43.868 47.6965 42.14 47.2285 39.044H59.1445C60.2605 39.044 61.1965 38.18 61.1965 36.956C61.1965 32.564 58.2085 27.596 52.1605 27.596C46.7245 27.596 42.8725 32.06 42.8725 37.496V37.568C42.8725 43.436 47.1205 47.432 52.6285 47.432C55.5805 47.432 57.7405 46.46 59.4685 44.912ZM67.119 36.164C67.515 33.212 69.387 31.16 72.051 31.16C74.931 31.16 76.587 33.356 76.875 36.164H67.119ZM79.395 44.912C79.719 44.588 79.971 44.12 79.971 43.58C79.971 42.572 79.215 41.816 78.243 41.816C77.739 41.816 77.451 41.96 77.127 42.212C75.903 43.22 74.463 43.868 72.627 43.868C69.819 43.868 67.623 42.14 67.155 39.044H79.071C80.187 39.044 81.123 38.18 81.123 36.956C81.123 32.564 78.135 27.596 72.087 27.596C66.651 27.596 62.799 32.06 62.799 37.496V37.568C62.799 43.436 67.047 47.432 72.555 47.432C75.507 47.432 77.667 46.46 79.395 44.912ZM90.1416 47.324C91.2936 47.324 92.1936 47.144 93.1296 46.82C93.7416 46.568 94.2816 45.92 94.2816 45.128C94.2816 44.12 93.4176 43.328 92.4456 43.328C92.3016 43.328 91.8696 43.436 91.3656 43.436C89.8896 43.436 89.0256 42.752 89.0256 41.06V31.736H92.4456C93.4896 31.736 94.3536 30.908 94.3536 29.864C94.3536 28.82 93.4896 27.992 92.4456 27.992H89.0256V24.752C89.0256 23.564 88.0536 22.592 86.8656 22.592C85.6416 22.592 84.6696 23.564 84.6696 24.752V27.992H83.9496C82.9056 27.992 82.0776 28.82 82.0776 29.864C82.0776 30.908 82.9056 31.736 83.9496 31.736H84.6696V41.744C84.6696 45.92 86.9376 47.324 90.1416 47.324ZM96.7704 45.02C96.7704 46.244 97.7424 47.18 98.9304 47.18C100.154 47.18 101.126 46.244 101.126 45.02V36.272C101.126 33.32 102.89 31.556 105.41 31.556C108.002 31.556 109.478 33.248 109.478 36.2V45.02C109.478 46.244 110.45 47.18 111.674 47.18C112.898 47.18 113.834 46.244 113.834 45.02V34.868C113.834 30.476 111.35 27.596 107.066 27.596C104.114 27.596 102.35 29.144 101.126 30.908V22.7C101.126 21.512 100.154 20.54 98.9304 20.54C97.7064 20.54 96.7704 21.512 96.7704 22.7V45.02ZM126.331 47.432C132.199 47.432 136.519 42.932 136.519 37.532V37.46C136.519 32.024 132.235 27.596 126.403 27.596C120.571 27.596 116.251 32.096 116.251 37.532V37.604C116.251 43.004 120.535 47.432 126.331 47.432ZM126.403 43.616C123.019 43.616 120.607 40.844 120.607 37.532V37.46C120.607 34.148 122.839 31.412 126.331 31.412C129.751 31.412 132.163 34.184 132.163 37.532V37.604C132.163 40.88 129.931 43.616 126.403 43.616ZM148.856 45.452L155.192 30.908C155.3 30.692 155.444 30.26 155.444 29.864C155.444 28.676 154.508 27.776 153.32 27.776C152.168 27.776 151.592 28.532 151.268 29.288L146.3 41.96L141.404 29.36C141.044 28.46 140.432 27.776 139.244 27.776C138.056 27.776 137.084 28.784 137.084 29.864C137.084 30.26 137.228 30.62 137.336 30.944L143.672 45.452C144.176 46.604 144.968 47.36 146.156 47.36H146.372C147.56 47.36 148.352 46.568 148.856 45.452ZM160.318 36.164C160.714 33.212 162.586 31.16 165.25 31.16C168.13 31.16 169.786 33.356 170.074 36.164H160.318ZM172.594 44.912C172.918 44.588 173.17 44.12 173.17 43.58C173.17 42.572 172.414 41.816 171.442 41.816C170.938 41.816 170.65 41.96 170.326 42.212C169.102 43.22 167.662 43.868 165.826 43.868C163.018 43.868 160.822 42.14 160.354 39.044H172.27C173.386 39.044 174.322 38.18 174.322 36.956C174.322 32.564 171.334 27.596 165.286 27.596C159.85 27.596 155.998 32.06 155.998 37.496V37.568C155.998 43.436 160.246 47.432 165.754 47.432C168.706 47.432 170.866 46.46 172.594 44.912ZM176.969 45.02C176.969 46.244 177.941 47.18 179.129 47.18C180.353 47.18 181.325 46.244 181.325 45.02V36.272C181.325 33.32 183.089 31.556 185.609 31.556C188.201 31.556 189.677 33.248 189.677 36.2V45.02C189.677 46.244 190.649 47.18 191.873 47.18C193.097 47.18 194.033 46.244 194.033 45.02V34.868C194.033 30.476 191.549 27.596 187.265 27.596C184.313 27.596 182.549 29.144 181.325 30.908V29.972C181.325 28.748 180.353 27.776 179.129 27.776C177.905 27.776 176.969 28.748 176.969 29.972V45.02ZM239.882 44.984C239.882 46.208 240.854 47.18 242.114 47.18C243.338 47.18 244.31 46.208 244.31 44.984V36.74H255.182C256.298 36.74 257.198 35.84 257.198 34.724C257.198 33.608 256.298 32.708 255.182 32.708H244.31V25.832H256.802C257.918 25.832 258.818 24.932 258.818 23.816C258.818 22.7 257.918 21.8 256.802 21.8H242.114C240.854 21.8 239.882 22.772 239.882 24.032V44.984ZM278.087 29.972C278.087 28.748 277.079 27.776 275.891 27.776C274.667 27.776 273.695 28.748 273.695 29.972V38.72C273.695 41.672 271.931 43.4 269.411 43.4C266.819 43.4 265.343 41.744 265.343 38.792V29.972C265.343 28.748 264.371 27.776 263.147 27.776C261.959 27.776 260.987 28.748 260.987 29.972V40.088C260.987 44.516 263.471 47.396 267.755 47.396C270.707 47.396 272.471 45.848 273.695 44.048V45.02C273.695 46.244 274.703 47.18 275.891 47.18C277.115 47.18 278.087 46.208 278.087 45.02V29.972ZM281.727 45.02C281.727 46.244 282.699 47.18 283.887 47.18C285.111 47.18 286.083 46.244 286.083 45.02V36.272C286.083 33.32 287.847 31.556 290.367 31.556C292.959 31.556 294.435 33.248 294.435 36.2V45.02C294.435 46.244 295.407 47.18 296.631 47.18C297.855 47.18 298.791 46.244 298.791 45.02V34.868C298.791 30.476 296.307 27.596 292.023 27.596C289.071 27.596 287.307 29.144 286.083 30.908V29.972C286.083 28.748 285.111 27.776 283.887 27.776C282.663 27.776 281.727 28.748 281.727 29.972V45.02ZM320.936 22.7C320.936 21.476 319.964 20.54 318.74 20.54C317.552 20.54 316.58 21.476 316.58 22.7V30.944C315.212 29.144 313.232 27.596 310.1 27.596C305.564 27.596 301.28 31.16 301.28 37.46V37.532C301.28 43.832 305.636 47.396 310.1 47.396C313.196 47.396 315.176 45.812 316.58 43.832V45.02C316.58 46.244 317.552 47.18 318.776 47.18C319.964 47.18 320.936 46.244 320.936 45.02V22.7ZM311.144 31.376C314.06 31.376 316.652 33.788 316.652 37.46V37.532C316.652 41.168 314.06 43.616 311.144 43.616C308.192 43.616 305.672 41.204 305.672 37.532V37.46C305.672 33.68 308.156 31.376 311.144 31.376ZM331.12 47.36C335.08 47.36 338.176 45.38 338.176 41.384V41.312C338.176 37.892 335.044 36.632 332.272 35.768C330.04 35.048 327.988 34.472 327.988 33.068V32.996C327.988 31.916 328.96 31.124 330.652 31.124C331.984 31.124 333.568 31.628 335.116 32.42C335.404 32.564 335.62 32.636 335.98 32.636C336.988 32.636 337.78 31.88 337.78 30.872C337.78 30.116 337.348 29.54 336.736 29.216C334.9 28.244 332.776 27.668 330.76 27.668C326.98 27.668 323.992 29.864 323.992 33.464V33.536C323.992 37.172 327.124 38.324 329.932 39.116C332.164 39.8 334.18 40.304 334.18 41.78V41.852C334.18 43.112 333.1 43.904 331.228 43.904C329.5 43.904 327.592 43.292 325.756 42.068C325.504 41.924 325.18 41.816 324.82 41.816C323.812 41.816 323.056 42.608 323.056 43.58C323.056 44.3 323.416 44.84 323.884 45.092C326.08 46.604 328.708 47.36 331.12 47.36Z" fill="#00E59D"/>
<path d="M205.694 45.128C205.694 46.388 206.702 47.18 207.71 47.18C208.682 47.18 209.258 46.748 209.87 45.956L216.53 37.28L223.298 46.1C223.838 46.82 224.378 47.18 225.314 47.18C226.574 47.18 227.51 46.244 227.51 45.02C227.51 44.372 227.186 43.832 226.826 43.364L219.41 34.112L226.466 25.328C226.898 24.788 227.15 24.284 227.15 23.636C227.15 22.412 226.106 21.62 225.134 21.62C224.162 21.62 223.55 22.052 222.974 22.844L216.674 31.088L210.302 22.7C209.762 21.98 209.222 21.62 208.286 21.62C207.026 21.62 206.09 22.556 206.09 23.78C206.09 24.392 206.414 24.968 206.774 25.436L213.83 34.184L206.342 43.472C205.946 44.012 205.694 44.516 205.694 45.128Z" fill="#FF0000"/>
</g>
<defs>
<filter id="filter0_f" x="0.240234" y="0.540039" width="357.936" height="66.892" filterUnits="userSpaceOnUse" color-interpolation-filters="sRGB">
<feFlood flood-opacity="0" result="BackgroundImageFix"/>
<feBlend mode="normal" in="SourceGraphic" in2="BackgroundImageFix" result="shape"/>
<feGaussianBlur stdDeviation="10" result="effect1_foregroundBlur"/>
</filter>
</defs>
</svg>
