<svg width="351" height="121" viewBox="0 0 351 121" fill="none" xmlns="http://www.w3.org/2000/svg">
<path d="M28.432 49.984C28.432 51.208 29.44 52.18 30.664 52.18C31.888 52.18 32.896 51.208 32.896 49.984V30.904H39.052C40.168 30.904 41.068 29.968 41.068 28.852C41.068 27.736 40.168 26.8 39.052 26.8H22.312C21.16 26.8 20.26 27.736 20.26 28.852C20.26 29.968 21.16 30.904 22.312 30.904H28.432V49.984ZM40.6782 50.02C40.6782 51.244 41.6502 52.18 42.8382 52.18C44.0622 52.18 45.0342 51.208 45.0342 50.02V44.404C45.0342 39.904 47.1582 37.528 50.2542 36.988C51.2262 36.808 51.9822 36.052 51.9822 34.9C51.9822 33.64 51.1902 32.74 49.8222 32.74C47.9142 32.74 46.0422 34.54 45.0342 36.916V34.972C45.0342 33.748 44.0622 32.776 42.8382 32.776C41.6142 32.776 40.6782 33.748 40.6782 34.972V50.02ZM70.6333 34.972C70.6333 33.748 69.6253 32.776 68.4373 32.776C67.2133 32.776 66.2413 33.748 66.2413 34.972V43.72C66.2413 46.672 64.4773 48.4 61.9573 48.4C59.3653 48.4 57.8893 46.744 57.8893 43.792V34.972C57.8893 33.748 56.9173 32.776 55.6933 32.776C54.5053 32.776 53.5333 33.748 53.5333 34.972V45.088C53.5333 49.516 56.0173 52.396 60.3013 52.396C63.2533 52.396 65.0173 50.848 66.2413 49.048V50.02C66.2413 51.244 67.2493 52.18 68.4373 52.18C69.6613 52.18 70.6333 51.208 70.6333 50.02V34.972ZM74.5255 50.02C74.5255 51.244 75.4975 52.18 76.6855 52.18C77.9095 52.18 78.8815 51.244 78.8815 50.02V27.7C78.8815 26.512 77.9095 25.54 76.6855 25.54C75.4615 25.54 74.5255 26.512 74.5255 27.7V50.02ZM86.2303 57.868C89.2903 57.868 91.0183 56.428 92.6383 52.54L99.5863 35.872C99.6583 35.656 99.7663 35.188 99.7663 34.828C99.7663 33.676 98.8303 32.776 97.6783 32.776C96.5623 32.776 95.9503 33.532 95.5903 34.432L90.8383 47.068L85.7263 34.432C85.3303 33.424 84.7183 32.776 83.6023 32.776C82.3783 32.776 81.4423 33.676 81.4423 34.9C81.4423 35.188 81.5503 35.62 81.6943 35.944L88.7503 51.712L88.6063 52.108C87.8863 53.584 87.2023 54.124 85.9063 54.124C85.2943 54.124 84.8983 54.016 84.3943 53.872C84.1783 53.8 83.9623 53.728 83.6023 53.728C82.6663 53.728 81.8383 54.448 81.8383 55.528C81.8383 56.572 82.5583 57.112 83.2063 57.328C84.1063 57.688 85.0063 57.868 86.2303 57.868ZM129.78 27.7C129.78 26.476 128.808 25.54 127.584 25.54C126.396 25.54 125.424 26.476 125.424 27.7V35.944C124.056 34.144 122.076 32.596 118.944 32.596C114.408 32.596 110.124 36.16 110.124 42.46V42.532C110.124 48.832 114.48 52.396 118.944 52.396C122.04 52.396 124.02 50.812 125.424 48.832V50.02C125.424 51.244 126.396 52.18 127.62 52.18C128.808 52.18 129.78 51.244 129.78 50.02V27.7ZM119.988 36.376C122.904 36.376 125.496 38.788 125.496 42.46V42.532C125.496 46.168 122.904 48.616 119.988 48.616C117.036 48.616 114.516 46.204 114.516 42.532V42.46C114.516 38.68 117 36.376 119.988 36.376ZM136.725 41.164C137.121 38.212 138.993 36.16 141.657 36.16C144.537 36.16 146.193 38.356 146.481 41.164H136.725ZM149.001 49.912C149.325 49.588 149.577 49.12 149.577 48.58C149.577 47.572 148.821 46.816 147.849 46.816C147.345 46.816 147.057 46.96 146.733 47.212C145.509 48.22 144.069 48.868 142.233 48.868C139.425 48.868 137.229 47.14 136.761 44.044H148.677C149.793 44.044 150.729 43.18 150.729 41.956C150.729 37.564 147.741 32.596 141.693 32.596C136.257 32.596 132.405 37.06 132.405 42.496V42.568C132.405 48.436 136.653 52.432 142.161 52.432C145.113 52.432 147.273 51.46 149.001 49.912ZM162.159 52.432C165.327 52.432 167.379 51.352 169.071 49.732C169.467 49.408 169.683 48.94 169.683 48.364C169.683 47.32 168.855 46.456 167.811 46.456C167.307 46.456 166.875 46.708 166.623 46.924C165.435 47.932 164.103 48.616 162.375 48.616C159.027 48.616 156.687 45.916 156.687 42.532V42.46C156.687 39.148 159.027 36.412 162.195 36.412C163.923 36.412 165.147 37.096 166.263 38.032C166.551 38.248 167.019 38.464 167.559 38.464C168.675 38.464 169.575 37.6 169.575 36.484C169.575 35.764 169.179 35.224 168.891 34.972C167.271 33.568 165.219 32.596 162.231 32.596C156.507 32.596 152.331 37.132 152.331 42.532V42.604C152.331 48.004 156.507 52.432 162.159 52.432ZM174.89 41.164C175.286 38.212 177.158 36.16 179.822 36.16C182.702 36.16 184.358 38.356 184.646 41.164H174.89ZM187.166 49.912C187.49 49.588 187.742 49.12 187.742 48.58C187.742 47.572 186.986 46.816 186.014 46.816C185.51 46.816 185.222 46.96 184.898 47.212C183.674 48.22 182.234 48.868 180.398 48.868C177.59 48.868 175.394 47.14 174.926 44.044H186.842C187.958 44.044 188.894 43.18 188.894 41.956C188.894 37.564 185.906 32.596 179.858 32.596C174.422 32.596 170.57 37.06 170.57 42.496V42.568C170.57 48.436 174.818 52.432 180.326 52.432C183.278 52.432 185.438 51.46 187.166 49.912ZM191.541 50.02C191.541 51.244 192.513 52.18 193.701 52.18C194.925 52.18 195.897 51.244 195.897 50.02V41.272C195.897 38.32 197.661 36.556 200.181 36.556C202.773 36.556 204.249 38.248 204.249 41.2V50.02C204.249 51.244 205.221 52.18 206.445 52.18C207.669 52.18 208.605 51.244 208.605 50.02V39.868C208.605 35.476 206.121 32.596 201.837 32.596C198.885 32.596 197.121 34.144 195.897 35.908V34.972C195.897 33.748 194.925 32.776 193.701 32.776C192.477 32.776 191.541 33.748 191.541 34.972V50.02ZM218.437 52.324C219.589 52.324 220.489 52.144 221.425 51.82C222.037 51.568 222.577 50.92 222.577 50.128C222.577 49.12 221.713 48.328 220.741 48.328C220.597 48.328 220.165 48.436 219.661 48.436C218.185 48.436 217.321 47.752 217.321 46.06V36.736H220.741C221.785 36.736 222.649 35.908 222.649 34.864C222.649 33.82 221.785 32.992 220.741 32.992H217.321V29.752C217.321 28.564 216.349 27.592 215.161 27.592C213.937 27.592 212.965 28.564 212.965 29.752V32.992H212.245C211.201 32.992 210.373 33.82 210.373 34.864C210.373 35.908 211.201 36.736 212.245 36.736H212.965V46.744C212.965 50.92 215.233 52.324 218.437 52.324ZM225.066 50.02C225.066 51.244 226.038 52.18 227.226 52.18C228.45 52.18 229.422 51.208 229.422 50.02V44.404C229.422 39.904 231.546 37.528 234.642 36.988C235.614 36.808 236.37 36.052 236.37 34.9C236.37 33.64 235.578 32.74 234.21 32.74C232.302 32.74 230.43 34.54 229.422 36.916V34.972C229.422 33.748 228.45 32.776 227.226 32.776C226.002 32.776 225.066 33.748 225.066 34.972V50.02ZM242.695 52.396C245.611 52.396 247.591 51.172 248.887 49.624V50.344C248.887 51.316 249.751 52.18 251.011 52.18C252.199 52.18 253.135 51.28 253.135 50.092V40.732C253.135 38.248 252.487 36.232 251.083 34.864C249.751 33.496 247.627 32.74 244.783 32.74C242.299 32.74 240.463 33.172 238.663 33.856C238.015 34.108 237.475 34.792 237.475 35.584C237.475 36.592 238.303 37.384 239.311 37.384C239.527 37.384 239.743 37.348 239.995 37.276C241.183 36.808 242.551 36.52 244.207 36.52C247.267 36.52 248.923 37.96 248.923 40.66V41.128C247.447 40.66 245.935 40.336 243.811 40.336C239.167 40.336 235.963 42.352 235.963 46.456V46.528C235.963 50.344 239.131 52.396 242.695 52.396ZM243.919 49.228C241.831 49.228 240.211 48.184 240.211 46.348V46.276C240.211 44.296 241.867 43.108 244.675 43.108C246.403 43.108 247.879 43.432 248.995 43.864V45.16C248.995 47.572 246.799 49.228 243.919 49.228ZM256.804 50.02C256.804 51.244 257.776 52.18 258.964 52.18C260.188 52.18 261.16 51.244 261.16 50.02V27.7C261.16 26.512 260.188 25.54 258.964 25.54C257.74 25.54 256.804 26.512 256.804 27.7V50.02ZM264.98 28.096C264.98 29.392 266.06 30.256 267.464 30.256C268.868 30.256 269.948 29.392 269.948 28.096V27.88C269.948 26.584 268.868 25.756 267.464 25.756C266.06 25.756 264.98 26.584 264.98 27.88V28.096ZM265.304 50.02C265.304 51.244 266.276 52.18 267.464 52.18C268.688 52.18 269.66 51.244 269.66 50.02V34.972C269.66 33.748 268.688 32.776 267.464 32.776C266.24 32.776 265.304 33.748 265.304 34.972V50.02ZM274.705 52H287.593C288.601 52 289.393 51.208 289.393 50.236C289.393 49.228 288.601 48.436 287.593 48.436H278.233L288.385 36.916C289.033 36.196 289.321 35.656 289.321 34.828V34.72C289.321 33.712 288.421 32.992 287.233 32.992H274.705C273.697 32.992 272.905 33.784 272.905 34.792C272.905 35.764 273.697 36.556 274.705 36.556H283.669L273.553 48.076C272.869 48.796 272.581 49.336 272.581 50.164V50.236C272.581 51.244 273.481 52 274.705 52ZM294.646 41.164C295.042 38.212 296.914 36.16 299.578 36.16C302.458 36.16 304.114 38.356 304.402 41.164H294.646ZM306.922 49.912C307.246 49.588 307.498 49.12 307.498 48.58C307.498 47.572 306.742 46.816 305.77 46.816C305.266 46.816 304.978 46.96 304.654 47.212C303.43 48.22 301.99 48.868 300.154 48.868C297.346 48.868 295.15 47.14 294.682 44.044H306.598C307.714 44.044 308.65 43.18 308.65 41.956C308.65 37.564 305.662 32.596 299.614 32.596C294.178 32.596 290.326 37.06 290.326 42.496V42.568C290.326 48.436 294.574 52.432 300.082 52.432C303.034 52.432 305.194 51.46 306.922 49.912ZM329.981 27.7C329.981 26.476 329.009 25.54 327.785 25.54C326.597 25.54 325.625 26.476 325.625 27.7V35.944C324.257 34.144 322.277 32.596 319.145 32.596C314.609 32.596 310.325 36.16 310.325 42.46V42.532C310.325 48.832 314.681 52.396 319.145 52.396C322.241 52.396 324.221 50.812 325.625 48.832V50.02C325.625 51.244 326.597 52.18 327.821 52.18C329.009 52.18 329.981 51.244 329.981 50.02V27.7ZM320.189 36.376C323.105 36.376 325.697 38.788 325.697 42.46V42.532C325.697 46.168 323.105 48.616 320.189 48.616C317.237 48.616 314.717 46.204 314.717 42.532V42.46C314.717 38.68 317.201 36.376 320.189 36.376Z" fill="black"/>
<path d="M28.432 44.984C28.432 46.208 29.44 47.18 30.664 47.18C31.888 47.18 32.896 46.208 32.896 44.984V25.904H39.052C40.168 25.904 41.068 24.968 41.068 23.852C41.068 22.736 40.168 21.8 39.052 21.8H22.312C21.16 21.8 20.26 22.736 20.26 23.852C20.26 24.968 21.16 25.904 22.312 25.904H28.432V44.984ZM40.6782 45.02C40.6782 46.244 41.6502 47.18 42.8382 47.18C44.0622 47.18 45.0342 46.208 45.0342 45.02V39.404C45.0342 34.904 47.1582 32.528 50.2542 31.988C51.2262 31.808 51.9822 31.052 51.9822 29.9C51.9822 28.64 51.1902 27.74 49.8222 27.74C47.9142 27.74 46.0422 29.54 45.0342 31.916V29.972C45.0342 28.748 44.0622 27.776 42.8382 27.776C41.6142 27.776 40.6782 28.748 40.6782 29.972V45.02ZM70.6333 29.972C70.6333 28.748 69.6253 27.776 68.4373 27.776C67.2133 27.776 66.2413 28.748 66.2413 29.972V38.72C66.2413 41.672 64.4773 43.4 61.9573 43.4C59.3653 43.4 57.8893 41.744 57.8893 38.792V29.972C57.8893 28.748 56.9173 27.776 55.6933 27.776C54.5053 27.776 53.5333 28.748 53.5333 29.972V40.088C53.5333 44.516 56.0173 47.396 60.3013 47.396C63.2533 47.396 65.0173 45.848 66.2413 44.048V45.02C66.2413 46.244 67.2493 47.18 68.4373 47.18C69.6613 47.18 70.6333 46.208 70.6333 45.02V29.972ZM74.5255 45.02C74.5255 46.244 75.4975 47.18 76.6855 47.18C77.9095 47.18 78.8815 46.244 78.8815 45.02V22.7C78.8815 21.512 77.9095 20.54 76.6855 20.54C75.4615 20.54 74.5255 21.512 74.5255 22.7V45.02ZM86.2303 52.868C89.2903 52.868 91.0183 51.428 92.6383 47.54L99.5863 30.872C99.6583 30.656 99.7663 30.188 99.7663 29.828C99.7663 28.676 98.8303 27.776 97.6783 27.776C96.5623 27.776 95.9503 28.532 95.5903 29.432L90.8383 42.068L85.7263 29.432C85.3303 28.424 84.7183 27.776 83.6023 27.776C82.3783 27.776 81.4423 28.676 81.4423 29.9C81.4423 30.188 81.5503 30.62 81.6943 30.944L88.7503 46.712L88.6063 47.108C87.8863 48.584 87.2023 49.124 85.9063 49.124C85.2943 49.124 84.8983 49.016 84.3943 48.872C84.1783 48.8 83.9623 48.728 83.6023 48.728C82.6663 48.728 81.8383 49.448 81.8383 50.528C81.8383 51.572 82.5583 52.112 83.2063 52.328C84.1063 52.688 85.0063 52.868 86.2303 52.868ZM129.78 22.7C129.78 21.476 128.808 20.54 127.584 20.54C126.396 20.54 125.424 21.476 125.424 22.7V30.944C124.056 29.144 122.076 27.596 118.944 27.596C114.408 27.596 110.124 31.16 110.124 37.46V37.532C110.124 43.832 114.48 47.396 118.944 47.396C122.04 47.396 124.02 45.812 125.424 43.832V45.02C125.424 46.244 126.396 47.18 127.62 47.18C128.808 47.18 129.78 46.244 129.78 45.02V22.7ZM119.988 31.376C122.904 31.376 125.496 33.788 125.496 37.46V37.532C125.496 41.168 122.904 43.616 119.988 43.616C117.036 43.616 114.516 41.204 114.516 37.532V37.46C114.516 33.68 117 31.376 119.988 31.376ZM136.725 36.164C137.121 33.212 138.993 31.16 141.657 31.16C144.537 31.16 146.193 33.356 146.481 36.164H136.725ZM149.001 44.912C149.325 44.588 149.577 44.12 149.577 43.58C149.577 42.572 148.821 41.816 147.849 41.816C147.345 41.816 147.057 41.96 146.733 42.212C145.509 43.22 144.069 43.868 142.233 43.868C139.425 43.868 137.229 42.14 136.761 39.044H148.677C149.793 39.044 150.729 38.18 150.729 36.956C150.729 32.564 147.741 27.596 141.693 27.596C136.257 27.596 132.405 32.06 132.405 37.496V37.568C132.405 43.436 136.653 47.432 142.161 47.432C145.113 47.432 147.273 46.46 149.001 44.912ZM162.159 47.432C165.327 47.432 167.379 46.352 169.071 44.732C169.467 44.408 169.683 43.94 169.683 43.364C169.683 42.32 168.855 41.456 167.811 41.456C167.307 41.456 166.875 41.708 166.623 41.924C165.435 42.932 164.103 43.616 162.375 43.616C159.027 43.616 156.687 40.916 156.687 37.532V37.46C156.687 34.148 159.027 31.412 162.195 31.412C163.923 31.412 165.147 32.096 166.263 33.032C166.551 33.248 167.019 33.464 167.559 33.464C168.675 33.464 169.575 32.6 169.575 31.484C169.575 30.764 169.179 30.224 168.891 29.972C167.271 28.568 165.219 27.596 162.231 27.596C156.507 27.596 152.331 32.132 152.331 37.532V37.604C152.331 43.004 156.507 47.432 162.159 47.432ZM174.89 36.164C175.286 33.212 177.158 31.16 179.822 31.16C182.702 31.16 184.358 33.356 184.646 36.164H174.89ZM187.166 44.912C187.49 44.588 187.742 44.12 187.742 43.58C187.742 42.572 186.986 41.816 186.014 41.816C185.51 41.816 185.222 41.96 184.898 42.212C183.674 43.22 182.234 43.868 180.398 43.868C177.59 43.868 175.394 42.14 174.926 39.044H186.842C187.958 39.044 188.894 38.18 188.894 36.956C188.894 32.564 185.906 27.596 179.858 27.596C174.422 27.596 170.57 32.06 170.57 37.496V37.568C170.57 43.436 174.818 47.432 180.326 47.432C183.278 47.432 185.438 46.46 187.166 44.912ZM191.541 45.02C191.541 46.244 192.513 47.18 193.701 47.18C194.925 47.18 195.897 46.244 195.897 45.02V36.272C195.897 33.32 197.661 31.556 200.181 31.556C202.773 31.556 204.249 33.248 204.249 36.2V45.02C204.249 46.244 205.221 47.18 206.445 47.18C207.669 47.18 208.605 46.244 208.605 45.02V34.868C208.605 30.476 206.121 27.596 201.837 27.596C198.885 27.596 197.121 29.144 195.897 30.908V29.972C195.897 28.748 194.925 27.776 193.701 27.776C192.477 27.776 191.541 28.748 191.541 29.972V45.02ZM218.437 47.324C219.589 47.324 220.489 47.144 221.425 46.82C222.037 46.568 222.577 45.92 222.577 45.128C222.577 44.12 221.713 43.328 220.741 43.328C220.597 43.328 220.165 43.436 219.661 43.436C218.185 43.436 217.321 42.752 217.321 41.06V31.736H220.741C221.785 31.736 222.649 30.908 222.649 29.864C222.649 28.82 221.785 27.992 220.741 27.992H217.321V24.752C217.321 23.564 216.349 22.592 215.161 22.592C213.937 22.592 212.965 23.564 212.965 24.752V27.992H212.245C211.201 27.992 210.373 28.82 210.373 29.864C210.373 30.908 211.201 31.736 212.245 31.736H212.965V41.744C212.965 45.92 215.233 47.324 218.437 47.324ZM225.066 45.02C225.066 46.244 226.038 47.18 227.226 47.18C228.45 47.18 229.422 46.208 229.422 45.02V39.404C229.422 34.904 231.546 32.528 234.642 31.988C235.614 31.808 236.37 31.052 236.37 29.9C236.37 28.64 235.578 27.74 234.21 27.74C232.302 27.74 230.43 29.54 229.422 31.916V29.972C229.422 28.748 228.45 27.776 227.226 27.776C226.002 27.776 225.066 28.748 225.066 29.972V45.02ZM242.695 47.396C245.611 47.396 247.591 46.172 248.887 44.624V45.344C248.887 46.316 249.751 47.18 251.011 47.18C252.199 47.18 253.135 46.28 253.135 45.092V35.732C253.135 33.248 252.487 31.232 251.083 29.864C249.751 28.496 247.627 27.74 244.783 27.74C242.299 27.74 240.463 28.172 238.663 28.856C238.015 29.108 237.475 29.792 237.475 30.584C237.475 31.592 238.303 32.384 239.311 32.384C239.527 32.384 239.743 32.348 239.995 32.276C241.183 31.808 242.551 31.52 244.207 31.52C247.267 31.52 248.923 32.96 248.923 35.66V36.128C247.447 35.66 245.935 35.336 243.811 35.336C239.167 35.336 235.963 37.352 235.963 41.456V41.528C235.963 45.344 239.131 47.396 242.695 47.396ZM243.919 44.228C241.831 44.228 240.211 43.184 240.211 41.348V41.276C240.211 39.296 241.867 38.108 244.675 38.108C246.403 38.108 247.879 38.432 248.995 38.864V40.16C248.995 42.572 246.799 44.228 243.919 44.228ZM256.804 45.02C256.804 46.244 257.776 47.18 258.964 47.18C260.188 47.18 261.16 46.244 261.16 45.02V22.7C261.16 21.512 260.188 20.54 258.964 20.54C257.74 20.54 256.804 21.512 256.804 22.7V45.02ZM264.98 23.096C264.98 24.392 266.06 25.256 267.464 25.256C268.868 25.256 269.948 24.392 269.948 23.096V22.88C269.948 21.584 268.868 20.756 267.464 20.756C266.06 20.756 264.98 21.584 264.98 22.88V23.096ZM265.304 45.02C265.304 46.244 266.276 47.18 267.464 47.18C268.688 47.18 269.66 46.244 269.66 45.02V29.972C269.66 28.748 268.688 27.776 267.464 27.776C266.24 27.776 265.304 28.748 265.304 29.972V45.02ZM274.705 47H287.593C288.601 47 289.393 46.208 289.393 45.236C289.393 44.228 288.601 43.436 287.593 43.436H278.233L288.385 31.916C289.033 31.196 289.321 30.656 289.321 29.828V29.72C289.321 28.712 288.421 27.992 287.233 27.992H274.705C273.697 27.992 272.905 28.784 272.905 29.792C272.905 30.764 273.697 31.556 274.705 31.556H283.669L273.553 43.076C272.869 43.796 272.581 44.336 272.581 45.164V45.236C272.581 46.244 273.481 47 274.705 47ZM294.646 36.164C295.042 33.212 296.914 31.16 299.578 31.16C302.458 31.16 304.114 33.356 304.402 36.164H294.646ZM306.922 44.912C307.246 44.588 307.498 44.12 307.498 43.58C307.498 42.572 306.742 41.816 305.77 41.816C305.266 41.816 304.978 41.96 304.654 42.212C303.43 43.22 301.99 43.868 300.154 43.868C297.346 43.868 295.15 42.14 294.682 39.044H306.598C307.714 39.044 308.65 38.18 308.65 36.956C308.65 32.564 305.662 27.596 299.614 27.596C294.178 27.596 290.326 32.06 290.326 37.496V37.568C290.326 43.436 294.574 47.432 300.082 47.432C303.034 47.432 305.194 46.46 306.922 44.912ZM329.981 22.7C329.981 21.476 329.009 20.54 327.785 20.54C326.597 20.54 325.625 21.476 325.625 22.7V30.944C324.257 29.144 322.277 27.596 319.145 27.596C314.609 27.596 310.325 31.16 310.325 37.46V37.532C310.325 43.832 314.681 47.396 319.145 47.396C322.241 47.396 324.221 45.812 325.625 43.832V45.02C325.625 46.244 326.597 47.18 327.821 47.18C329.009 47.18 329.981 46.244 329.981 45.02V22.7ZM320.189 31.376C323.105 31.376 325.697 33.788 325.697 37.46V37.532C325.697 41.168 323.105 43.616 320.189 43.616C317.237 43.616 314.717 41.204 314.717 37.532V37.46C314.717 33.68 317.201 31.376 320.189 31.376Z" fill="#00E59D"/>
<g filter="url(#filter0_f)">
<path d="M28.432 44.984C28.432 46.208 29.44 47.18 30.664 47.18C31.888 47.18 32.896 46.208 32.896 44.984V25.904H39.052C40.168 25.904 41.068 24.968 41.068 23.852C41.068 22.736 40.168 21.8 39.052 21.8H22.312C21.16 21.8 20.26 22.736 20.26 23.852C20.26 24.968 21.16 25.904 22.312 25.904H28.432V44.984ZM40.6782 45.02C40.6782 46.244 41.6502 47.18 42.8382 47.18C44.0622 47.18 45.0342 46.208 45.0342 45.02V39.404C45.0342 34.904 47.1582 32.528 50.2542 31.988C51.2262 31.808 51.9822 31.052 51.9822 29.9C51.9822 28.64 51.1902 27.74 49.8222 27.74C47.9142 27.74 46.0422 29.54 45.0342 31.916V29.972C45.0342 28.748 44.0622 27.776 42.8382 27.776C41.6142 27.776 40.6782 28.748 40.6782 29.972V45.02ZM70.6333 29.972C70.6333 28.748 69.6253 27.776 68.4373 27.776C67.2133 27.776 66.2413 28.748 66.2413 29.972V38.72C66.2413 41.672 64.4773 43.4 61.9573 43.4C59.3653 43.4 57.8893 41.744 57.8893 38.792V29.972C57.8893 28.748 56.9173 27.776 55.6933 27.776C54.5053 27.776 53.5333 28.748 53.5333 29.972V40.088C53.5333 44.516 56.0173 47.396 60.3013 47.396C63.2533 47.396 65.0173 45.848 66.2413 44.048V45.02C66.2413 46.244 67.2493 47.18 68.4373 47.18C69.6613 47.18 70.6333 46.208 70.6333 45.02V29.972ZM74.5255 45.02C74.5255 46.244 75.4975 47.18 76.6855 47.18C77.9095 47.18 78.8815 46.244 78.8815 45.02V22.7C78.8815 21.512 77.9095 20.54 76.6855 20.54C75.4615 20.54 74.5255 21.512 74.5255 22.7V45.02ZM86.2303 52.868C89.2903 52.868 91.0183 51.428 92.6383 47.54L99.5863 30.872C99.6583 30.656 99.7663 30.188 99.7663 29.828C99.7663 28.676 98.8303 27.776 97.6783 27.776C96.5623 27.776 95.9503 28.532 95.5903 29.432L90.8383 42.068L85.7263 29.432C85.3303 28.424 84.7183 27.776 83.6023 27.776C82.3783 27.776 81.4423 28.676 81.4423 29.9C81.4423 30.188 81.5503 30.62 81.6943 30.944L88.7503 46.712L88.6063 47.108C87.8863 48.584 87.2023 49.124 85.9063 49.124C85.2943 49.124 84.8983 49.016 84.3943 48.872C84.1783 48.8 83.9623 48.728 83.6023 48.728C82.6663 48.728 81.8383 49.448 81.8383 50.528C81.8383 51.572 82.5583 52.112 83.2063 52.328C84.1063 52.688 85.0063 52.868 86.2303 52.868ZM129.78 22.7C129.78 21.476 128.808 20.54 127.584 20.54C126.396 20.54 125.424 21.476 125.424 22.7V30.944C124.056 29.144 122.076 27.596 118.944 27.596C114.408 27.596 110.124 31.16 110.124 37.46V37.532C110.124 43.832 114.48 47.396 118.944 47.396C122.04 47.396 124.02 45.812 125.424 43.832V45.02C125.424 46.244 126.396 47.18 127.62 47.18C128.808 47.18 129.78 46.244 129.78 45.02V22.7ZM119.988 31.376C122.904 31.376 125.496 33.788 125.496 37.46V37.532C125.496 41.168 122.904 43.616 119.988 43.616C117.036 43.616 114.516 41.204 114.516 37.532V37.46C114.516 33.68 117 31.376 119.988 31.376ZM136.725 36.164C137.121 33.212 138.993 31.16 141.657 31.16C144.537 31.16 146.193 33.356 146.481 36.164H136.725ZM149.001 44.912C149.325 44.588 149.577 44.12 149.577 43.58C149.577 42.572 148.821 41.816 147.849 41.816C147.345 41.816 147.057 41.96 146.733 42.212C145.509 43.22 144.069 43.868 142.233 43.868C139.425 43.868 137.229 42.14 136.761 39.044H148.677C149.793 39.044 150.729 38.18 150.729 36.956C150.729 32.564 147.741 27.596 141.693 27.596C136.257 27.596 132.405 32.06 132.405 37.496V37.568C132.405 43.436 136.653 47.432 142.161 47.432C145.113 47.432 147.273 46.46 149.001 44.912ZM162.159 47.432C165.327 47.432 167.379 46.352 169.071 44.732C169.467 44.408 169.683 43.94 169.683 43.364C169.683 42.32 168.855 41.456 167.811 41.456C167.307 41.456 166.875 41.708 166.623 41.924C165.435 42.932 164.103 43.616 162.375 43.616C159.027 43.616 156.687 40.916 156.687 37.532V37.46C156.687 34.148 159.027 31.412 162.195 31.412C163.923 31.412 165.147 32.096 166.263 33.032C166.551 33.248 167.019 33.464 167.559 33.464C168.675 33.464 169.575 32.6 169.575 31.484C169.575 30.764 169.179 30.224 168.891 29.972C167.271 28.568 165.219 27.596 162.231 27.596C156.507 27.596 152.331 32.132 152.331 37.532V37.604C152.331 43.004 156.507 47.432 162.159 47.432ZM174.89 36.164C175.286 33.212 177.158 31.16 179.822 31.16C182.702 31.16 184.358 33.356 184.646 36.164H174.89ZM187.166 44.912C187.49 44.588 187.742 44.12 187.742 43.58C187.742 42.572 186.986 41.816 186.014 41.816C185.51 41.816 185.222 41.96 184.898 42.212C183.674 43.22 182.234 43.868 180.398 43.868C177.59 43.868 175.394 42.14 174.926 39.044H186.842C187.958 39.044 188.894 38.18 188.894 36.956C188.894 32.564 185.906 27.596 179.858 27.596C174.422 27.596 170.57 32.06 170.57 37.496V37.568C170.57 43.436 174.818 47.432 180.326 47.432C183.278 47.432 185.438 46.46 187.166 44.912ZM191.541 45.02C191.541 46.244 192.513 47.18 193.701 47.18C194.925 47.18 195.897 46.244 195.897 45.02V36.272C195.897 33.32 197.661 31.556 200.181 31.556C202.773 31.556 204.249 33.248 204.249 36.2V45.02C204.249 46.244 205.221 47.18 206.445 47.18C207.669 47.18 208.605 46.244 208.605 45.02V34.868C208.605 30.476 206.121 27.596 201.837 27.596C198.885 27.596 197.121 29.144 195.897 30.908V29.972C195.897 28.748 194.925 27.776 193.701 27.776C192.477 27.776 191.541 28.748 191.541 29.972V45.02ZM218.437 47.324C219.589 47.324 220.489 47.144 221.425 46.82C222.037 46.568 222.577 45.92 222.577 45.128C222.577 44.12 221.713 43.328 220.741 43.328C220.597 43.328 220.165 43.436 219.661 43.436C218.185 43.436 217.321 42.752 217.321 41.06V31.736H220.741C221.785 31.736 222.649 30.908 222.649 29.864C222.649 28.82 221.785 27.992 220.741 27.992H217.321V24.752C217.321 23.564 216.349 22.592 215.161 22.592C213.937 22.592 212.965 23.564 212.965 24.752V27.992H212.245C211.201 27.992 210.373 28.82 210.373 29.864C210.373 30.908 211.201 31.736 212.245 31.736H212.965V41.744C212.965 45.92 215.233 47.324 218.437 47.324ZM225.066 45.02C225.066 46.244 226.038 47.18 227.226 47.18C228.45 47.18 229.422 46.208 229.422 45.02V39.404C229.422 34.904 231.546 32.528 234.642 31.988C235.614 31.808 236.37 31.052 236.37 29.9C236.37 28.64 235.578 27.74 234.21 27.74C232.302 27.74 230.43 29.54 229.422 31.916V29.972C229.422 28.748 228.45 27.776 227.226 27.776C226.002 27.776 225.066 28.748 225.066 29.972V45.02ZM242.695 47.396C245.611 47.396 247.591 46.172 248.887 44.624V45.344C248.887 46.316 249.751 47.18 251.011 47.18C252.199 47.18 253.135 46.28 253.135 45.092V35.732C253.135 33.248 252.487 31.232 251.083 29.864C249.751 28.496 247.627 27.74 244.783 27.74C242.299 27.74 240.463 28.172 238.663 28.856C238.015 29.108 237.475 29.792 237.475 30.584C237.475 31.592 238.303 32.384 239.311 32.384C239.527 32.384 239.743 32.348 239.995 32.276C241.183 31.808 242.551 31.52 244.207 31.52C247.267 31.52 248.923 32.96 248.923 35.66V36.128C247.447 35.66 245.935 35.336 243.811 35.336C239.167 35.336 235.963 37.352 235.963 41.456V41.528C235.963 45.344 239.131 47.396 242.695 47.396ZM243.919 44.228C241.831 44.228 240.211 43.184 240.211 41.348V41.276C240.211 39.296 241.867 38.108 244.675 38.108C246.403 38.108 247.879 38.432 248.995 38.864V40.16C248.995 42.572 246.799 44.228 243.919 44.228ZM256.804 45.02C256.804 46.244 257.776 47.18 258.964 47.18C260.188 47.18 261.16 46.244 261.16 45.02V22.7C261.16 21.512 260.188 20.54 258.964 20.54C257.74 20.54 256.804 21.512 256.804 22.7V45.02ZM264.98 23.096C264.98 24.392 266.06 25.256 267.464 25.256C268.868 25.256 269.948 24.392 269.948 23.096V22.88C269.948 21.584 268.868 20.756 267.464 20.756C266.06 20.756 264.98 21.584 264.98 22.88V23.096ZM265.304 45.02C265.304 46.244 266.276 47.18 267.464 47.18C268.688 47.18 269.66 46.244 269.66 45.02V29.972C269.66 28.748 268.688 27.776 267.464 27.776C266.24 27.776 265.304 28.748 265.304 29.972V45.02ZM274.705 47H287.593C288.601 47 289.393 46.208 289.393 45.236C289.393 44.228 288.601 43.436 287.593 43.436H278.233L288.385 31.916C289.033 31.196 289.321 30.656 289.321 29.828V29.72C289.321 28.712 288.421 27.992 287.233 27.992H274.705C273.697 27.992 272.905 28.784 272.905 29.792C272.905 30.764 273.697 31.556 274.705 31.556H283.669L273.553 43.076C272.869 43.796 272.581 44.336 272.581 45.164V45.236C272.581 46.244 273.481 47 274.705 47ZM294.646 36.164C295.042 33.212 296.914 31.16 299.578 31.16C302.458 31.16 304.114 33.356 304.402 36.164H294.646ZM306.922 44.912C307.246 44.588 307.498 44.12 307.498 43.58C307.498 42.572 306.742 41.816 305.77 41.816C305.266 41.816 304.978 41.96 304.654 42.212C303.43 43.22 301.99 43.868 300.154 43.868C297.346 43.868 295.15 42.14 294.682 39.044H306.598C307.714 39.044 308.65 38.18 308.65 36.956C308.65 32.564 305.662 27.596 299.614 27.596C294.178 27.596 290.326 32.06 290.326 37.496V37.568C290.326 43.436 294.574 47.432 300.082 47.432C303.034 47.432 305.194 46.46 306.922 44.912ZM329.981 22.7C329.981 21.476 329.009 20.54 327.785 20.54C326.597 20.54 325.625 21.476 325.625 22.7V30.944C324.257 29.144 322.277 27.596 319.145 27.596C314.609 27.596 310.325 31.16 310.325 37.46V37.532C310.325 43.832 314.681 47.396 319.145 47.396C322.241 47.396 324.221 45.812 325.625 43.832V45.02C325.625 46.244 326.597 47.18 327.821 47.18C329.009 47.18 329.981 46.244 329.981 45.02V22.7ZM320.189 31.376C323.105 31.376 325.697 33.788 325.697 37.46V37.532C325.697 41.168 323.105 43.616 320.189 43.616C317.237 43.616 314.717 41.204 314.717 37.532V37.46C314.717 33.68 317.201 31.376 320.189 31.376Z" fill="#00E59D"/>
</g>
<path d="M21.736 98.02C21.736 99.244 22.708 100.18 23.896 100.18C25.12 100.18 26.092 99.244 26.092 98.02V89.272C26.092 86.32 27.856 84.556 30.376 84.556C32.968 84.556 34.444 86.248 34.444 89.2V98.02C34.444 99.244 35.416 100.18 36.64 100.18C37.864 100.18 38.8 99.244 38.8 98.02V87.868C38.8 83.476 36.316 80.596 32.032 80.596C29.08 80.596 27.316 82.144 26.092 83.908V75.7C26.092 74.512 25.12 73.54 23.896 73.54C22.672 73.54 21.736 74.512 21.736 75.7V98.02ZM42.1882 76.096C42.1882 77.392 43.2682 78.256 44.6722 78.256C46.0762 78.256 47.1562 77.392 47.1562 76.096V75.88C47.1562 74.584 46.0762 73.756 44.6722 73.756C43.2682 73.756 42.1882 74.584 42.1882 75.88V76.096ZM42.5122 98.02C42.5122 99.244 43.4842 100.18 44.6722 100.18C45.8962 100.18 46.8682 99.244 46.8682 98.02V82.972C46.8682 81.748 45.8962 80.776 44.6722 80.776C43.4482 80.776 42.5122 81.748 42.5122 82.972V98.02ZM59.221 105.832C62.641 105.832 65.305 105.004 67.033 103.276C68.617 101.692 69.445 99.316 69.445 96.112V82.972C69.445 81.748 68.473 80.776 67.249 80.776C66.061 80.776 65.089 81.748 65.089 82.936V83.836C63.613 82.072 61.633 80.596 58.429 80.596C54.001 80.596 49.789 83.908 49.789 89.524V89.596C49.789 95.176 53.965 98.488 58.429 98.488C61.561 98.488 63.541 97.048 65.125 94.996V96.472C65.125 100.288 63.001 102.304 59.113 102.304C56.917 102.304 55.009 101.764 53.281 100.792C53.065 100.684 52.813 100.612 52.489 100.612C51.481 100.612 50.653 101.44 50.653 102.412C50.653 103.24 51.121 103.852 51.877 104.14C54.181 105.256 56.557 105.832 59.221 105.832ZM59.581 94.78C56.593 94.78 54.181 92.656 54.181 89.56V89.488C54.181 86.356 56.557 84.268 59.581 84.268C62.605 84.268 65.161 86.392 65.161 89.488V89.56C65.161 92.656 62.605 94.78 59.581 94.78ZM73.1133 98.02C73.1133 99.244 74.0853 100.18 75.2733 100.18C76.4973 100.18 77.4693 99.244 77.4693 98.02V89.272C77.4693 86.32 79.2333 84.556 81.7533 84.556C84.3453 84.556 85.8213 86.248 85.8213 89.2V98.02C85.8213 99.244 86.7933 100.18 88.0173 100.18C89.2413 100.18 90.1773 99.244 90.1773 98.02V87.868C90.1773 83.476 87.6933 80.596 83.4093 80.596C80.4573 80.596 78.6933 82.144 77.4693 83.908V75.7C77.4693 74.512 76.4973 73.54 75.2733 73.54C74.0493 73.54 73.1133 74.512 73.1133 75.7V98.02ZM94.8616 91.108H101.63C102.782 91.108 103.754 90.136 103.754 88.984C103.754 87.796 102.782 86.824 101.63 86.824H94.8616C93.7096 86.824 92.7376 87.796 92.7376 88.984C92.7376 90.136 93.7096 91.108 94.8616 91.108ZM113.049 100.36C117.009 100.36 120.105 98.38 120.105 94.384V94.312C120.105 90.892 116.973 89.632 114.201 88.768C111.969 88.048 109.917 87.472 109.917 86.068V85.996C109.917 84.916 110.889 84.124 112.581 84.124C113.913 84.124 115.497 84.628 117.045 85.42C117.333 85.564 117.549 85.636 117.909 85.636C118.917 85.636 119.709 84.88 119.709 83.872C119.709 83.116 119.277 82.54 118.665 82.216C116.829 81.244 114.705 80.668 112.689 80.668C108.909 80.668 105.921 82.864 105.921 86.464V86.536C105.921 90.172 109.053 91.324 111.861 92.116C114.093 92.8 116.109 93.304 116.109 94.78V94.852C116.109 96.112 115.029 96.904 113.157 96.904C111.429 96.904 109.521 96.292 107.685 95.068C107.433 94.924 107.109 94.816 106.749 94.816C105.741 94.816 104.985 95.608 104.985 96.58C104.985 97.3 105.345 97.84 105.813 98.092C108.009 99.604 110.637 100.36 113.049 100.36ZM122.768 103.78C122.768 105.004 123.74 105.94 124.928 105.94C126.152 105.94 127.124 105.004 127.124 103.78V97.048C128.456 98.812 130.436 100.396 133.604 100.396C138.104 100.396 142.424 96.832 142.424 90.532V90.46C142.424 84.124 138.068 80.596 133.604 80.596C130.508 80.596 128.528 82.18 127.124 84.16V82.972C127.124 81.748 126.152 80.776 124.928 80.776C123.704 80.776 122.768 81.748 122.768 82.972V103.78ZM132.56 96.616C129.608 96.616 127.016 94.168 127.016 90.532V90.46C127.016 86.824 129.608 84.376 132.56 84.376C135.512 84.376 137.996 86.788 137.996 90.46V90.532C137.996 94.276 135.548 96.616 132.56 96.616ZM148.396 89.164C148.792 86.212 150.664 84.16 153.328 84.16C156.208 84.16 157.864 86.356 158.152 89.164H148.396ZM160.672 97.912C160.996 97.588 161.248 97.12 161.248 96.58C161.248 95.572 160.492 94.816 159.52 94.816C159.016 94.816 158.728 94.96 158.404 95.212C157.18 96.22 155.74 96.868 153.904 96.868C151.096 96.868 148.9 95.14 148.432 92.044H160.348C161.464 92.044 162.4 91.18 162.4 89.956C162.4 85.564 159.412 80.596 153.364 80.596C147.928 80.596 144.076 85.06 144.076 90.496V90.568C144.076 96.436 148.324 100.432 153.832 100.432C156.784 100.432 158.944 99.46 160.672 97.912ZM168.323 89.164C168.719 86.212 170.591 84.16 173.255 84.16C176.135 84.16 177.791 86.356 178.079 89.164H168.323ZM180.599 97.912C180.923 97.588 181.175 97.12 181.175 96.58C181.175 95.572 180.419 94.816 179.447 94.816C178.943 94.816 178.655 94.96 178.331 95.212C177.107 96.22 175.667 96.868 173.831 96.868C171.023 96.868 168.827 95.14 168.359 92.044H180.275C181.391 92.044 182.327 91.18 182.327 89.956C182.327 85.564 179.339 80.596 173.291 80.596C167.855 80.596 164.003 85.06 164.003 90.496V90.568C164.003 96.436 168.251 100.432 173.759 100.432C176.711 100.432 178.871 99.46 180.599 97.912ZM203.658 75.7C203.658 74.476 202.686 73.54 201.462 73.54C200.274 73.54 199.302 74.476 199.302 75.7V83.944C197.934 82.144 195.954 80.596 192.822 80.596C188.286 80.596 184.002 84.16 184.002 90.46V90.532C184.002 96.832 188.358 100.396 192.822 100.396C195.918 100.396 197.898 98.812 199.302 96.832V98.02C199.302 99.244 200.274 100.18 201.498 100.18C202.686 100.18 203.658 99.244 203.658 98.02V75.7ZM193.866 84.376C196.782 84.376 199.374 86.788 199.374 90.46V90.532C199.374 94.168 196.782 96.616 193.866 96.616C190.914 96.616 188.394 94.204 188.394 90.532V90.46C188.394 86.68 190.878 84.376 193.866 84.376ZM222.691 100.324C223.843 100.324 224.743 100.144 225.679 99.82C226.291 99.568 226.831 98.92 226.831 98.128C226.831 97.12 225.967 96.328 224.995 96.328C224.851 96.328 224.419 96.436 223.915 96.436C222.439 96.436 221.575 95.752 221.575 94.06V84.736H224.995C226.039 84.736 226.903 83.908 226.903 82.864C226.903 81.82 226.039 80.992 224.995 80.992H221.575V77.752C221.575 76.564 220.603 75.592 219.415 75.592C218.191 75.592 217.219 76.564 217.219 77.752V80.992H216.499C215.455 80.992 214.627 81.82 214.627 82.864C214.627 83.908 215.455 84.736 216.499 84.736H217.219V94.744C217.219 98.92 219.487 100.324 222.691 100.324ZM229.32 98.02C229.32 99.244 230.292 100.18 231.48 100.18C232.704 100.18 233.676 99.208 233.676 98.02V92.404C233.676 87.904 235.8 85.528 238.896 84.988C239.868 84.808 240.624 84.052 240.624 82.9C240.624 81.64 239.832 80.74 238.464 80.74C236.556 80.74 234.684 82.54 233.676 84.916V82.972C233.676 81.748 232.704 80.776 231.48 80.776C230.256 80.776 229.32 81.748 229.32 82.972V98.02ZM246.949 100.396C249.865 100.396 251.845 99.172 253.141 97.624V98.344C253.141 99.316 254.005 100.18 255.265 100.18C256.453 100.18 257.389 99.28 257.389 98.092V88.732C257.389 86.248 256.741 84.232 255.337 82.864C254.005 81.496 251.881 80.74 249.037 80.74C246.553 80.74 244.717 81.172 242.917 81.856C242.269 82.108 241.729 82.792 241.729 83.584C241.729 84.592 242.557 85.384 243.565 85.384C243.781 85.384 243.997 85.348 244.249 85.276C245.437 84.808 246.805 84.52 248.461 84.52C251.521 84.52 253.177 85.96 253.177 88.66V89.128C251.701 88.66 250.189 88.336 248.065 88.336C243.421 88.336 240.217 90.352 240.217 94.456V94.528C240.217 98.344 243.385 100.396 246.949 100.396ZM248.173 97.228C246.085 97.228 244.465 96.184 244.465 94.348V94.276C244.465 92.296 246.121 91.108 248.929 91.108C250.657 91.108 252.133 91.432 253.249 91.864V93.16C253.249 95.572 251.053 97.228 248.173 97.228ZM279.49 75.7C279.49 74.476 278.518 73.54 277.294 73.54C276.106 73.54 275.134 74.476 275.134 75.7V83.944C273.766 82.144 271.786 80.596 268.654 80.596C264.118 80.596 259.834 84.16 259.834 90.46V90.532C259.834 96.832 264.19 100.396 268.654 100.396C271.75 100.396 273.73 98.812 275.134 96.832V98.02C275.134 99.244 276.106 100.18 277.33 100.18C278.518 100.18 279.49 99.244 279.49 98.02V75.7ZM269.698 84.376C272.614 84.376 275.206 86.788 275.206 90.46V90.532C275.206 94.168 272.614 96.616 269.698 96.616C266.746 96.616 264.226 94.204 264.226 90.532V90.46C264.226 86.68 266.71 84.376 269.698 84.376ZM283.086 76.096C283.086 77.392 284.166 78.256 285.57 78.256C286.974 78.256 288.054 77.392 288.054 76.096V75.88C288.054 74.584 286.974 73.756 285.57 73.756C284.166 73.756 283.086 74.584 283.086 75.88V76.096ZM283.41 98.02C283.41 99.244 284.382 100.18 285.57 100.18C286.794 100.18 287.766 99.244 287.766 98.02V82.972C287.766 81.748 286.794 80.776 285.57 80.776C284.346 80.776 283.41 81.748 283.41 82.972V98.02ZM291.659 98.02C291.659 99.244 292.631 100.18 293.819 100.18C295.043 100.18 296.015 99.244 296.015 98.02V89.272C296.015 86.32 297.779 84.556 300.299 84.556C302.891 84.556 304.367 86.248 304.367 89.2V98.02C304.367 99.244 305.339 100.18 306.563 100.18C307.787 100.18 308.723 99.244 308.723 98.02V87.868C308.723 83.476 306.239 80.596 301.955 80.596C299.003 80.596 297.239 82.144 296.015 83.908V82.972C296.015 81.748 295.043 80.776 293.819 80.776C292.595 80.776 291.659 81.748 291.659 82.972V98.02ZM320.643 105.832C324.063 105.832 326.727 105.004 328.455 103.276C330.039 101.692 330.867 99.316 330.867 96.112V82.972C330.867 81.748 329.895 80.776 328.671 80.776C327.483 80.776 326.511 81.748 326.511 82.936V83.836C325.035 82.072 323.055 80.596 319.851 80.596C315.423 80.596 311.211 83.908 311.211 89.524V89.596C311.211 95.176 315.387 98.488 319.851 98.488C322.983 98.488 324.963 97.048 326.547 94.996V96.472C326.547 100.288 324.423 102.304 320.535 102.304C318.339 102.304 316.431 101.764 314.703 100.792C314.487 100.684 314.235 100.612 313.911 100.612C312.903 100.612 312.075 101.44 312.075 102.412C312.075 103.24 312.543 103.852 313.299 104.14C315.603 105.256 317.979 105.832 320.643 105.832ZM321.003 94.78C318.015 94.78 315.603 92.656 315.603 89.56V89.488C315.603 86.356 317.979 84.268 321.003 84.268C324.027 84.268 326.583 86.392 326.583 89.488V89.56C326.583 92.656 324.027 94.78 321.003 94.78Z" fill="black"/>
<path d="M21.736 93.02C21.736 94.244 22.708 95.18 23.896 95.18C25.12 95.18 26.092 94.244 26.092 93.02V84.272C26.092 81.32 27.856 79.556 30.376 79.556C32.968 79.556 34.444 81.248 34.444 84.2V93.02C34.444 94.244 35.416 95.18 36.64 95.18C37.864 95.18 38.8 94.244 38.8 93.02V82.868C38.8 78.476 36.316 75.596 32.032 75.596C29.08 75.596 27.316 77.144 26.092 78.908V70.7C26.092 69.512 25.12 68.54 23.896 68.54C22.672 68.54 21.736 69.512 21.736 70.7V93.02ZM42.1882 71.096C42.1882 72.392 43.2682 73.256 44.6722 73.256C46.0762 73.256 47.1562 72.392 47.1562 71.096V70.88C47.1562 69.584 46.0762 68.756 44.6722 68.756C43.2682 68.756 42.1882 69.584 42.1882 70.88V71.096ZM42.5122 93.02C42.5122 94.244 43.4842 95.18 44.6722 95.18C45.8962 95.18 46.8682 94.244 46.8682 93.02V77.972C46.8682 76.748 45.8962 75.776 44.6722 75.776C43.4482 75.776 42.5122 76.748 42.5122 77.972V93.02ZM59.221 100.832C62.641 100.832 65.305 100.004 67.033 98.276C68.617 96.692 69.445 94.316 69.445 91.112V77.972C69.445 76.748 68.473 75.776 67.249 75.776C66.061 75.776 65.089 76.748 65.089 77.936V78.836C63.613 77.072 61.633 75.596 58.429 75.596C54.001 75.596 49.789 78.908 49.789 84.524V84.596C49.789 90.176 53.965 93.488 58.429 93.488C61.561 93.488 63.541 92.048 65.125 89.996V91.472C65.125 95.288 63.001 97.304 59.113 97.304C56.917 97.304 55.009 96.764 53.281 95.792C53.065 95.684 52.813 95.612 52.489 95.612C51.481 95.612 50.653 96.44 50.653 97.412C50.653 98.24 51.121 98.852 51.877 99.14C54.181 100.256 56.557 100.832 59.221 100.832ZM59.581 89.78C56.593 89.78 54.181 87.656 54.181 84.56V84.488C54.181 81.356 56.557 79.268 59.581 79.268C62.605 79.268 65.161 81.392 65.161 84.488V84.56C65.161 87.656 62.605 89.78 59.581 89.78ZM73.1133 93.02C73.1133 94.244 74.0853 95.18 75.2733 95.18C76.4973 95.18 77.4693 94.244 77.4693 93.02V84.272C77.4693 81.32 79.2333 79.556 81.7533 79.556C84.3453 79.556 85.8213 81.248 85.8213 84.2V93.02C85.8213 94.244 86.7933 95.18 88.0173 95.18C89.2413 95.18 90.1773 94.244 90.1773 93.02V82.868C90.1773 78.476 87.6933 75.596 83.4093 75.596C80.4573 75.596 78.6933 77.144 77.4693 78.908V70.7C77.4693 69.512 76.4973 68.54 75.2733 68.54C74.0493 68.54 73.1133 69.512 73.1133 70.7V93.02ZM94.8616 86.108H101.63C102.782 86.108 103.754 85.136 103.754 83.984C103.754 82.796 102.782 81.824 101.63 81.824H94.8616C93.7096 81.824 92.7376 82.796 92.7376 83.984C92.7376 85.136 93.7096 86.108 94.8616 86.108ZM113.049 95.36C117.009 95.36 120.105 93.38 120.105 89.384V89.312C120.105 85.892 116.973 84.632 114.201 83.768C111.969 83.048 109.917 82.472 109.917 81.068V80.996C109.917 79.916 110.889 79.124 112.581 79.124C113.913 79.124 115.497 79.628 117.045 80.42C117.333 80.564 117.549 80.636 117.909 80.636C118.917 80.636 119.709 79.88 119.709 78.872C119.709 78.116 119.277 77.54 118.665 77.216C116.829 76.244 114.705 75.668 112.689 75.668C108.909 75.668 105.921 77.864 105.921 81.464V81.536C105.921 85.172 109.053 86.324 111.861 87.116C114.093 87.8 116.109 88.304 116.109 89.78V89.852C116.109 91.112 115.029 91.904 113.157 91.904C111.429 91.904 109.521 91.292 107.685 90.068C107.433 89.924 107.109 89.816 106.749 89.816C105.741 89.816 104.985 90.608 104.985 91.58C104.985 92.3 105.345 92.84 105.813 93.092C108.009 94.604 110.637 95.36 113.049 95.36ZM122.768 98.78C122.768 100.004 123.74 100.94 124.928 100.94C126.152 100.94 127.124 100.004 127.124 98.78V92.048C128.456 93.812 130.436 95.396 133.604 95.396C138.104 95.396 142.424 91.832 142.424 85.532V85.46C142.424 79.124 138.068 75.596 133.604 75.596C130.508 75.596 128.528 77.18 127.124 79.16V77.972C127.124 76.748 126.152 75.776 124.928 75.776C123.704 75.776 122.768 76.748 122.768 77.972V98.78ZM132.56 91.616C129.608 91.616 127.016 89.168 127.016 85.532V85.46C127.016 81.824 129.608 79.376 132.56 79.376C135.512 79.376 137.996 81.788 137.996 85.46V85.532C137.996 89.276 135.548 91.616 132.56 91.616ZM148.396 84.164C148.792 81.212 150.664 79.16 153.328 79.16C156.208 79.16 157.864 81.356 158.152 84.164H148.396ZM160.672 92.912C160.996 92.588 161.248 92.12 161.248 91.58C161.248 90.572 160.492 89.816 159.52 89.816C159.016 89.816 158.728 89.96 158.404 90.212C157.18 91.22 155.74 91.868 153.904 91.868C151.096 91.868 148.9 90.14 148.432 87.044H160.348C161.464 87.044 162.4 86.18 162.4 84.956C162.4 80.564 159.412 75.596 153.364 75.596C147.928 75.596 144.076 80.06 144.076 85.496V85.568C144.076 91.436 148.324 95.432 153.832 95.432C156.784 95.432 158.944 94.46 160.672 92.912ZM168.323 84.164C168.719 81.212 170.591 79.16 173.255 79.16C176.135 79.16 177.791 81.356 178.079 84.164H168.323ZM180.599 92.912C180.923 92.588 181.175 92.12 181.175 91.58C181.175 90.572 180.419 89.816 179.447 89.816C178.943 89.816 178.655 89.96 178.331 90.212C177.107 91.22 175.667 91.868 173.831 91.868C171.023 91.868 168.827 90.14 168.359 87.044H180.275C181.391 87.044 182.327 86.18 182.327 84.956C182.327 80.564 179.339 75.596 173.291 75.596C167.855 75.596 164.003 80.06 164.003 85.496V85.568C164.003 91.436 168.251 95.432 173.759 95.432C176.711 95.432 178.871 94.46 180.599 92.912ZM203.658 70.7C203.658 69.476 202.686 68.54 201.462 68.54C200.274 68.54 199.302 69.476 199.302 70.7V78.944C197.934 77.144 195.954 75.596 192.822 75.596C188.286 75.596 184.002 79.16 184.002 85.46V85.532C184.002 91.832 188.358 95.396 192.822 95.396C195.918 95.396 197.898 93.812 199.302 91.832V93.02C199.302 94.244 200.274 95.18 201.498 95.18C202.686 95.18 203.658 94.244 203.658 93.02V70.7ZM193.866 79.376C196.782 79.376 199.374 81.788 199.374 85.46V85.532C199.374 89.168 196.782 91.616 193.866 91.616C190.914 91.616 188.394 89.204 188.394 85.532V85.46C188.394 81.68 190.878 79.376 193.866 79.376Z" fill="#FF0000"/>
<path d="M222.691 95.324C223.843 95.324 224.743 95.144 225.679 94.82C226.291 94.568 226.831 93.92 226.831 93.128C226.831 92.12 225.967 91.328 224.995 91.328C224.851 91.328 224.419 91.436 223.915 91.436C222.439 91.436 221.575 90.752 221.575 89.06V79.736H224.995C226.039 79.736 226.903 78.908 226.903 77.864C226.903 76.82 226.039 75.992 224.995 75.992H221.575V72.752C221.575 71.564 220.603 70.592 219.415 70.592C218.191 70.592 217.219 71.564 217.219 72.752V75.992H216.499C215.455 75.992 214.627 76.82 214.627 77.864C214.627 78.908 215.455 79.736 216.499 79.736H217.219V89.744C217.219 93.92 219.487 95.324 222.691 95.324ZM229.32 93.02C229.32 94.244 230.292 95.18 231.48 95.18C232.704 95.18 233.676 94.208 233.676 93.02V87.404C233.676 82.904 235.8 80.528 238.896 79.988C239.868 79.808 240.624 79.052 240.624 77.9C240.624 76.64 239.832 75.74 238.464 75.74C236.556 75.74 234.684 77.54 233.676 79.916V77.972C233.676 76.748 232.704 75.776 231.48 75.776C230.256 75.776 229.32 76.748 229.32 77.972V93.02ZM246.949 95.396C249.865 95.396 251.845 94.172 253.141 92.624V93.344C253.141 94.316 254.005 95.18 255.265 95.18C256.453 95.18 257.389 94.28 257.389 93.092V83.732C257.389 81.248 256.741 79.232 255.337 77.864C254.005 76.496 251.881 75.74 249.037 75.74C246.553 75.74 244.717 76.172 242.917 76.856C242.269 77.108 241.729 77.792 241.729 78.584C241.729 79.592 242.557 80.384 243.565 80.384C243.781 80.384 243.997 80.348 244.249 80.276C245.437 79.808 246.805 79.52 248.461 79.52C251.521 79.52 253.177 80.96 253.177 83.66V84.128C251.701 83.66 250.189 83.336 248.065 83.336C243.421 83.336 240.217 85.352 240.217 89.456V89.528C240.217 93.344 243.385 95.396 246.949 95.396ZM248.173 92.228C246.085 92.228 244.465 91.184 244.465 89.348V89.276C244.465 87.296 246.121 86.108 248.929 86.108C250.657 86.108 252.133 86.432 253.249 86.864V88.16C253.249 90.572 251.053 92.228 248.173 92.228ZM279.49 70.7C279.49 69.476 278.518 68.54 277.294 68.54C276.106 68.54 275.134 69.476 275.134 70.7V78.944C273.766 77.144 271.786 75.596 268.654 75.596C264.118 75.596 259.834 79.16 259.834 85.46V85.532C259.834 91.832 264.19 95.396 268.654 95.396C271.75 95.396 273.73 93.812 275.134 91.832V93.02C275.134 94.244 276.106 95.18 277.33 95.18C278.518 95.18 279.49 94.244 279.49 93.02V70.7ZM269.698 79.376C272.614 79.376 275.206 81.788 275.206 85.46V85.532C275.206 89.168 272.614 91.616 269.698 91.616C266.746 91.616 264.226 89.204 264.226 85.532V85.46C264.226 81.68 266.71 79.376 269.698 79.376ZM283.086 71.096C283.086 72.392 284.166 73.256 285.57 73.256C286.974 73.256 288.054 72.392 288.054 71.096V70.88C288.054 69.584 286.974 68.756 285.57 68.756C284.166 68.756 283.086 69.584 283.086 70.88V71.096ZM283.41 93.02C283.41 94.244 284.382 95.18 285.57 95.18C286.794 95.18 287.766 94.244 287.766 93.02V77.972C287.766 76.748 286.794 75.776 285.57 75.776C284.346 75.776 283.41 76.748 283.41 77.972V93.02ZM291.659 93.02C291.659 94.244 292.631 95.18 293.819 95.18C295.043 95.18 296.015 94.244 296.015 93.02V84.272C296.015 81.32 297.779 79.556 300.299 79.556C302.891 79.556 304.367 81.248 304.367 84.2V93.02C304.367 94.244 305.339 95.18 306.563 95.18C307.787 95.18 308.723 94.244 308.723 93.02V82.868C308.723 78.476 306.239 75.596 301.955 75.596C299.003 75.596 297.239 77.144 296.015 78.908V77.972C296.015 76.748 295.043 75.776 293.819 75.776C292.595 75.776 291.659 76.748 291.659 77.972V93.02ZM320.643 100.832C324.063 100.832 326.727 100.004 328.455 98.276C330.039 96.692 330.867 94.316 330.867 91.112V77.972C330.867 76.748 329.895 75.776 328.671 75.776C327.483 75.776 326.511 76.748 326.511 77.936V78.836C325.035 77.072 323.055 75.596 319.851 75.596C315.423 75.596 311.211 78.908 311.211 84.524V84.596C311.211 90.176 315.387 93.488 319.851 93.488C322.983 93.488 324.963 92.048 326.547 89.996V91.472C326.547 95.288 324.423 97.304 320.535 97.304C318.339 97.304 316.431 96.764 314.703 95.792C314.487 95.684 314.235 95.612 313.911 95.612C312.903 95.612 312.075 96.44 312.075 97.412C312.075 98.24 312.543 98.852 313.299 99.14C315.603 100.256 317.979 100.832 320.643 100.832ZM321.003 89.78C318.015 89.78 315.603 87.656 315.603 84.56V84.488C315.603 81.356 317.979 79.268 321.003 79.268C324.027 79.268 326.583 81.392 326.583 84.488V84.56C326.583 87.656 324.027 89.78 321.003 89.78Z" fill="#00E59D"/>
<g filter="url(#filter1_f)">
<path d="M21.736 93.02C21.736 94.244 22.708 95.18 23.896 95.18C25.12 95.18 26.092 94.244 26.092 93.02V84.272C26.092 81.32 27.856 79.556 30.376 79.556C32.968 79.556 34.444 81.248 34.444 84.2V93.02C34.444 94.244 35.416 95.18 36.64 95.18C37.864 95.18 38.8 94.244 38.8 93.02V82.868C38.8 78.476 36.316 75.596 32.032 75.596C29.08 75.596 27.316 77.144 26.092 78.908V70.7C26.092 69.512 25.12 68.54 23.896 68.54C22.672 68.54 21.736 69.512 21.736 70.7V93.02ZM42.1882 71.096C42.1882 72.392 43.2682 73.256 44.6722 73.256C46.0762 73.256 47.1562 72.392 47.1562 71.096V70.88C47.1562 69.584 46.0762 68.756 44.6722 68.756C43.2682 68.756 42.1882 69.584 42.1882 70.88V71.096ZM42.5122 93.02C42.5122 94.244 43.4842 95.18 44.6722 95.18C45.8962 95.18 46.8682 94.244 46.8682 93.02V77.972C46.8682 76.748 45.8962 75.776 44.6722 75.776C43.4482 75.776 42.5122 76.748 42.5122 77.972V93.02ZM59.221 100.832C62.641 100.832 65.305 100.004 67.033 98.276C68.617 96.692 69.445 94.316 69.445 91.112V77.972C69.445 76.748 68.473 75.776 67.249 75.776C66.061 75.776 65.089 76.748 65.089 77.936V78.836C63.613 77.072 61.633 75.596 58.429 75.596C54.001 75.596 49.789 78.908 49.789 84.524V84.596C49.789 90.176 53.965 93.488 58.429 93.488C61.561 93.488 63.541 92.048 65.125 89.996V91.472C65.125 95.288 63.001 97.304 59.113 97.304C56.917 97.304 55.009 96.764 53.281 95.792C53.065 95.684 52.813 95.612 52.489 95.612C51.481 95.612 50.653 96.44 50.653 97.412C50.653 98.24 51.121 98.852 51.877 99.14C54.181 100.256 56.557 100.832 59.221 100.832ZM59.581 89.78C56.593 89.78 54.181 87.656 54.181 84.56V84.488C54.181 81.356 56.557 79.268 59.581 79.268C62.605 79.268 65.161 81.392 65.161 84.488V84.56C65.161 87.656 62.605 89.78 59.581 89.78ZM73.1133 93.02C73.1133 94.244 74.0853 95.18 75.2733 95.18C76.4973 95.18 77.4693 94.244 77.4693 93.02V84.272C77.4693 81.32 79.2333 79.556 81.7533 79.556C84.3453 79.556 85.8213 81.248 85.8213 84.2V93.02C85.8213 94.244 86.7933 95.18 88.0173 95.18C89.2413 95.18 90.1773 94.244 90.1773 93.02V82.868C90.1773 78.476 87.6933 75.596 83.4093 75.596C80.4573 75.596 78.6933 77.144 77.4693 78.908V70.7C77.4693 69.512 76.4973 68.54 75.2733 68.54C74.0493 68.54 73.1133 69.512 73.1133 70.7V93.02ZM94.8616 86.108H101.63C102.782 86.108 103.754 85.136 103.754 83.984C103.754 82.796 102.782 81.824 101.63 81.824H94.8616C93.7096 81.824 92.7376 82.796 92.7376 83.984C92.7376 85.136 93.7096 86.108 94.8616 86.108ZM113.049 95.36C117.009 95.36 120.105 93.38 120.105 89.384V89.312C120.105 85.892 116.973 84.632 114.201 83.768C111.969 83.048 109.917 82.472 109.917 81.068V80.996C109.917 79.916 110.889 79.124 112.581 79.124C113.913 79.124 115.497 79.628 117.045 80.42C117.333 80.564 117.549 80.636 117.909 80.636C118.917 80.636 119.709 79.88 119.709 78.872C119.709 78.116 119.277 77.54 118.665 77.216C116.829 76.244 114.705 75.668 112.689 75.668C108.909 75.668 105.921 77.864 105.921 81.464V81.536C105.921 85.172 109.053 86.324 111.861 87.116C114.093 87.8 116.109 88.304 116.109 89.78V89.852C116.109 91.112 115.029 91.904 113.157 91.904C111.429 91.904 109.521 91.292 107.685 90.068C107.433 89.924 107.109 89.816 106.749 89.816C105.741 89.816 104.985 90.608 104.985 91.58C104.985 92.3 105.345 92.84 105.813 93.092C108.009 94.604 110.637 95.36 113.049 95.36ZM122.768 98.78C122.768 100.004 123.74 100.94 124.928 100.94C126.152 100.94 127.124 100.004 127.124 98.78V92.048C128.456 93.812 130.436 95.396 133.604 95.396C138.104 95.396 142.424 91.832 142.424 85.532V85.46C142.424 79.124 138.068 75.596 133.604 75.596C130.508 75.596 128.528 77.18 127.124 79.16V77.972C127.124 76.748 126.152 75.776 124.928 75.776C123.704 75.776 122.768 76.748 122.768 77.972V98.78ZM132.56 91.616C129.608 91.616 127.016 89.168 127.016 85.532V85.46C127.016 81.824 129.608 79.376 132.56 79.376C135.512 79.376 137.996 81.788 137.996 85.46V85.532C137.996 89.276 135.548 91.616 132.56 91.616ZM148.396 84.164C148.792 81.212 150.664 79.16 153.328 79.16C156.208 79.16 157.864 81.356 158.152 84.164H148.396ZM160.672 92.912C160.996 92.588 161.248 92.12 161.248 91.58C161.248 90.572 160.492 89.816 159.52 89.816C159.016 89.816 158.728 89.96 158.404 90.212C157.18 91.22 155.74 91.868 153.904 91.868C151.096 91.868 148.9 90.14 148.432 87.044H160.348C161.464 87.044 162.4 86.18 162.4 84.956C162.4 80.564 159.412 75.596 153.364 75.596C147.928 75.596 144.076 80.06 144.076 85.496V85.568C144.076 91.436 148.324 95.432 153.832 95.432C156.784 95.432 158.944 94.46 160.672 92.912ZM168.323 84.164C168.719 81.212 170.591 79.16 173.255 79.16C176.135 79.16 177.791 81.356 178.079 84.164H168.323ZM180.599 92.912C180.923 92.588 181.175 92.12 181.175 91.58C181.175 90.572 180.419 89.816 179.447 89.816C178.943 89.816 178.655 89.96 178.331 90.212C177.107 91.22 175.667 91.868 173.831 91.868C171.023 91.868 168.827 90.14 168.359 87.044H180.275C181.391 87.044 182.327 86.18 182.327 84.956C182.327 80.564 179.339 75.596 173.291 75.596C167.855 75.596 164.003 80.06 164.003 85.496V85.568C164.003 91.436 168.251 95.432 173.759 95.432C176.711 95.432 178.871 94.46 180.599 92.912ZM203.658 70.7C203.658 69.476 202.686 68.54 201.462 68.54C200.274 68.54 199.302 69.476 199.302 70.7V78.944C197.934 77.144 195.954 75.596 192.822 75.596C188.286 75.596 184.002 79.16 184.002 85.46V85.532C184.002 91.832 188.358 95.396 192.822 95.396C195.918 95.396 197.898 93.812 199.302 91.832V93.02C199.302 94.244 200.274 95.18 201.498 95.18C202.686 95.18 203.658 94.244 203.658 93.02V70.7ZM193.866 79.376C196.782 79.376 199.374 81.788 199.374 85.46V85.532C199.374 89.168 196.782 91.616 193.866 91.616C190.914 91.616 188.394 89.204 188.394 85.532V85.46C188.394 81.68 190.878 79.376 193.866 79.376Z" fill="#FF0000"/>
<path d="M222.691 95.324C223.843 95.324 224.743 95.144 225.679 94.82C226.291 94.568 226.831 93.92 226.831 93.128C226.831 92.12 225.967 91.328 224.995 91.328C224.851 91.328 224.419 91.436 223.915 91.436C222.439 91.436 221.575 90.752 221.575 89.06V79.736H224.995C226.039 79.736 226.903 78.908 226.903 77.864C226.903 76.82 226.039 75.992 224.995 75.992H221.575V72.752C221.575 71.564 220.603 70.592 219.415 70.592C218.191 70.592 217.219 71.564 217.219 72.752V75.992H216.499C215.455 75.992 214.627 76.82 214.627 77.864C214.627 78.908 215.455 79.736 216.499 79.736H217.219V89.744C217.219 93.92 219.487 95.324 222.691 95.324ZM229.32 93.02C229.32 94.244 230.292 95.18 231.48 95.18C232.704 95.18 233.676 94.208 233.676 93.02V87.404C233.676 82.904 235.8 80.528 238.896 79.988C239.868 79.808 240.624 79.052 240.624 77.9C240.624 76.64 239.832 75.74 238.464 75.74C236.556 75.74 234.684 77.54 233.676 79.916V77.972C233.676 76.748 232.704 75.776 231.48 75.776C230.256 75.776 229.32 76.748 229.32 77.972V93.02ZM246.949 95.396C249.865 95.396 251.845 94.172 253.141 92.624V93.344C253.141 94.316 254.005 95.18 255.265 95.18C256.453 95.18 257.389 94.28 257.389 93.092V83.732C257.389 81.248 256.741 79.232 255.337 77.864C254.005 76.496 251.881 75.74 249.037 75.74C246.553 75.74 244.717 76.172 242.917 76.856C242.269 77.108 241.729 77.792 241.729 78.584C241.729 79.592 242.557 80.384 243.565 80.384C243.781 80.384 243.997 80.348 244.249 80.276C245.437 79.808 246.805 79.52 248.461 79.52C251.521 79.52 253.177 80.96 253.177 83.66V84.128C251.701 83.66 250.189 83.336 248.065 83.336C243.421 83.336 240.217 85.352 240.217 89.456V89.528C240.217 93.344 243.385 95.396 246.949 95.396ZM248.173 92.228C246.085 92.228 244.465 91.184 244.465 89.348V89.276C244.465 87.296 246.121 86.108 248.929 86.108C250.657 86.108 252.133 86.432 253.249 86.864V88.16C253.249 90.572 251.053 92.228 248.173 92.228ZM279.49 70.7C279.49 69.476 278.518 68.54 277.294 68.54C276.106 68.54 275.134 69.476 275.134 70.7V78.944C273.766 77.144 271.786 75.596 268.654 75.596C264.118 75.596 259.834 79.16 259.834 85.46V85.532C259.834 91.832 264.19 95.396 268.654 95.396C271.75 95.396 273.73 93.812 275.134 91.832V93.02C275.134 94.244 276.106 95.18 277.33 95.18C278.518 95.18 279.49 94.244 279.49 93.02V70.7ZM269.698 79.376C272.614 79.376 275.206 81.788 275.206 85.46V85.532C275.206 89.168 272.614 91.616 269.698 91.616C266.746 91.616 264.226 89.204 264.226 85.532V85.46C264.226 81.68 266.71 79.376 269.698 79.376ZM283.086 71.096C283.086 72.392 284.166 73.256 285.57 73.256C286.974 73.256 288.054 72.392 288.054 71.096V70.88C288.054 69.584 286.974 68.756 285.57 68.756C284.166 68.756 283.086 69.584 283.086 70.88V71.096ZM283.41 93.02C283.41 94.244 284.382 95.18 285.57 95.18C286.794 95.18 287.766 94.244 287.766 93.02V77.972C287.766 76.748 286.794 75.776 285.57 75.776C284.346 75.776 283.41 76.748 283.41 77.972V93.02ZM291.659 93.02C291.659 94.244 292.631 95.18 293.819 95.18C295.043 95.18 296.015 94.244 296.015 93.02V84.272C296.015 81.32 297.779 79.556 300.299 79.556C302.891 79.556 304.367 81.248 304.367 84.2V93.02C304.367 94.244 305.339 95.18 306.563 95.18C307.787 95.18 308.723 94.244 308.723 93.02V82.868C308.723 78.476 306.239 75.596 301.955 75.596C299.003 75.596 297.239 77.144 296.015 78.908V77.972C296.015 76.748 295.043 75.776 293.819 75.776C292.595 75.776 291.659 76.748 291.659 77.972V93.02ZM320.643 100.832C324.063 100.832 326.727 100.004 328.455 98.276C330.039 96.692 330.867 94.316 330.867 91.112V77.972C330.867 76.748 329.895 75.776 328.671 75.776C327.483 75.776 326.511 76.748 326.511 77.936V78.836C325.035 77.072 323.055 75.596 319.851 75.596C315.423 75.596 311.211 78.908 311.211 84.524V84.596C311.211 90.176 315.387 93.488 319.851 93.488C322.983 93.488 324.963 92.048 326.547 89.996V91.472C326.547 95.288 324.423 97.304 320.535 97.304C318.339 97.304 316.431 96.764 314.703 95.792C314.487 95.684 314.235 95.612 313.911 95.612C312.903 95.612 312.075 96.44 312.075 97.412C312.075 98.24 312.543 98.852 313.299 99.14C315.603 100.256 317.979 100.832 320.643 100.832ZM321.003 89.78C318.015 89.78 315.603 87.656 315.603 84.56V84.488C315.603 81.356 317.979 79.268 321.003 79.268C324.027 79.268 326.583 81.392 326.583 84.488V84.56C326.583 87.656 324.027 89.78 321.003 89.78Z" fill="#00E59D"/>
</g>
<defs>
<filter id="filter0_f" x="0.259766" y="0.539062" width="349.721" height="72.328" filterUnits="userSpaceOnUse" color-interpolation-filters="sRGB">
<feFlood flood-opacity="0" result="BackgroundImageFix"/>
<feBlend mode="normal" in="SourceGraphic" in2="BackgroundImageFix" result="shape"/>
<feGaussianBlur stdDeviation="10" result="effect1_foregroundBlur"/>
</filter>
<filter id="filter1_f" x="1.73633" y="48.5391" width="349.131" height="72.4" filterUnits="userSpaceOnUse" color-interpolation-filters="sRGB">
<feFlood flood-opacity="0" result="BackgroundImageFix"/>
<feBlend mode="normal" in="SourceGraphic" in2="BackgroundImageFix" result="shape"/>
<feGaussianBlur stdDeviation="10" result="effect1_foregroundBlur"/>
</filter>
</defs>
</svg>
