<svg width="344" height="121" viewBox="0 0 344 121" fill="none" xmlns="http://www.w3.org/2000/svg">
<path d="M21.24 49.768C21.24 51.028 22.212 52 23.472 52H37.08C38.196 52 39.096 51.1 39.096 49.984C39.096 48.868 38.196 47.968 37.08 47.968H25.668V28.816C25.668 27.592 24.696 26.62 23.472 26.62C22.212 26.62 21.24 27.592 21.24 28.816V49.768ZM44.1495 41.164C44.5455 38.212 46.4175 36.16 49.0815 36.16C51.9615 36.16 53.6175 38.356 53.9055 41.164H44.1495ZM56.4255 49.912C56.7495 49.588 57.0015 49.12 57.0015 48.58C57.0015 47.572 56.2455 46.816 55.2735 46.816C54.7695 46.816 54.4815 46.96 54.1575 47.212C52.9335 48.22 51.4935 48.868 49.6575 48.868C46.8495 48.868 44.6535 47.14 44.1855 44.044H56.1015C57.2175 44.044 58.1535 43.18 58.1535 41.956C58.1535 37.564 55.1655 32.596 49.1175 32.596C43.6815 32.596 39.8295 37.06 39.8295 42.496V42.568C39.8295 48.436 44.0775 52.432 49.5855 52.432C52.5375 52.432 54.6975 51.46 56.4255 49.912ZM70.5713 50.452L76.9073 35.908C77.0153 35.692 77.1593 35.26 77.1593 34.864C77.1593 33.676 76.2233 32.776 75.0353 32.776C73.8833 32.776 73.3073 33.532 72.9833 34.288L68.0153 46.96L63.1193 34.36C62.7593 33.46 62.1473 32.776 60.9593 32.776C59.7713 32.776 58.7993 33.784 58.7993 34.864C58.7993 35.26 58.9433 35.62 59.0513 35.944L65.3873 50.452C65.8913 51.604 66.6833 52.36 67.8713 52.36H68.0873C69.2753 52.36 70.0673 51.568 70.5713 50.452ZM82.0339 41.164C82.4299 38.212 84.3019 36.16 86.9659 36.16C89.8459 36.16 91.5019 38.356 91.7899 41.164H82.0339ZM94.3099 49.912C94.6339 49.588 94.8859 49.12 94.8859 48.58C94.8859 47.572 94.1299 46.816 93.1579 46.816C92.6539 46.816 92.3659 46.96 92.0419 47.212C90.8179 48.22 89.3779 48.868 87.5419 48.868C84.7339 48.868 82.5379 47.14 82.0699 44.044H93.9859C95.1019 44.044 96.0379 43.18 96.0379 41.956C96.0379 37.564 93.0499 32.596 87.0019 32.596C81.5659 32.596 77.7139 37.06 77.7139 42.496V42.568C77.7139 48.436 81.9619 52.432 87.4699 52.432C90.4219 52.432 92.5819 51.46 94.3099 49.912ZM98.6844 50.02C98.6844 51.244 99.6564 52.18 100.844 52.18C102.068 52.18 103.04 51.208 103.04 50.02V44.404C103.04 39.904 105.164 37.528 108.26 36.988C109.232 36.808 109.988 36.052 109.988 34.9C109.988 33.64 109.196 32.74 107.828 32.74C105.92 32.74 104.048 34.54 103.04 36.916V34.972C103.04 33.748 102.068 32.776 100.844 32.776C99.6204 32.776 98.6844 33.748 98.6844 34.972V50.02ZM116.313 52.396C119.229 52.396 121.209 51.172 122.505 49.624V50.344C122.505 51.316 123.369 52.18 124.629 52.18C125.817 52.18 126.753 51.28 126.753 50.092V40.732C126.753 38.248 126.105 36.232 124.701 34.864C123.369 33.496 121.245 32.74 118.401 32.74C115.917 32.74 114.081 33.172 112.281 33.856C111.633 34.108 111.093 34.792 111.093 35.584C111.093 36.592 111.921 37.384 112.929 37.384C113.145 37.384 113.361 37.348 113.613 37.276C114.801 36.808 116.169 36.52 117.825 36.52C120.885 36.52 122.541 37.96 122.541 40.66V41.128C121.065 40.66 119.553 40.336 117.429 40.336C112.785 40.336 109.581 42.352 109.581 46.456V46.528C109.581 50.344 112.749 52.396 116.313 52.396ZM117.537 49.228C115.449 49.228 113.829 48.184 113.829 46.348V46.276C113.829 44.296 115.485 43.108 118.293 43.108C120.021 43.108 121.497 43.432 122.613 43.864V45.16C122.613 47.572 120.417 49.228 117.537 49.228ZM138.63 57.832C142.05 57.832 144.714 57.004 146.442 55.276C148.026 53.692 148.854 51.316 148.854 48.112V34.972C148.854 33.748 147.882 32.776 146.658 32.776C145.47 32.776 144.498 33.748 144.498 34.936V35.836C143.022 34.072 141.042 32.596 137.838 32.596C133.41 32.596 129.198 35.908 129.198 41.524V41.596C129.198 47.176 133.374 50.488 137.838 50.488C140.97 50.488 142.95 49.048 144.534 46.996V48.472C144.534 52.288 142.41 54.304 138.522 54.304C136.326 54.304 134.418 53.764 132.69 52.792C132.474 52.684 132.222 52.612 131.898 52.612C130.89 52.612 130.062 53.44 130.062 54.412C130.062 55.24 130.53 55.852 131.286 56.14C133.59 57.256 135.966 57.832 138.63 57.832ZM138.99 46.78C136.002 46.78 133.59 44.656 133.59 41.56V41.488C133.59 38.356 135.966 36.268 138.99 36.268C142.014 36.268 144.57 38.392 144.57 41.488V41.56C144.57 44.656 142.014 46.78 138.99 46.78ZM152.451 28.096C152.451 29.392 153.531 30.256 154.935 30.256C156.339 30.256 157.419 29.392 157.419 28.096V27.88C157.419 26.584 156.339 25.756 154.935 25.756C153.531 25.756 152.451 26.584 152.451 27.88V28.096ZM152.775 50.02C152.775 51.244 153.747 52.18 154.935 52.18C156.159 52.18 157.131 51.244 157.131 50.02V34.972C157.131 33.748 156.159 32.776 154.935 32.776C153.711 32.776 152.775 33.748 152.775 34.972V50.02ZM161.024 50.02C161.024 51.244 161.996 52.18 163.184 52.18C164.408 52.18 165.38 51.244 165.38 50.02V41.272C165.38 38.32 167.144 36.556 169.664 36.556C172.256 36.556 173.732 38.248 173.732 41.2V50.02C173.732 51.244 174.704 52.18 175.928 52.18C177.152 52.18 178.088 51.244 178.088 50.02V39.868C178.088 35.476 175.604 32.596 171.32 32.596C168.368 32.596 166.604 34.144 165.38 35.908V34.972C165.38 33.748 164.408 32.776 163.184 32.776C161.96 32.776 161.024 33.748 161.024 34.972V50.02ZM190.008 57.832C193.428 57.832 196.092 57.004 197.82 55.276C199.404 53.692 200.232 51.316 200.232 48.112V34.972C200.232 33.748 199.26 32.776 198.036 32.776C196.848 32.776 195.876 33.748 195.876 34.936V35.836C194.4 34.072 192.42 32.596 189.216 32.596C184.788 32.596 180.576 35.908 180.576 41.524V41.596C180.576 47.176 184.752 50.488 189.216 50.488C192.348 50.488 194.328 49.048 195.912 46.996V48.472C195.912 52.288 193.788 54.304 189.9 54.304C187.704 54.304 185.796 53.764 184.068 52.792C183.852 52.684 183.6 52.612 183.276 52.612C182.268 52.612 181.44 53.44 181.44 54.412C181.44 55.24 181.908 55.852 182.664 56.14C184.968 57.256 187.344 57.832 190.008 57.832ZM190.368 46.78C187.38 46.78 184.968 44.656 184.968 41.56V41.488C184.968 38.356 187.344 36.268 190.368 36.268C193.392 36.268 195.948 38.392 195.948 41.488V41.56C195.948 44.656 193.392 46.78 190.368 46.78ZM213.397 50.02C213.397 51.244 214.333 52.18 215.557 52.18C216.781 52.18 217.753 51.244 217.753 50.02V34.936L223.873 44.116C224.341 44.836 224.917 45.268 225.709 45.268C226.537 45.268 227.113 44.836 227.581 44.116L233.737 34.864V49.984C233.737 51.172 234.745 52.18 235.933 52.18C237.193 52.18 238.165 51.208 238.165 49.984V28.888C238.165 27.664 237.193 26.656 235.933 26.656H235.465C234.565 26.656 233.917 27.052 233.449 27.808L225.781 39.796L218.149 27.844C217.717 27.16 217.069 26.656 216.097 26.656H215.629C214.369 26.656 213.397 27.664 213.397 28.888V50.02ZM247.819 52.396C250.735 52.396 252.715 51.172 254.011 49.624V50.344C254.011 51.316 254.875 52.18 256.135 52.18C257.323 52.18 258.259 51.28 258.259 50.092V40.732C258.259 38.248 257.611 36.232 256.207 34.864C254.875 33.496 252.751 32.74 249.907 32.74C247.423 32.74 245.587 33.172 243.787 33.856C243.139 34.108 242.599 34.792 242.599 35.584C242.599 36.592 243.427 37.384 244.435 37.384C244.651 37.384 244.867 37.348 245.119 37.276C246.307 36.808 247.675 36.52 249.331 36.52C252.391 36.52 254.047 37.96 254.047 40.66V41.128C252.571 40.66 251.059 40.336 248.935 40.336C244.291 40.336 241.087 42.352 241.087 46.456V46.528C241.087 50.344 244.255 52.396 247.819 52.396ZM249.043 49.228C246.955 49.228 245.335 48.184 245.335 46.348V46.276C245.335 44.296 246.991 43.108 249.799 43.108C251.527 43.108 253.003 43.432 254.119 43.864V45.16C254.119 47.572 251.923 49.228 249.043 49.228ZM261.676 50.02C261.676 51.244 262.648 52.18 263.836 52.18C265.06 52.18 266.032 51.208 266.032 50.02V44.404C266.032 39.904 268.156 37.528 271.252 36.988C272.224 36.808 272.98 36.052 272.98 34.9C272.98 33.64 272.188 32.74 270.82 32.74C268.912 32.74 267.04 34.54 266.032 36.916V34.972C266.032 33.748 265.06 32.776 263.836 32.776C262.612 32.776 261.676 33.748 261.676 34.972V50.02ZM274.747 50.02C274.747 51.244 275.719 52.18 276.907 52.18C278.131 52.18 279.103 51.244 279.103 50.02V46.708L281.983 43.972L287.419 51.208C287.959 51.892 288.463 52.18 289.327 52.18C290.443 52.18 291.379 51.388 291.379 50.2C291.379 49.696 291.199 49.3 290.803 48.76L285.043 41.236L290.083 36.592C290.695 36.016 291.055 35.476 291.055 34.756C291.055 33.712 290.299 32.776 289.147 32.776C288.391 32.776 287.851 33.136 287.275 33.712L279.103 41.74V27.7C279.103 26.512 278.131 25.54 276.907 25.54C275.683 25.54 274.747 26.512 274.747 27.7V50.02ZM296.578 41.164C296.974 38.212 298.846 36.16 301.51 36.16C304.39 36.16 306.046 38.356 306.334 41.164H296.578ZM308.854 49.912C309.178 49.588 309.43 49.12 309.43 48.58C309.43 47.572 308.674 46.816 307.702 46.816C307.198 46.816 306.91 46.96 306.586 47.212C305.362 48.22 303.922 48.868 302.086 48.868C299.278 48.868 297.082 47.14 296.614 44.044H308.53C309.646 44.044 310.582 43.18 310.582 41.956C310.582 37.564 307.594 32.596 301.546 32.596C296.11 32.596 292.258 37.06 292.258 42.496V42.568C292.258 48.436 296.506 52.432 302.014 52.432C304.966 52.432 307.126 51.46 308.854 49.912ZM319.601 52.324C320.753 52.324 321.653 52.144 322.589 51.82C323.201 51.568 323.741 50.92 323.741 50.128C323.741 49.12 322.877 48.328 321.905 48.328C321.761 48.328 321.329 48.436 320.825 48.436C319.349 48.436 318.485 47.752 318.485 46.06V36.736H321.905C322.949 36.736 323.813 35.908 323.813 34.864C323.813 33.82 322.949 32.992 321.905 32.992H318.485V29.752C318.485 28.564 317.513 27.592 316.325 27.592C315.101 27.592 314.129 28.564 314.129 29.752V32.992H313.409C312.365 32.992 311.537 33.82 311.537 34.864C311.537 35.908 312.365 36.736 313.409 36.736H314.129V46.744C314.129 50.92 316.397 52.324 319.601 52.324Z" fill="black"/>
<path d="M21.24 44.768C21.24 46.028 22.212 47 23.472 47H37.08C38.196 47 39.096 46.1 39.096 44.984C39.096 43.868 38.196 42.968 37.08 42.968H25.668V23.816C25.668 22.592 24.696 21.62 23.472 21.62C22.212 21.62 21.24 22.592 21.24 23.816V44.768ZM44.1495 36.164C44.5455 33.212 46.4175 31.16 49.0815 31.16C51.9615 31.16 53.6175 33.356 53.9055 36.164H44.1495ZM56.4255 44.912C56.7495 44.588 57.0015 44.12 57.0015 43.58C57.0015 42.572 56.2455 41.816 55.2735 41.816C54.7695 41.816 54.4815 41.96 54.1575 42.212C52.9335 43.22 51.4935 43.868 49.6575 43.868C46.8495 43.868 44.6535 42.14 44.1855 39.044H56.1015C57.2175 39.044 58.1535 38.18 58.1535 36.956C58.1535 32.564 55.1655 27.596 49.1175 27.596C43.6815 27.596 39.8295 32.06 39.8295 37.496V37.568C39.8295 43.436 44.0775 47.432 49.5855 47.432C52.5375 47.432 54.6975 46.46 56.4255 44.912ZM70.5713 45.452L76.9073 30.908C77.0153 30.692 77.1593 30.26 77.1593 29.864C77.1593 28.676 76.2233 27.776 75.0353 27.776C73.8833 27.776 73.3073 28.532 72.9833 29.288L68.0153 41.96L63.1193 29.36C62.7593 28.46 62.1473 27.776 60.9593 27.776C59.7713 27.776 58.7993 28.784 58.7993 29.864C58.7993 30.26 58.9433 30.62 59.0513 30.944L65.3873 45.452C65.8913 46.604 66.6833 47.36 67.8713 47.36H68.0873C69.2753 47.36 70.0673 46.568 70.5713 45.452ZM82.0339 36.164C82.4299 33.212 84.3019 31.16 86.9659 31.16C89.8459 31.16 91.5019 33.356 91.7899 36.164H82.0339ZM94.3099 44.912C94.6339 44.588 94.8859 44.12 94.8859 43.58C94.8859 42.572 94.1299 41.816 93.1579 41.816C92.6539 41.816 92.3659 41.96 92.0419 42.212C90.8179 43.22 89.3779 43.868 87.5419 43.868C84.7339 43.868 82.5379 42.14 82.0699 39.044H93.9859C95.1019 39.044 96.0379 38.18 96.0379 36.956C96.0379 32.564 93.0499 27.596 87.0019 27.596C81.5659 27.596 77.7139 32.06 77.7139 37.496V37.568C77.7139 43.436 81.9619 47.432 87.4699 47.432C90.4219 47.432 92.5819 46.46 94.3099 44.912ZM98.6844 45.02C98.6844 46.244 99.6564 47.18 100.844 47.18C102.068 47.18 103.04 46.208 103.04 45.02V39.404C103.04 34.904 105.164 32.528 108.26 31.988C109.232 31.808 109.988 31.052 109.988 29.9C109.988 28.64 109.196 27.74 107.828 27.74C105.92 27.74 104.048 29.54 103.04 31.916V29.972C103.04 28.748 102.068 27.776 100.844 27.776C99.6204 27.776 98.6844 28.748 98.6844 29.972V45.02ZM116.313 47.396C119.229 47.396 121.209 46.172 122.505 44.624V45.344C122.505 46.316 123.369 47.18 124.629 47.18C125.817 47.18 126.753 46.28 126.753 45.092V35.732C126.753 33.248 126.105 31.232 124.701 29.864C123.369 28.496 121.245 27.74 118.401 27.74C115.917 27.74 114.081 28.172 112.281 28.856C111.633 29.108 111.093 29.792 111.093 30.584C111.093 31.592 111.921 32.384 112.929 32.384C113.145 32.384 113.361 32.348 113.613 32.276C114.801 31.808 116.169 31.52 117.825 31.52C120.885 31.52 122.541 32.96 122.541 35.66V36.128C121.065 35.66 119.553 35.336 117.429 35.336C112.785 35.336 109.581 37.352 109.581 41.456V41.528C109.581 45.344 112.749 47.396 116.313 47.396ZM117.537 44.228C115.449 44.228 113.829 43.184 113.829 41.348V41.276C113.829 39.296 115.485 38.108 118.293 38.108C120.021 38.108 121.497 38.432 122.613 38.864V40.16C122.613 42.572 120.417 44.228 117.537 44.228ZM138.63 52.832C142.05 52.832 144.714 52.004 146.442 50.276C148.026 48.692 148.854 46.316 148.854 43.112V29.972C148.854 28.748 147.882 27.776 146.658 27.776C145.47 27.776 144.498 28.748 144.498 29.936V30.836C143.022 29.072 141.042 27.596 137.838 27.596C133.41 27.596 129.198 30.908 129.198 36.524V36.596C129.198 42.176 133.374 45.488 137.838 45.488C140.97 45.488 142.95 44.048 144.534 41.996V43.472C144.534 47.288 142.41 49.304 138.522 49.304C136.326 49.304 134.418 48.764 132.69 47.792C132.474 47.684 132.222 47.612 131.898 47.612C130.89 47.612 130.062 48.44 130.062 49.412C130.062 50.24 130.53 50.852 131.286 51.14C133.59 52.256 135.966 52.832 138.63 52.832ZM138.99 41.78C136.002 41.78 133.59 39.656 133.59 36.56V36.488C133.59 33.356 135.966 31.268 138.99 31.268C142.014 31.268 144.57 33.392 144.57 36.488V36.56C144.57 39.656 142.014 41.78 138.99 41.78ZM152.451 23.096C152.451 24.392 153.531 25.256 154.935 25.256C156.339 25.256 157.419 24.392 157.419 23.096V22.88C157.419 21.584 156.339 20.756 154.935 20.756C153.531 20.756 152.451 21.584 152.451 22.88V23.096ZM152.775 45.02C152.775 46.244 153.747 47.18 154.935 47.18C156.159 47.18 157.131 46.244 157.131 45.02V29.972C157.131 28.748 156.159 27.776 154.935 27.776C153.711 27.776 152.775 28.748 152.775 29.972V45.02ZM161.024 45.02C161.024 46.244 161.996 47.18 163.184 47.18C164.408 47.18 165.38 46.244 165.38 45.02V36.272C165.38 33.32 167.144 31.556 169.664 31.556C172.256 31.556 173.732 33.248 173.732 36.2V45.02C173.732 46.244 174.704 47.18 175.928 47.18C177.152 47.18 178.088 46.244 178.088 45.02V34.868C178.088 30.476 175.604 27.596 171.32 27.596C168.368 27.596 166.604 29.144 165.38 30.908V29.972C165.38 28.748 164.408 27.776 163.184 27.776C161.96 27.776 161.024 28.748 161.024 29.972V45.02ZM190.008 52.832C193.428 52.832 196.092 52.004 197.82 50.276C199.404 48.692 200.232 46.316 200.232 43.112V29.972C200.232 28.748 199.26 27.776 198.036 27.776C196.848 27.776 195.876 28.748 195.876 29.936V30.836C194.4 29.072 192.42 27.596 189.216 27.596C184.788 27.596 180.576 30.908 180.576 36.524V36.596C180.576 42.176 184.752 45.488 189.216 45.488C192.348 45.488 194.328 44.048 195.912 41.996V43.472C195.912 47.288 193.788 49.304 189.9 49.304C187.704 49.304 185.796 48.764 184.068 47.792C183.852 47.684 183.6 47.612 183.276 47.612C182.268 47.612 181.44 48.44 181.44 49.412C181.44 50.24 181.908 50.852 182.664 51.14C184.968 52.256 187.344 52.832 190.008 52.832ZM190.368 41.78C187.38 41.78 184.968 39.656 184.968 36.56V36.488C184.968 33.356 187.344 31.268 190.368 31.268C193.392 31.268 195.948 33.392 195.948 36.488V36.56C195.948 39.656 193.392 41.78 190.368 41.78ZM213.397 45.02C213.397 46.244 214.333 47.18 215.557 47.18C216.781 47.18 217.753 46.244 217.753 45.02V29.936L223.873 39.116C224.341 39.836 224.917 40.268 225.709 40.268C226.537 40.268 227.113 39.836 227.581 39.116L233.737 29.864V44.984C233.737 46.172 234.745 47.18 235.933 47.18C237.193 47.18 238.165 46.208 238.165 44.984V23.888C238.165 22.664 237.193 21.656 235.933 21.656H235.465C234.565 21.656 233.917 22.052 233.449 22.808L225.781 34.796L218.149 22.844C217.717 22.16 217.069 21.656 216.097 21.656H215.629C214.369 21.656 213.397 22.664 213.397 23.888V45.02ZM247.819 47.396C250.735 47.396 252.715 46.172 254.011 44.624V45.344C254.011 46.316 254.875 47.18 256.135 47.18C257.323 47.18 258.259 46.28 258.259 45.092V35.732C258.259 33.248 257.611 31.232 256.207 29.864C254.875 28.496 252.751 27.74 249.907 27.74C247.423 27.74 245.587 28.172 243.787 28.856C243.139 29.108 242.599 29.792 242.599 30.584C242.599 31.592 243.427 32.384 244.435 32.384C244.651 32.384 244.867 32.348 245.119 32.276C246.307 31.808 247.675 31.52 249.331 31.52C252.391 31.52 254.047 32.96 254.047 35.66V36.128C252.571 35.66 251.059 35.336 248.935 35.336C244.291 35.336 241.087 37.352 241.087 41.456V41.528C241.087 45.344 244.255 47.396 247.819 47.396ZM249.043 44.228C246.955 44.228 245.335 43.184 245.335 41.348V41.276C245.335 39.296 246.991 38.108 249.799 38.108C251.527 38.108 253.003 38.432 254.119 38.864V40.16C254.119 42.572 251.923 44.228 249.043 44.228ZM261.676 45.02C261.676 46.244 262.648 47.18 263.836 47.18C265.06 47.18 266.032 46.208 266.032 45.02V39.404C266.032 34.904 268.156 32.528 271.252 31.988C272.224 31.808 272.98 31.052 272.98 29.9C272.98 28.64 272.188 27.74 270.82 27.74C268.912 27.74 267.04 29.54 266.032 31.916V29.972C266.032 28.748 265.06 27.776 263.836 27.776C262.612 27.776 261.676 28.748 261.676 29.972V45.02ZM274.747 45.02C274.747 46.244 275.719 47.18 276.907 47.18C278.131 47.18 279.103 46.244 279.103 45.02V41.708L281.983 38.972L287.419 46.208C287.959 46.892 288.463 47.18 289.327 47.18C290.443 47.18 291.379 46.388 291.379 45.2C291.379 44.696 291.199 44.3 290.803 43.76L285.043 36.236L290.083 31.592C290.695 31.016 291.055 30.476 291.055 29.756C291.055 28.712 290.299 27.776 289.147 27.776C288.391 27.776 287.851 28.136 287.275 28.712L279.103 36.74V22.7C279.103 21.512 278.131 20.54 276.907 20.54C275.683 20.54 274.747 21.512 274.747 22.7V45.02ZM296.578 36.164C296.974 33.212 298.846 31.16 301.51 31.16C304.39 31.16 306.046 33.356 306.334 36.164H296.578ZM308.854 44.912C309.178 44.588 309.43 44.12 309.43 43.58C309.43 42.572 308.674 41.816 307.702 41.816C307.198 41.816 306.91 41.96 306.586 42.212C305.362 43.22 303.922 43.868 302.086 43.868C299.278 43.868 297.082 42.14 296.614 39.044H308.53C309.646 39.044 310.582 38.18 310.582 36.956C310.582 32.564 307.594 27.596 301.546 27.596C296.11 27.596 292.258 32.06 292.258 37.496V37.568C292.258 43.436 296.506 47.432 302.014 47.432C304.966 47.432 307.126 46.46 308.854 44.912ZM319.601 47.324C320.753 47.324 321.653 47.144 322.589 46.82C323.201 46.568 323.741 45.92 323.741 45.128C323.741 44.12 322.877 43.328 321.905 43.328C321.761 43.328 321.329 43.436 320.825 43.436C319.349 43.436 318.485 42.752 318.485 41.06V31.736H321.905C322.949 31.736 323.813 30.908 323.813 29.864C323.813 28.82 322.949 27.992 321.905 27.992H318.485V24.752C318.485 23.564 317.513 22.592 316.325 22.592C315.101 22.592 314.129 23.564 314.129 24.752V27.992H313.409C312.365 27.992 311.537 28.82 311.537 29.864C311.537 30.908 312.365 31.736 313.409 31.736H314.129V41.744C314.129 45.92 316.397 47.324 319.601 47.324Z" fill="#00E59D"/>
<g filter="url(#filter0_f)">
<path d="M21.24 44.768C21.24 46.028 22.212 47 23.472 47H37.08C38.196 47 39.096 46.1 39.096 44.984C39.096 43.868 38.196 42.968 37.08 42.968H25.668V23.816C25.668 22.592 24.696 21.62 23.472 21.62C22.212 21.62 21.24 22.592 21.24 23.816V44.768ZM44.1495 36.164C44.5455 33.212 46.4175 31.16 49.0815 31.16C51.9615 31.16 53.6175 33.356 53.9055 36.164H44.1495ZM56.4255 44.912C56.7495 44.588 57.0015 44.12 57.0015 43.58C57.0015 42.572 56.2455 41.816 55.2735 41.816C54.7695 41.816 54.4815 41.96 54.1575 42.212C52.9335 43.22 51.4935 43.868 49.6575 43.868C46.8495 43.868 44.6535 42.14 44.1855 39.044H56.1015C57.2175 39.044 58.1535 38.18 58.1535 36.956C58.1535 32.564 55.1655 27.596 49.1175 27.596C43.6815 27.596 39.8295 32.06 39.8295 37.496V37.568C39.8295 43.436 44.0775 47.432 49.5855 47.432C52.5375 47.432 54.6975 46.46 56.4255 44.912ZM70.5713 45.452L76.9073 30.908C77.0153 30.692 77.1593 30.26 77.1593 29.864C77.1593 28.676 76.2233 27.776 75.0353 27.776C73.8833 27.776 73.3073 28.532 72.9833 29.288L68.0153 41.96L63.1193 29.36C62.7593 28.46 62.1473 27.776 60.9593 27.776C59.7713 27.776 58.7993 28.784 58.7993 29.864C58.7993 30.26 58.9433 30.62 59.0513 30.944L65.3873 45.452C65.8913 46.604 66.6833 47.36 67.8713 47.36H68.0873C69.2753 47.36 70.0673 46.568 70.5713 45.452ZM82.0339 36.164C82.4299 33.212 84.3019 31.16 86.9659 31.16C89.8459 31.16 91.5019 33.356 91.7899 36.164H82.0339ZM94.3099 44.912C94.6339 44.588 94.8859 44.12 94.8859 43.58C94.8859 42.572 94.1299 41.816 93.1579 41.816C92.6539 41.816 92.3659 41.96 92.0419 42.212C90.8179 43.22 89.3779 43.868 87.5419 43.868C84.7339 43.868 82.5379 42.14 82.0699 39.044H93.9859C95.1019 39.044 96.0379 38.18 96.0379 36.956C96.0379 32.564 93.0499 27.596 87.0019 27.596C81.5659 27.596 77.7139 32.06 77.7139 37.496V37.568C77.7139 43.436 81.9619 47.432 87.4699 47.432C90.4219 47.432 92.5819 46.46 94.3099 44.912ZM98.6844 45.02C98.6844 46.244 99.6564 47.18 100.844 47.18C102.068 47.18 103.04 46.208 103.04 45.02V39.404C103.04 34.904 105.164 32.528 108.26 31.988C109.232 31.808 109.988 31.052 109.988 29.9C109.988 28.64 109.196 27.74 107.828 27.74C105.92 27.74 104.048 29.54 103.04 31.916V29.972C103.04 28.748 102.068 27.776 100.844 27.776C99.6204 27.776 98.6844 28.748 98.6844 29.972V45.02ZM116.313 47.396C119.229 47.396 121.209 46.172 122.505 44.624V45.344C122.505 46.316 123.369 47.18 124.629 47.18C125.817 47.18 126.753 46.28 126.753 45.092V35.732C126.753 33.248 126.105 31.232 124.701 29.864C123.369 28.496 121.245 27.74 118.401 27.74C115.917 27.74 114.081 28.172 112.281 28.856C111.633 29.108 111.093 29.792 111.093 30.584C111.093 31.592 111.921 32.384 112.929 32.384C113.145 32.384 113.361 32.348 113.613 32.276C114.801 31.808 116.169 31.52 117.825 31.52C120.885 31.52 122.541 32.96 122.541 35.66V36.128C121.065 35.66 119.553 35.336 117.429 35.336C112.785 35.336 109.581 37.352 109.581 41.456V41.528C109.581 45.344 112.749 47.396 116.313 47.396ZM117.537 44.228C115.449 44.228 113.829 43.184 113.829 41.348V41.276C113.829 39.296 115.485 38.108 118.293 38.108C120.021 38.108 121.497 38.432 122.613 38.864V40.16C122.613 42.572 120.417 44.228 117.537 44.228ZM138.63 52.832C142.05 52.832 144.714 52.004 146.442 50.276C148.026 48.692 148.854 46.316 148.854 43.112V29.972C148.854 28.748 147.882 27.776 146.658 27.776C145.47 27.776 144.498 28.748 144.498 29.936V30.836C143.022 29.072 141.042 27.596 137.838 27.596C133.41 27.596 129.198 30.908 129.198 36.524V36.596C129.198 42.176 133.374 45.488 137.838 45.488C140.97 45.488 142.95 44.048 144.534 41.996V43.472C144.534 47.288 142.41 49.304 138.522 49.304C136.326 49.304 134.418 48.764 132.69 47.792C132.474 47.684 132.222 47.612 131.898 47.612C130.89 47.612 130.062 48.44 130.062 49.412C130.062 50.24 130.53 50.852 131.286 51.14C133.59 52.256 135.966 52.832 138.63 52.832ZM138.99 41.78C136.002 41.78 133.59 39.656 133.59 36.56V36.488C133.59 33.356 135.966 31.268 138.99 31.268C142.014 31.268 144.57 33.392 144.57 36.488V36.56C144.57 39.656 142.014 41.78 138.99 41.78ZM152.451 23.096C152.451 24.392 153.531 25.256 154.935 25.256C156.339 25.256 157.419 24.392 157.419 23.096V22.88C157.419 21.584 156.339 20.756 154.935 20.756C153.531 20.756 152.451 21.584 152.451 22.88V23.096ZM152.775 45.02C152.775 46.244 153.747 47.18 154.935 47.18C156.159 47.18 157.131 46.244 157.131 45.02V29.972C157.131 28.748 156.159 27.776 154.935 27.776C153.711 27.776 152.775 28.748 152.775 29.972V45.02ZM161.024 45.02C161.024 46.244 161.996 47.18 163.184 47.18C164.408 47.18 165.38 46.244 165.38 45.02V36.272C165.38 33.32 167.144 31.556 169.664 31.556C172.256 31.556 173.732 33.248 173.732 36.2V45.02C173.732 46.244 174.704 47.18 175.928 47.18C177.152 47.18 178.088 46.244 178.088 45.02V34.868C178.088 30.476 175.604 27.596 171.32 27.596C168.368 27.596 166.604 29.144 165.38 30.908V29.972C165.38 28.748 164.408 27.776 163.184 27.776C161.96 27.776 161.024 28.748 161.024 29.972V45.02ZM190.008 52.832C193.428 52.832 196.092 52.004 197.82 50.276C199.404 48.692 200.232 46.316 200.232 43.112V29.972C200.232 28.748 199.26 27.776 198.036 27.776C196.848 27.776 195.876 28.748 195.876 29.936V30.836C194.4 29.072 192.42 27.596 189.216 27.596C184.788 27.596 180.576 30.908 180.576 36.524V36.596C180.576 42.176 184.752 45.488 189.216 45.488C192.348 45.488 194.328 44.048 195.912 41.996V43.472C195.912 47.288 193.788 49.304 189.9 49.304C187.704 49.304 185.796 48.764 184.068 47.792C183.852 47.684 183.6 47.612 183.276 47.612C182.268 47.612 181.44 48.44 181.44 49.412C181.44 50.24 181.908 50.852 182.664 51.14C184.968 52.256 187.344 52.832 190.008 52.832ZM190.368 41.78C187.38 41.78 184.968 39.656 184.968 36.56V36.488C184.968 33.356 187.344 31.268 190.368 31.268C193.392 31.268 195.948 33.392 195.948 36.488V36.56C195.948 39.656 193.392 41.78 190.368 41.78ZM213.397 45.02C213.397 46.244 214.333 47.18 215.557 47.18C216.781 47.18 217.753 46.244 217.753 45.02V29.936L223.873 39.116C224.341 39.836 224.917 40.268 225.709 40.268C226.537 40.268 227.113 39.836 227.581 39.116L233.737 29.864V44.984C233.737 46.172 234.745 47.18 235.933 47.18C237.193 47.18 238.165 46.208 238.165 44.984V23.888C238.165 22.664 237.193 21.656 235.933 21.656H235.465C234.565 21.656 233.917 22.052 233.449 22.808L225.781 34.796L218.149 22.844C217.717 22.16 217.069 21.656 216.097 21.656H215.629C214.369 21.656 213.397 22.664 213.397 23.888V45.02ZM247.819 47.396C250.735 47.396 252.715 46.172 254.011 44.624V45.344C254.011 46.316 254.875 47.18 256.135 47.18C257.323 47.18 258.259 46.28 258.259 45.092V35.732C258.259 33.248 257.611 31.232 256.207 29.864C254.875 28.496 252.751 27.74 249.907 27.74C247.423 27.74 245.587 28.172 243.787 28.856C243.139 29.108 242.599 29.792 242.599 30.584C242.599 31.592 243.427 32.384 244.435 32.384C244.651 32.384 244.867 32.348 245.119 32.276C246.307 31.808 247.675 31.52 249.331 31.52C252.391 31.52 254.047 32.96 254.047 35.66V36.128C252.571 35.66 251.059 35.336 248.935 35.336C244.291 35.336 241.087 37.352 241.087 41.456V41.528C241.087 45.344 244.255 47.396 247.819 47.396ZM249.043 44.228C246.955 44.228 245.335 43.184 245.335 41.348V41.276C245.335 39.296 246.991 38.108 249.799 38.108C251.527 38.108 253.003 38.432 254.119 38.864V40.16C254.119 42.572 251.923 44.228 249.043 44.228ZM261.676 45.02C261.676 46.244 262.648 47.18 263.836 47.18C265.06 47.18 266.032 46.208 266.032 45.02V39.404C266.032 34.904 268.156 32.528 271.252 31.988C272.224 31.808 272.98 31.052 272.98 29.9C272.98 28.64 272.188 27.74 270.82 27.74C268.912 27.74 267.04 29.54 266.032 31.916V29.972C266.032 28.748 265.06 27.776 263.836 27.776C262.612 27.776 261.676 28.748 261.676 29.972V45.02ZM274.747 45.02C274.747 46.244 275.719 47.18 276.907 47.18C278.131 47.18 279.103 46.244 279.103 45.02V41.708L281.983 38.972L287.419 46.208C287.959 46.892 288.463 47.18 289.327 47.18C290.443 47.18 291.379 46.388 291.379 45.2C291.379 44.696 291.199 44.3 290.803 43.76L285.043 36.236L290.083 31.592C290.695 31.016 291.055 30.476 291.055 29.756C291.055 28.712 290.299 27.776 289.147 27.776C288.391 27.776 287.851 28.136 287.275 28.712L279.103 36.74V22.7C279.103 21.512 278.131 20.54 276.907 20.54C275.683 20.54 274.747 21.512 274.747 22.7V45.02ZM296.578 36.164C296.974 33.212 298.846 31.16 301.51 31.16C304.39 31.16 306.046 33.356 306.334 36.164H296.578ZM308.854 44.912C309.178 44.588 309.43 44.12 309.43 43.58C309.43 42.572 308.674 41.816 307.702 41.816C307.198 41.816 306.91 41.96 306.586 42.212C305.362 43.22 303.922 43.868 302.086 43.868C299.278 43.868 297.082 42.14 296.614 39.044H308.53C309.646 39.044 310.582 38.18 310.582 36.956C310.582 32.564 307.594 27.596 301.546 27.596C296.11 27.596 292.258 32.06 292.258 37.496V37.568C292.258 43.436 296.506 47.432 302.014 47.432C304.966 47.432 307.126 46.46 308.854 44.912ZM319.601 47.324C320.753 47.324 321.653 47.144 322.589 46.82C323.201 46.568 323.741 45.92 323.741 45.128C323.741 44.12 322.877 43.328 321.905 43.328C321.761 43.328 321.329 43.436 320.825 43.436C319.349 43.436 318.485 42.752 318.485 41.06V31.736H321.905C322.949 31.736 323.813 30.908 323.813 29.864C323.813 28.82 322.949 27.992 321.905 27.992H318.485V24.752C318.485 23.564 317.513 22.592 316.325 22.592C315.101 22.592 314.129 23.564 314.129 24.752V27.992H313.409C312.365 27.992 311.537 28.82 311.537 29.864C311.537 30.908 312.365 31.736 313.409 31.736H314.129V41.744C314.129 45.92 316.397 47.324 319.601 47.324Z" fill="#00E59D"/>
</g>
<path d="M33.264 100.432C41.004 100.432 46.476 94.492 46.476 87.4V87.328C46.476 80.236 41.076 74.368 33.336 74.368C25.596 74.368 20.124 80.308 20.124 87.4V87.472C20.124 94.564 25.524 100.432 33.264 100.432ZM33.336 96.328C28.332 96.328 24.768 92.296 24.768 87.4V87.328C24.768 82.432 28.26 78.436 33.264 78.436C38.268 78.436 41.832 82.504 41.832 87.4V87.472C41.832 92.368 38.34 96.328 33.336 96.328ZM49.5219 103.78C49.5219 105.004 50.4939 105.94 51.6819 105.94C52.9059 105.94 53.8779 105.004 53.8779 103.78V97.048C55.2099 98.812 57.1899 100.396 60.3579 100.396C64.8579 100.396 69.1779 96.832 69.1779 90.532V90.46C69.1779 84.124 64.8219 80.596 60.3579 80.596C57.2619 80.596 55.2819 82.18 53.8779 84.16V82.972C53.8779 81.748 52.9059 80.776 51.6819 80.776C50.4579 80.776 49.5219 81.748 49.5219 82.972V103.78ZM59.3139 96.616C56.3619 96.616 53.7699 94.168 53.7699 90.532V90.46C53.7699 86.824 56.3619 84.376 59.3139 84.376C62.2659 84.376 64.7499 86.788 64.7499 90.46V90.532C64.7499 94.276 62.3019 96.616 59.3139 96.616ZM71.8743 103.78C71.8743 105.004 72.8463 105.94 74.0343 105.94C75.2583 105.94 76.2303 105.004 76.2303 103.78V97.048C77.5623 98.812 79.5423 100.396 82.7103 100.396C87.2103 100.396 91.5303 96.832 91.5303 90.532V90.46C91.5303 84.124 87.1743 80.596 82.7103 80.596C79.6143 80.596 77.6343 82.18 76.2303 84.16V82.972C76.2303 81.748 75.2583 80.776 74.0343 80.776C72.8103 80.776 71.8743 81.748 71.8743 82.972V103.78ZM81.6663 96.616C78.7143 96.616 76.1223 94.168 76.1223 90.532V90.46C76.1223 86.824 78.7143 84.376 81.6663 84.376C84.6183 84.376 87.1023 86.788 87.1023 90.46V90.532C87.1023 94.276 84.6543 96.616 81.6663 96.616ZM103.263 100.432C109.131 100.432 113.451 95.932 113.451 90.532V90.46C113.451 85.024 109.167 80.596 103.335 80.596C97.5026 80.596 93.1826 85.096 93.1826 90.532V90.604C93.1826 96.004 97.4666 100.432 103.263 100.432ZM103.335 96.616C99.9506 96.616 97.5386 93.844 97.5386 90.532V90.46C97.5386 87.148 99.7706 84.412 103.263 84.412C106.683 84.412 109.095 87.184 109.095 90.532V90.604C109.095 93.88 106.863 96.616 103.335 96.616ZM116.087 98.02C116.087 99.244 117.059 100.18 118.247 100.18C119.471 100.18 120.443 99.208 120.443 98.02V92.404C120.443 87.904 122.567 85.528 125.663 84.988C126.635 84.808 127.391 84.052 127.391 82.9C127.391 81.64 126.599 80.74 125.231 80.74C123.323 80.74 121.451 82.54 120.443 84.916V82.972C120.443 81.748 119.471 80.776 118.247 80.776C117.023 80.776 116.087 81.748 116.087 82.972V98.02ZM135.53 100.324C136.682 100.324 137.582 100.144 138.518 99.82C139.13 99.568 139.67 98.92 139.67 98.128C139.67 97.12 138.806 96.328 137.834 96.328C137.69 96.328 137.258 96.436 136.754 96.436C135.278 96.436 134.414 95.752 134.414 94.06V84.736H137.834C138.878 84.736 139.742 83.908 139.742 82.864C139.742 81.82 138.878 80.992 137.834 80.992H134.414V77.752C134.414 76.564 133.442 75.592 132.254 75.592C131.03 75.592 130.058 76.564 130.058 77.752V80.992H129.338C128.294 80.992 127.466 81.82 127.466 82.864C127.466 83.908 128.294 84.736 129.338 84.736H130.058V94.744C130.058 98.92 132.326 100.324 135.53 100.324ZM159.043 82.972C159.043 81.748 158.035 80.776 156.847 80.776C155.623 80.776 154.651 81.748 154.651 82.972V91.72C154.651 94.672 152.887 96.4 150.367 96.4C147.775 96.4 146.299 94.744 146.299 91.792V82.972C146.299 81.748 145.327 80.776 144.103 80.776C142.915 80.776 141.943 81.748 141.943 82.972V93.088C141.943 97.516 144.427 100.396 148.711 100.396C151.663 100.396 153.427 98.848 154.651 97.048V98.02C154.651 99.244 155.659 100.18 156.847 100.18C158.071 100.18 159.043 99.208 159.043 98.02V82.972ZM162.683 98.02C162.683 99.244 163.655 100.18 164.843 100.18C166.067 100.18 167.039 99.244 167.039 98.02V89.272C167.039 86.32 168.803 84.556 171.323 84.556C173.915 84.556 175.391 86.248 175.391 89.2V98.02C175.391 99.244 176.363 100.18 177.587 100.18C178.811 100.18 179.747 99.244 179.747 98.02V87.868C179.747 83.476 177.263 80.596 172.979 80.596C170.027 80.596 168.263 82.144 167.039 83.908V82.972C167.039 81.748 166.067 80.776 164.843 80.776C163.619 80.776 162.683 81.748 162.683 82.972V98.02ZM183.135 76.096C183.135 77.392 184.215 78.256 185.619 78.256C187.023 78.256 188.103 77.392 188.103 76.096V75.88C188.103 74.584 187.023 73.756 185.619 73.756C184.215 73.756 183.135 74.584 183.135 75.88V76.096ZM183.459 98.02C183.459 99.244 184.431 100.18 185.619 100.18C186.843 100.18 187.815 99.244 187.815 98.02V82.972C187.815 81.748 186.843 80.776 185.619 80.776C184.395 80.776 183.459 81.748 183.459 82.972V98.02ZM198.08 100.324C199.232 100.324 200.132 100.144 201.068 99.82C201.68 99.568 202.22 98.92 202.22 98.128C202.22 97.12 201.356 96.328 200.384 96.328C200.24 96.328 199.808 96.436 199.304 96.436C197.828 96.436 196.964 95.752 196.964 94.06V84.736H200.384C201.428 84.736 202.292 83.908 202.292 82.864C202.292 81.82 201.428 80.992 200.384 80.992H196.964V77.752C196.964 76.564 195.992 75.592 194.804 75.592C193.58 75.592 192.608 76.564 192.608 77.752V80.992H191.888C190.844 80.992 190.016 81.82 190.016 82.864C190.016 83.908 190.844 84.736 191.888 84.736H192.608V94.744C192.608 98.92 194.876 100.324 198.08 100.324ZM204.637 76.096C204.637 77.392 205.717 78.256 207.121 78.256C208.525 78.256 209.605 77.392 209.605 76.096V75.88C209.605 74.584 208.525 73.756 207.121 73.756C205.717 73.756 204.637 74.584 204.637 75.88V76.096ZM204.961 98.02C204.961 99.244 205.933 100.18 207.121 100.18C208.345 100.18 209.317 99.244 209.317 98.02V82.972C209.317 81.748 208.345 80.776 207.121 80.776C205.897 80.776 204.961 81.748 204.961 82.972V98.02ZM216.485 89.164C216.881 86.212 218.753 84.16 221.417 84.16C224.297 84.16 225.953 86.356 226.241 89.164H216.485ZM228.761 97.912C229.085 97.588 229.337 97.12 229.337 96.58C229.337 95.572 228.581 94.816 227.609 94.816C227.105 94.816 226.817 94.96 226.493 95.212C225.269 96.22 223.829 96.868 221.993 96.868C219.185 96.868 216.989 95.14 216.521 92.044H228.437C229.553 92.044 230.489 91.18 230.489 89.956C230.489 85.564 227.501 80.596 221.453 80.596C216.017 80.596 212.165 85.06 212.165 90.496V90.568C212.165 96.436 216.413 100.432 221.921 100.432C224.873 100.432 227.033 99.46 228.761 97.912ZM239.652 100.36C243.612 100.36 246.708 98.38 246.708 94.384V94.312C246.708 90.892 243.576 89.632 240.804 88.768C238.572 88.048 236.52 87.472 236.52 86.068V85.996C236.52 84.916 237.492 84.124 239.184 84.124C240.516 84.124 242.1 84.628 243.648 85.42C243.936 85.564 244.152 85.636 244.512 85.636C245.52 85.636 246.312 84.88 246.312 83.872C246.312 83.116 245.88 82.54 245.268 82.216C243.432 81.244 241.308 80.668 239.292 80.668C235.512 80.668 232.524 82.864 232.524 86.464V86.536C232.524 90.172 235.656 91.324 238.464 92.116C240.696 92.8 242.712 93.304 242.712 94.78V94.852C242.712 96.112 241.632 96.904 239.76 96.904C238.032 96.904 236.124 96.292 234.288 95.068C234.036 94.924 233.712 94.816 233.352 94.816C232.344 94.816 231.588 95.608 231.588 96.58C231.588 97.3 231.948 97.84 232.416 98.092C234.612 99.604 237.24 100.36 239.652 100.36Z" fill="black"/>
<path d="M33.264 95.432C41.004 95.432 46.476 89.492 46.476 82.4V82.328C46.476 75.236 41.076 69.368 33.336 69.368C25.596 69.368 20.124 75.308 20.124 82.4V82.472C20.124 89.564 25.524 95.432 33.264 95.432ZM33.336 91.328C28.332 91.328 24.768 87.296 24.768 82.4V82.328C24.768 77.432 28.26 73.436 33.264 73.436C38.268 73.436 41.832 77.504 41.832 82.4V82.472C41.832 87.368 38.34 91.328 33.336 91.328ZM49.5219 98.78C49.5219 100.004 50.4939 100.94 51.6819 100.94C52.9059 100.94 53.8779 100.004 53.8779 98.78V92.048C55.2099 93.812 57.1899 95.396 60.3579 95.396C64.8579 95.396 69.1779 91.832 69.1779 85.532V85.46C69.1779 79.124 64.8219 75.596 60.3579 75.596C57.2619 75.596 55.2819 77.18 53.8779 79.16V77.972C53.8779 76.748 52.9059 75.776 51.6819 75.776C50.4579 75.776 49.5219 76.748 49.5219 77.972V98.78ZM59.3139 91.616C56.3619 91.616 53.7699 89.168 53.7699 85.532V85.46C53.7699 81.824 56.3619 79.376 59.3139 79.376C62.2659 79.376 64.7499 81.788 64.7499 85.46V85.532C64.7499 89.276 62.3019 91.616 59.3139 91.616ZM71.8743 98.78C71.8743 100.004 72.8463 100.94 74.0343 100.94C75.2583 100.94 76.2303 100.004 76.2303 98.78V92.048C77.5623 93.812 79.5423 95.396 82.7103 95.396C87.2103 95.396 91.5303 91.832 91.5303 85.532V85.46C91.5303 79.124 87.1743 75.596 82.7103 75.596C79.6143 75.596 77.6343 77.18 76.2303 79.16V77.972C76.2303 76.748 75.2583 75.776 74.0343 75.776C72.8103 75.776 71.8743 76.748 71.8743 77.972V98.78ZM81.6663 91.616C78.7143 91.616 76.1223 89.168 76.1223 85.532V85.46C76.1223 81.824 78.7143 79.376 81.6663 79.376C84.6183 79.376 87.1023 81.788 87.1023 85.46V85.532C87.1023 89.276 84.6543 91.616 81.6663 91.616ZM103.263 95.432C109.131 95.432 113.451 90.932 113.451 85.532V85.46C113.451 80.024 109.167 75.596 103.335 75.596C97.5026 75.596 93.1826 80.096 93.1826 85.532V85.604C93.1826 91.004 97.4666 95.432 103.263 95.432ZM103.335 91.616C99.9506 91.616 97.5386 88.844 97.5386 85.532V85.46C97.5386 82.148 99.7706 79.412 103.263 79.412C106.683 79.412 109.095 82.184 109.095 85.532V85.604C109.095 88.88 106.863 91.616 103.335 91.616ZM116.087 93.02C116.087 94.244 117.059 95.18 118.247 95.18C119.471 95.18 120.443 94.208 120.443 93.02V87.404C120.443 82.904 122.567 80.528 125.663 79.988C126.635 79.808 127.391 79.052 127.391 77.9C127.391 76.64 126.599 75.74 125.231 75.74C123.323 75.74 121.451 77.54 120.443 79.916V77.972C120.443 76.748 119.471 75.776 118.247 75.776C117.023 75.776 116.087 76.748 116.087 77.972V93.02ZM135.53 95.324C136.682 95.324 137.582 95.144 138.518 94.82C139.13 94.568 139.67 93.92 139.67 93.128C139.67 92.12 138.806 91.328 137.834 91.328C137.69 91.328 137.258 91.436 136.754 91.436C135.278 91.436 134.414 90.752 134.414 89.06V79.736H137.834C138.878 79.736 139.742 78.908 139.742 77.864C139.742 76.82 138.878 75.992 137.834 75.992H134.414V72.752C134.414 71.564 133.442 70.592 132.254 70.592C131.03 70.592 130.058 71.564 130.058 72.752V75.992H129.338C128.294 75.992 127.466 76.82 127.466 77.864C127.466 78.908 128.294 79.736 129.338 79.736H130.058V89.744C130.058 93.92 132.326 95.324 135.53 95.324ZM159.043 77.972C159.043 76.748 158.035 75.776 156.847 75.776C155.623 75.776 154.651 76.748 154.651 77.972V86.72C154.651 89.672 152.887 91.4 150.367 91.4C147.775 91.4 146.299 89.744 146.299 86.792V77.972C146.299 76.748 145.327 75.776 144.103 75.776C142.915 75.776 141.943 76.748 141.943 77.972V88.088C141.943 92.516 144.427 95.396 148.711 95.396C151.663 95.396 153.427 93.848 154.651 92.048V93.02C154.651 94.244 155.659 95.18 156.847 95.18C158.071 95.18 159.043 94.208 159.043 93.02V77.972ZM162.683 93.02C162.683 94.244 163.655 95.18 164.843 95.18C166.067 95.18 167.039 94.244 167.039 93.02V84.272C167.039 81.32 168.803 79.556 171.323 79.556C173.915 79.556 175.391 81.248 175.391 84.2V93.02C175.391 94.244 176.363 95.18 177.587 95.18C178.811 95.18 179.747 94.244 179.747 93.02V82.868C179.747 78.476 177.263 75.596 172.979 75.596C170.027 75.596 168.263 77.144 167.039 78.908V77.972C167.039 76.748 166.067 75.776 164.843 75.776C163.619 75.776 162.683 76.748 162.683 77.972V93.02ZM183.135 71.096C183.135 72.392 184.215 73.256 185.619 73.256C187.023 73.256 188.103 72.392 188.103 71.096V70.88C188.103 69.584 187.023 68.756 185.619 68.756C184.215 68.756 183.135 69.584 183.135 70.88V71.096ZM183.459 93.02C183.459 94.244 184.431 95.18 185.619 95.18C186.843 95.18 187.815 94.244 187.815 93.02V77.972C187.815 76.748 186.843 75.776 185.619 75.776C184.395 75.776 183.459 76.748 183.459 77.972V93.02ZM198.08 95.324C199.232 95.324 200.132 95.144 201.068 94.82C201.68 94.568 202.22 93.92 202.22 93.128C202.22 92.12 201.356 91.328 200.384 91.328C200.24 91.328 199.808 91.436 199.304 91.436C197.828 91.436 196.964 90.752 196.964 89.06V79.736H200.384C201.428 79.736 202.292 78.908 202.292 77.864C202.292 76.82 201.428 75.992 200.384 75.992H196.964V72.752C196.964 71.564 195.992 70.592 194.804 70.592C193.58 70.592 192.608 71.564 192.608 72.752V75.992H191.888C190.844 75.992 190.016 76.82 190.016 77.864C190.016 78.908 190.844 79.736 191.888 79.736H192.608V89.744C192.608 93.92 194.876 95.324 198.08 95.324ZM204.637 71.096C204.637 72.392 205.717 73.256 207.121 73.256C208.525 73.256 209.605 72.392 209.605 71.096V70.88C209.605 69.584 208.525 68.756 207.121 68.756C205.717 68.756 204.637 69.584 204.637 70.88V71.096ZM204.961 93.02C204.961 94.244 205.933 95.18 207.121 95.18C208.345 95.18 209.317 94.244 209.317 93.02V77.972C209.317 76.748 208.345 75.776 207.121 75.776C205.897 75.776 204.961 76.748 204.961 77.972V93.02ZM216.485 84.164C216.881 81.212 218.753 79.16 221.417 79.16C224.297 79.16 225.953 81.356 226.241 84.164H216.485ZM228.761 92.912C229.085 92.588 229.337 92.12 229.337 91.58C229.337 90.572 228.581 89.816 227.609 89.816C227.105 89.816 226.817 89.96 226.493 90.212C225.269 91.22 223.829 91.868 221.993 91.868C219.185 91.868 216.989 90.14 216.521 87.044H228.437C229.553 87.044 230.489 86.18 230.489 84.956C230.489 80.564 227.501 75.596 221.453 75.596C216.017 75.596 212.165 80.06 212.165 85.496V85.568C212.165 91.436 216.413 95.432 221.921 95.432C224.873 95.432 227.033 94.46 228.761 92.912ZM239.652 95.36C243.612 95.36 246.708 93.38 246.708 89.384V89.312C246.708 85.892 243.576 84.632 240.804 83.768C238.572 83.048 236.52 82.472 236.52 81.068V80.996C236.52 79.916 237.492 79.124 239.184 79.124C240.516 79.124 242.1 79.628 243.648 80.42C243.936 80.564 244.152 80.636 244.512 80.636C245.52 80.636 246.312 79.88 246.312 78.872C246.312 78.116 245.88 77.54 245.268 77.216C243.432 76.244 241.308 75.668 239.292 75.668C235.512 75.668 232.524 77.864 232.524 81.464V81.536C232.524 85.172 235.656 86.324 238.464 87.116C240.696 87.8 242.712 88.304 242.712 89.78V89.852C242.712 91.112 241.632 91.904 239.76 91.904C238.032 91.904 236.124 91.292 234.288 90.068C234.036 89.924 233.712 89.816 233.352 89.816C232.344 89.816 231.588 90.608 231.588 91.58C231.588 92.3 231.948 92.84 232.416 93.092C234.612 94.604 237.24 95.36 239.652 95.36Z" fill="#FF0000"/>
<g filter="url(#filter1_f)">
<path d="M33.264 95.432C41.004 95.432 46.476 89.492 46.476 82.4V82.328C46.476 75.236 41.076 69.368 33.336 69.368C25.596 69.368 20.124 75.308 20.124 82.4V82.472C20.124 89.564 25.524 95.432 33.264 95.432ZM33.336 91.328C28.332 91.328 24.768 87.296 24.768 82.4V82.328C24.768 77.432 28.26 73.436 33.264 73.436C38.268 73.436 41.832 77.504 41.832 82.4V82.472C41.832 87.368 38.34 91.328 33.336 91.328ZM49.5219 98.78C49.5219 100.004 50.4939 100.94 51.6819 100.94C52.9059 100.94 53.8779 100.004 53.8779 98.78V92.048C55.2099 93.812 57.1899 95.396 60.3579 95.396C64.8579 95.396 69.1779 91.832 69.1779 85.532V85.46C69.1779 79.124 64.8219 75.596 60.3579 75.596C57.2619 75.596 55.2819 77.18 53.8779 79.16V77.972C53.8779 76.748 52.9059 75.776 51.6819 75.776C50.4579 75.776 49.5219 76.748 49.5219 77.972V98.78ZM59.3139 91.616C56.3619 91.616 53.7699 89.168 53.7699 85.532V85.46C53.7699 81.824 56.3619 79.376 59.3139 79.376C62.2659 79.376 64.7499 81.788 64.7499 85.46V85.532C64.7499 89.276 62.3019 91.616 59.3139 91.616ZM71.8743 98.78C71.8743 100.004 72.8463 100.94 74.0343 100.94C75.2583 100.94 76.2303 100.004 76.2303 98.78V92.048C77.5623 93.812 79.5423 95.396 82.7103 95.396C87.2103 95.396 91.5303 91.832 91.5303 85.532V85.46C91.5303 79.124 87.1743 75.596 82.7103 75.596C79.6143 75.596 77.6343 77.18 76.2303 79.16V77.972C76.2303 76.748 75.2583 75.776 74.0343 75.776C72.8103 75.776 71.8743 76.748 71.8743 77.972V98.78ZM81.6663 91.616C78.7143 91.616 76.1223 89.168 76.1223 85.532V85.46C76.1223 81.824 78.7143 79.376 81.6663 79.376C84.6183 79.376 87.1023 81.788 87.1023 85.46V85.532C87.1023 89.276 84.6543 91.616 81.6663 91.616ZM103.263 95.432C109.131 95.432 113.451 90.932 113.451 85.532V85.46C113.451 80.024 109.167 75.596 103.335 75.596C97.5026 75.596 93.1826 80.096 93.1826 85.532V85.604C93.1826 91.004 97.4666 95.432 103.263 95.432ZM103.335 91.616C99.9506 91.616 97.5386 88.844 97.5386 85.532V85.46C97.5386 82.148 99.7706 79.412 103.263 79.412C106.683 79.412 109.095 82.184 109.095 85.532V85.604C109.095 88.88 106.863 91.616 103.335 91.616ZM116.087 93.02C116.087 94.244 117.059 95.18 118.247 95.18C119.471 95.18 120.443 94.208 120.443 93.02V87.404C120.443 82.904 122.567 80.528 125.663 79.988C126.635 79.808 127.391 79.052 127.391 77.9C127.391 76.64 126.599 75.74 125.231 75.74C123.323 75.74 121.451 77.54 120.443 79.916V77.972C120.443 76.748 119.471 75.776 118.247 75.776C117.023 75.776 116.087 76.748 116.087 77.972V93.02ZM135.53 95.324C136.682 95.324 137.582 95.144 138.518 94.82C139.13 94.568 139.67 93.92 139.67 93.128C139.67 92.12 138.806 91.328 137.834 91.328C137.69 91.328 137.258 91.436 136.754 91.436C135.278 91.436 134.414 90.752 134.414 89.06V79.736H137.834C138.878 79.736 139.742 78.908 139.742 77.864C139.742 76.82 138.878 75.992 137.834 75.992H134.414V72.752C134.414 71.564 133.442 70.592 132.254 70.592C131.03 70.592 130.058 71.564 130.058 72.752V75.992H129.338C128.294 75.992 127.466 76.82 127.466 77.864C127.466 78.908 128.294 79.736 129.338 79.736H130.058V89.744C130.058 93.92 132.326 95.324 135.53 95.324ZM159.043 77.972C159.043 76.748 158.035 75.776 156.847 75.776C155.623 75.776 154.651 76.748 154.651 77.972V86.72C154.651 89.672 152.887 91.4 150.367 91.4C147.775 91.4 146.299 89.744 146.299 86.792V77.972C146.299 76.748 145.327 75.776 144.103 75.776C142.915 75.776 141.943 76.748 141.943 77.972V88.088C141.943 92.516 144.427 95.396 148.711 95.396C151.663 95.396 153.427 93.848 154.651 92.048V93.02C154.651 94.244 155.659 95.18 156.847 95.18C158.071 95.18 159.043 94.208 159.043 93.02V77.972ZM162.683 93.02C162.683 94.244 163.655 95.18 164.843 95.18C166.067 95.18 167.039 94.244 167.039 93.02V84.272C167.039 81.32 168.803 79.556 171.323 79.556C173.915 79.556 175.391 81.248 175.391 84.2V93.02C175.391 94.244 176.363 95.18 177.587 95.18C178.811 95.18 179.747 94.244 179.747 93.02V82.868C179.747 78.476 177.263 75.596 172.979 75.596C170.027 75.596 168.263 77.144 167.039 78.908V77.972C167.039 76.748 166.067 75.776 164.843 75.776C163.619 75.776 162.683 76.748 162.683 77.972V93.02ZM183.135 71.096C183.135 72.392 184.215 73.256 185.619 73.256C187.023 73.256 188.103 72.392 188.103 71.096V70.88C188.103 69.584 187.023 68.756 185.619 68.756C184.215 68.756 183.135 69.584 183.135 70.88V71.096ZM183.459 93.02C183.459 94.244 184.431 95.18 185.619 95.18C186.843 95.18 187.815 94.244 187.815 93.02V77.972C187.815 76.748 186.843 75.776 185.619 75.776C184.395 75.776 183.459 76.748 183.459 77.972V93.02ZM198.08 95.324C199.232 95.324 200.132 95.144 201.068 94.82C201.68 94.568 202.22 93.92 202.22 93.128C202.22 92.12 201.356 91.328 200.384 91.328C200.24 91.328 199.808 91.436 199.304 91.436C197.828 91.436 196.964 90.752 196.964 89.06V79.736H200.384C201.428 79.736 202.292 78.908 202.292 77.864C202.292 76.82 201.428 75.992 200.384 75.992H196.964V72.752C196.964 71.564 195.992 70.592 194.804 70.592C193.58 70.592 192.608 71.564 192.608 72.752V75.992H191.888C190.844 75.992 190.016 76.82 190.016 77.864C190.016 78.908 190.844 79.736 191.888 79.736H192.608V89.744C192.608 93.92 194.876 95.324 198.08 95.324ZM204.637 71.096C204.637 72.392 205.717 73.256 207.121 73.256C208.525 73.256 209.605 72.392 209.605 71.096V70.88C209.605 69.584 208.525 68.756 207.121 68.756C205.717 68.756 204.637 69.584 204.637 70.88V71.096ZM204.961 93.02C204.961 94.244 205.933 95.18 207.121 95.18C208.345 95.18 209.317 94.244 209.317 93.02V77.972C209.317 76.748 208.345 75.776 207.121 75.776C205.897 75.776 204.961 76.748 204.961 77.972V93.02ZM216.485 84.164C216.881 81.212 218.753 79.16 221.417 79.16C224.297 79.16 225.953 81.356 226.241 84.164H216.485ZM228.761 92.912C229.085 92.588 229.337 92.12 229.337 91.58C229.337 90.572 228.581 89.816 227.609 89.816C227.105 89.816 226.817 89.96 226.493 90.212C225.269 91.22 223.829 91.868 221.993 91.868C219.185 91.868 216.989 90.14 216.521 87.044H228.437C229.553 87.044 230.489 86.18 230.489 84.956C230.489 80.564 227.501 75.596 221.453 75.596C216.017 75.596 212.165 80.06 212.165 85.496V85.568C212.165 91.436 216.413 95.432 221.921 95.432C224.873 95.432 227.033 94.46 228.761 92.912ZM239.652 95.36C243.612 95.36 246.708 93.38 246.708 89.384V89.312C246.708 85.892 243.576 84.632 240.804 83.768C238.572 83.048 236.52 82.472 236.52 81.068V80.996C236.52 79.916 237.492 79.124 239.184 79.124C240.516 79.124 242.1 79.628 243.648 80.42C243.936 80.564 244.152 80.636 244.512 80.636C245.52 80.636 246.312 79.88 246.312 78.872C246.312 78.116 245.88 77.54 245.268 77.216C243.432 76.244 241.308 75.668 239.292 75.668C235.512 75.668 232.524 77.864 232.524 81.464V81.536C232.524 85.172 235.656 86.324 238.464 87.116C240.696 87.8 242.712 88.304 242.712 89.78V89.852C242.712 91.112 241.632 91.904 239.76 91.904C238.032 91.904 236.124 91.292 234.288 90.068C234.036 89.924 233.712 89.816 233.352 89.816C232.344 89.816 231.588 90.608 231.588 91.58C231.588 92.3 231.948 92.84 232.416 93.092C234.612 94.604 237.24 95.36 239.652 95.36Z" fill="#FF0000"/>
</g>
<defs>
<filter id="filter0_f" x="1.24023" y="0.540039" width="342.573" height="72.292" filterUnits="userSpaceOnUse" color-interpolation-filters="sRGB">
<feFlood flood-opacity="0" result="BackgroundImageFix"/>
<feBlend mode="normal" in="SourceGraphic" in2="BackgroundImageFix" result="shape"/>
<feGaussianBlur stdDeviation="10" result="effect1_foregroundBlur"/>
</filter>
<filter id="filter1_f" x="0.124023" y="48.7559" width="266.584" height="72.184" filterUnits="userSpaceOnUse" color-interpolation-filters="sRGB">
<feFlood flood-opacity="0" result="BackgroundImageFix"/>
<feBlend mode="normal" in="SourceGraphic" in2="BackgroundImageFix" result="shape"/>
<feGaussianBlur stdDeviation="10" result="effect1_foregroundBlur"/>
</filter>
</defs>
</svg>
