<svg width="542" height="121" viewBox="0 0 542 121" fill="none" xmlns="http://www.w3.org/2000/svg">
<path d="M29.332 49.984C29.332 51.208 30.304 52.18 31.528 52.18C32.788 52.18 33.76 51.208 33.76 49.984V42.1L42.364 30.328C42.688 29.896 42.976 29.356 42.976 28.744C42.976 27.556 42.112 26.584 40.816 26.584C39.88 26.584 39.232 27.124 38.692 27.916L31.564 38.068L24.544 27.952C24.004 27.16 23.356 26.62 22.384 26.62C21.124 26.62 20.152 27.556 20.152 28.744C20.152 29.356 20.368 29.86 20.656 30.292L29.332 42.208V49.984ZM44.2273 28.096C44.2273 29.392 45.3073 30.256 46.7113 30.256C48.1153 30.256 49.1953 29.392 49.1953 28.096V27.88C49.1953 26.584 48.1153 25.756 46.7113 25.756C45.3073 25.756 44.2273 26.584 44.2273 27.88V28.096ZM44.5513 50.02C44.5513 51.244 45.5233 52.18 46.7113 52.18C47.9353 52.18 48.9073 51.244 48.9073 50.02V34.972C48.9073 33.748 47.9353 32.776 46.7113 32.776C45.4873 32.776 44.5513 33.748 44.5513 34.972V50.02ZM56.0761 41.164C56.4721 38.212 58.3441 36.16 61.0081 36.16C63.8881 36.16 65.5441 38.356 65.8321 41.164H56.0761ZM68.3521 49.912C68.6761 49.588 68.9281 49.12 68.9281 48.58C68.9281 47.572 68.1721 46.816 67.2001 46.816C66.6961 46.816 66.4081 46.96 66.0841 47.212C64.8601 48.22 63.4201 48.868 61.5841 48.868C58.7761 48.868 56.5801 47.14 56.1121 44.044H68.0281C69.1441 44.044 70.0801 43.18 70.0801 41.956C70.0801 37.564 67.0921 32.596 61.0441 32.596C55.6081 32.596 51.7561 37.06 51.7561 42.496V42.568C51.7561 48.436 56.0041 52.432 61.5121 52.432C64.4641 52.432 66.6241 51.46 68.3521 49.912ZM72.9786 50.02C72.9786 51.244 73.9506 52.18 75.1386 52.18C76.3626 52.18 77.3346 51.244 77.3346 50.02V27.7C77.3346 26.512 76.3626 25.54 75.1386 25.54C73.9146 25.54 72.9786 26.512 72.9786 27.7V50.02ZM99.9114 27.7C99.9114 26.476 98.9394 25.54 97.7154 25.54C96.5274 25.54 95.5554 26.476 95.5554 27.7V35.944C94.1874 34.144 92.2074 32.596 89.0754 32.596C84.5394 32.596 80.2554 36.16 80.2554 42.46V42.532C80.2554 48.832 84.6114 52.396 89.0754 52.396C92.1714 52.396 94.1514 50.812 95.5554 48.832V50.02C95.5554 51.244 96.5274 52.18 97.7514 52.18C98.9394 52.18 99.9114 51.244 99.9114 50.02V27.7ZM90.1194 36.376C93.0354 36.376 95.6274 38.788 95.6274 42.46V42.532C95.6274 46.168 93.0354 48.616 90.1194 48.616C87.1674 48.616 84.6474 46.204 84.6474 42.532V42.46C84.6474 38.68 87.1314 36.376 90.1194 36.376ZM125.029 52.432C128.809 52.432 131.833 51.136 133.993 49.696C135.037 49.048 135.541 48.148 135.541 46.888V40.156C135.541 38.896 134.569 37.924 133.309 37.924H126.289C125.209 37.924 124.309 38.788 124.309 39.868C124.309 40.948 125.209 41.776 126.289 41.776H131.257V46.492C129.709 47.644 127.549 48.4 125.173 48.4C120.025 48.4 116.605 44.584 116.605 39.4V39.328C116.605 34.504 120.133 30.436 124.777 30.436C127.513 30.436 129.277 31.228 130.897 32.416C131.257 32.668 131.689 32.92 132.265 32.92C133.489 32.92 134.461 31.912 134.461 30.724C134.461 29.86 133.993 29.248 133.561 28.924C131.257 27.268 128.737 26.368 124.957 26.368C117.361 26.368 111.961 32.344 111.961 39.4V39.472C111.961 46.816 117.145 52.432 125.029 52.432ZM142.279 41.164C142.675 38.212 144.547 36.16 147.211 36.16C150.091 36.16 151.747 38.356 152.035 41.164H142.279ZM154.555 49.912C154.879 49.588 155.131 49.12 155.131 48.58C155.131 47.572 154.375 46.816 153.403 46.816C152.899 46.816 152.611 46.96 152.287 47.212C151.063 48.22 149.623 48.868 147.787 48.868C144.979 48.868 142.783 47.14 142.315 44.044H154.231C155.347 44.044 156.283 43.18 156.283 41.956C156.283 37.564 153.295 32.596 147.247 32.596C141.811 32.596 137.959 37.06 137.959 42.496V42.568C137.959 48.436 142.207 52.432 147.715 52.432C150.667 52.432 152.827 51.46 154.555 49.912ZM158.93 50.02C158.93 51.244 159.902 52.18 161.09 52.18C162.314 52.18 163.286 51.244 163.286 50.02V41.272C163.286 38.32 165.05 36.556 167.57 36.556C170.162 36.556 171.638 38.248 171.638 41.2V50.02C171.638 51.244 172.61 52.18 173.834 52.18C175.058 52.18 175.994 51.244 175.994 50.02V39.868C175.994 35.476 173.51 32.596 169.226 32.596C166.274 32.596 164.51 34.144 163.286 35.908V34.972C163.286 33.748 162.314 32.776 161.09 32.776C159.866 32.776 158.93 33.748 158.93 34.972V50.02ZM182.73 41.164C183.126 38.212 184.998 36.16 187.662 36.16C190.542 36.16 192.198 38.356 192.486 41.164H182.73ZM195.006 49.912C195.33 49.588 195.582 49.12 195.582 48.58C195.582 47.572 194.826 46.816 193.854 46.816C193.35 46.816 193.062 46.96 192.738 47.212C191.514 48.22 190.074 48.868 188.238 48.868C185.43 48.868 183.234 47.14 182.766 44.044H194.682C195.798 44.044 196.734 43.18 196.734 41.956C196.734 37.564 193.746 32.596 187.698 32.596C182.262 32.596 178.41 37.06 178.41 42.496V42.568C178.41 48.436 182.658 52.432 188.166 52.432C191.118 52.432 193.278 51.46 195.006 49.912ZM199.381 50.02C199.381 51.244 200.353 52.18 201.541 52.18C202.765 52.18 203.737 51.208 203.737 50.02V44.404C203.737 39.904 205.861 37.528 208.957 36.988C209.929 36.808 210.685 36.052 210.685 34.9C210.685 33.64 209.893 32.74 208.525 32.74C206.617 32.74 204.745 34.54 203.737 36.916V34.972C203.737 33.748 202.765 32.776 201.541 32.776C200.317 32.776 199.381 33.748 199.381 34.972V50.02ZM217.01 52.396C219.926 52.396 221.906 51.172 223.202 49.624V50.344C223.202 51.316 224.066 52.18 225.326 52.18C226.514 52.18 227.45 51.28 227.45 50.092V40.732C227.45 38.248 226.802 36.232 225.398 34.864C224.066 33.496 221.942 32.74 219.098 32.74C216.614 32.74 214.778 33.172 212.978 33.856C212.33 34.108 211.79 34.792 211.79 35.584C211.79 36.592 212.618 37.384 213.626 37.384C213.842 37.384 214.058 37.348 214.31 37.276C215.498 36.808 216.866 36.52 218.522 36.52C221.582 36.52 223.238 37.96 223.238 40.66V41.128C221.762 40.66 220.25 40.336 218.126 40.336C213.482 40.336 210.278 42.352 210.278 46.456V46.528C210.278 50.344 213.446 52.396 217.01 52.396ZM218.234 49.228C216.146 49.228 214.526 48.184 214.526 46.348V46.276C214.526 44.296 216.182 43.108 218.99 43.108C220.718 43.108 222.194 43.432 223.31 43.864V45.16C223.31 47.572 221.114 49.228 218.234 49.228ZM237.063 52.324C238.215 52.324 239.115 52.144 240.051 51.82C240.663 51.568 241.203 50.92 241.203 50.128C241.203 49.12 240.339 48.328 239.367 48.328C239.223 48.328 238.791 48.436 238.287 48.436C236.811 48.436 235.947 47.752 235.947 46.06V36.736H239.367C240.411 36.736 241.275 35.908 241.275 34.864C241.275 33.82 240.411 32.992 239.367 32.992H235.947V29.752C235.947 28.564 234.975 27.592 233.787 27.592C232.563 27.592 231.591 28.564 231.591 29.752V32.992H230.871C229.827 32.992 228.999 33.82 228.999 34.864C228.999 35.908 229.827 36.736 230.871 36.736H231.591V46.744C231.591 50.92 233.859 52.324 237.063 52.324ZM243.619 28.096C243.619 29.392 244.699 30.256 246.103 30.256C247.507 30.256 248.587 29.392 248.587 28.096V27.88C248.587 26.584 247.507 25.756 246.103 25.756C244.699 25.756 243.619 26.584 243.619 27.88V28.096ZM243.943 50.02C243.943 51.244 244.915 52.18 246.103 52.18C247.327 52.18 248.299 51.244 248.299 50.02V34.972C248.299 33.748 247.327 32.776 246.103 32.776C244.879 32.776 243.943 33.748 243.943 34.972V50.02ZM252.192 50.02C252.192 51.244 253.164 52.18 254.352 52.18C255.576 52.18 256.548 51.244 256.548 50.02V41.272C256.548 38.32 258.312 36.556 260.832 36.556C263.424 36.556 264.9 38.248 264.9 41.2V50.02C264.9 51.244 265.872 52.18 267.096 52.18C268.32 52.18 269.256 51.244 269.256 50.02V39.868C269.256 35.476 266.772 32.596 262.488 32.596C259.536 32.596 257.772 34.144 256.548 35.908V34.972C256.548 33.748 255.576 32.776 254.352 32.776C253.128 32.776 252.192 33.748 252.192 34.972V50.02ZM281.176 57.832C284.596 57.832 287.26 57.004 288.988 55.276C290.572 53.692 291.4 51.316 291.4 48.112V34.972C291.4 33.748 290.428 32.776 289.204 32.776C288.016 32.776 287.044 33.748 287.044 34.936V35.836C285.568 34.072 283.588 32.596 280.384 32.596C275.956 32.596 271.744 35.908 271.744 41.524V41.596C271.744 47.176 275.92 50.488 280.384 50.488C283.516 50.488 285.496 49.048 287.08 46.996V48.472C287.08 52.288 284.956 54.304 281.068 54.304C278.872 54.304 276.964 53.764 275.236 52.792C275.02 52.684 274.768 52.612 274.444 52.612C273.436 52.612 272.608 53.44 272.608 54.412C272.608 55.24 273.076 55.852 273.832 56.14C276.136 57.256 278.512 57.832 281.176 57.832ZM281.536 46.78C278.548 46.78 276.136 44.656 276.136 41.56V41.488C276.136 38.356 278.512 36.268 281.536 36.268C284.56 36.268 287.116 38.392 287.116 41.488V41.56C287.116 44.656 284.56 46.78 281.536 46.78ZM304.566 49.984C304.566 51.208 305.538 52.18 306.798 52.18C308.022 52.18 308.994 51.208 308.994 49.984V43.9H313.998C319.542 43.9 324.078 40.948 324.078 35.296V35.224C324.078 30.148 320.406 26.8 314.502 26.8H306.798C305.538 26.8 304.566 27.772 304.566 29.032V49.984ZM308.994 39.904V30.832H314.142C317.454 30.832 319.578 32.38 319.578 35.332V35.404C319.578 38.032 317.49 39.904 314.142 39.904H308.994ZM335.169 52.432C341.037 52.432 345.357 47.932 345.357 42.532V42.46C345.357 37.024 341.073 32.596 335.241 32.596C329.409 32.596 325.089 37.096 325.089 42.532V42.604C325.089 48.004 329.373 52.432 335.169 52.432ZM335.241 48.616C331.857 48.616 329.445 45.844 329.445 42.532V42.46C329.445 39.148 331.677 36.412 335.169 36.412C338.589 36.412 341.001 39.184 341.001 42.532V42.604C341.001 45.88 338.769 48.616 335.241 48.616ZM347.993 50.02C347.993 51.244 348.965 52.18 350.153 52.18C351.377 52.18 352.349 51.208 352.349 50.02V44.404C352.349 39.904 354.473 37.528 357.569 36.988C358.541 36.808 359.297 36.052 359.297 34.9C359.297 33.64 358.505 32.74 357.137 32.74C355.229 32.74 353.357 34.54 352.349 36.916V34.972C352.349 33.748 351.377 32.776 350.153 32.776C348.929 32.776 347.993 33.748 347.993 34.972V50.02ZM367.436 52.324C368.588 52.324 369.488 52.144 370.424 51.82C371.036 51.568 371.576 50.92 371.576 50.128C371.576 49.12 370.712 48.328 369.74 48.328C369.596 48.328 369.164 48.436 368.66 48.436C367.184 48.436 366.32 47.752 366.32 46.06V36.736H369.74C370.784 36.736 371.648 35.908 371.648 34.864C371.648 33.82 370.784 32.992 369.74 32.992H366.32V29.752C366.32 28.564 365.348 27.592 364.16 27.592C362.936 27.592 361.964 28.564 361.964 29.752V32.992H361.244C360.2 32.992 359.372 33.82 359.372 34.864C359.372 35.908 360.2 36.736 361.244 36.736H361.964V46.744C361.964 50.92 364.232 52.324 367.436 52.324ZM375.037 50.02C375.037 51.208 376.009 52.18 377.197 52.18C378.421 52.18 379.393 51.208 379.393 50.02V36.736H382.705C383.713 36.736 384.541 35.944 384.541 34.936C384.541 33.928 383.749 33.136 382.705 33.136H379.321V32.092C379.321 30.112 380.185 29.212 381.841 29.212C382.129 29.212 382.489 29.248 382.741 29.284C383.749 29.32 384.577 28.492 384.577 27.484C384.577 26.512 383.857 25.792 383.065 25.684C382.453 25.576 381.733 25.504 380.869 25.504C378.997 25.504 377.593 26.008 376.585 27.016C375.577 28.024 375.037 29.608 375.037 31.696V33.1H374.281C373.273 33.1 372.445 33.928 372.445 34.936C372.445 35.944 373.273 36.736 374.281 36.736H375.037V50.02ZM394.484 52.432C400.352 52.432 404.672 47.932 404.672 42.532V42.46C404.672 37.024 400.388 32.596 394.556 32.596C388.724 32.596 384.404 37.096 384.404 42.532V42.604C384.404 48.004 388.688 52.432 394.484 52.432ZM394.556 48.616C391.172 48.616 388.76 45.844 388.76 42.532V42.46C388.76 39.148 390.992 36.412 394.484 36.412C397.904 36.412 400.316 39.184 400.316 42.532V42.604C400.316 45.88 398.084 48.616 394.556 48.616ZM407.561 50.02C407.561 51.244 408.533 52.18 409.721 52.18C410.945 52.18 411.917 51.244 411.917 50.02V27.7C411.917 26.512 410.945 25.54 409.721 25.54C408.497 25.54 407.561 26.512 407.561 27.7V50.02ZM415.737 28.096C415.737 29.392 416.817 30.256 418.221 30.256C419.625 30.256 420.705 29.392 420.705 28.096V27.88C420.705 26.584 419.625 25.756 418.221 25.756C416.817 25.756 415.737 26.584 415.737 27.88V28.096ZM416.061 50.02C416.061 51.244 417.033 52.18 418.221 52.18C419.445 52.18 420.417 51.244 420.417 50.02V34.972C420.417 33.748 419.445 32.776 418.221 32.776C416.997 32.776 416.061 33.748 416.061 34.972V50.02ZM433.346 52.432C439.214 52.432 443.534 47.932 443.534 42.532V42.46C443.534 37.024 439.25 32.596 433.418 32.596C427.586 32.596 423.266 37.096 423.266 42.532V42.604C423.266 48.004 427.55 52.432 433.346 52.432ZM433.418 48.616C430.034 48.616 427.622 45.844 427.622 42.532V42.46C427.622 39.148 429.854 36.412 433.346 36.412C436.766 36.412 439.178 39.184 439.178 42.532V42.604C439.178 45.88 436.946 48.616 433.418 48.616ZM452.686 52.36C456.646 52.36 459.742 50.38 459.742 46.384V46.312C459.742 42.892 456.61 41.632 453.838 40.768C451.606 40.048 449.554 39.472 449.554 38.068V37.996C449.554 36.916 450.526 36.124 452.218 36.124C453.55 36.124 455.134 36.628 456.682 37.42C456.97 37.564 457.186 37.636 457.546 37.636C458.554 37.636 459.346 36.88 459.346 35.872C459.346 35.116 458.914 34.54 458.302 34.216C456.466 33.244 454.342 32.668 452.326 32.668C448.546 32.668 445.558 34.864 445.558 38.464V38.536C445.558 42.172 448.69 43.324 451.498 44.116C453.73 44.8 455.746 45.304 455.746 46.78V46.852C455.746 48.112 454.666 48.904 452.794 48.904C451.066 48.904 449.158 48.292 447.322 47.068C447.07 46.924 446.746 46.816 446.386 46.816C445.378 46.816 444.622 47.608 444.622 48.58C444.622 49.3 444.982 49.84 445.45 50.092C447.646 51.604 450.274 52.36 452.686 52.36Z" fill="black"/>
<path d="M29.332 44.984C29.332 46.208 30.304 47.18 31.528 47.18C32.788 47.18 33.76 46.208 33.76 44.984V37.1L42.364 25.328C42.688 24.896 42.976 24.356 42.976 23.744C42.976 22.556 42.112 21.584 40.816 21.584C39.88 21.584 39.232 22.124 38.692 22.916L31.564 33.068L24.544 22.952C24.004 22.16 23.356 21.62 22.384 21.62C21.124 21.62 20.152 22.556 20.152 23.744C20.152 24.356 20.368 24.86 20.656 25.292L29.332 37.208V44.984ZM44.2273 23.096C44.2273 24.392 45.3073 25.256 46.7113 25.256C48.1153 25.256 49.1953 24.392 49.1953 23.096V22.88C49.1953 21.584 48.1153 20.756 46.7113 20.756C45.3073 20.756 44.2273 21.584 44.2273 22.88V23.096ZM44.5513 45.02C44.5513 46.244 45.5233 47.18 46.7113 47.18C47.9353 47.18 48.9073 46.244 48.9073 45.02V29.972C48.9073 28.748 47.9353 27.776 46.7113 27.776C45.4873 27.776 44.5513 28.748 44.5513 29.972V45.02ZM56.0761 36.164C56.4721 33.212 58.3441 31.16 61.0081 31.16C63.8881 31.16 65.5441 33.356 65.8321 36.164H56.0761ZM68.3521 44.912C68.6761 44.588 68.9281 44.12 68.9281 43.58C68.9281 42.572 68.1721 41.816 67.2001 41.816C66.6961 41.816 66.4081 41.96 66.0841 42.212C64.8601 43.22 63.4201 43.868 61.5841 43.868C58.7761 43.868 56.5801 42.14 56.1121 39.044H68.0281C69.1441 39.044 70.0801 38.18 70.0801 36.956C70.0801 32.564 67.0921 27.596 61.0441 27.596C55.6081 27.596 51.7561 32.06 51.7561 37.496V37.568C51.7561 43.436 56.0041 47.432 61.5121 47.432C64.4641 47.432 66.6241 46.46 68.3521 44.912ZM72.9786 45.02C72.9786 46.244 73.9506 47.18 75.1386 47.18C76.3626 47.18 77.3346 46.244 77.3346 45.02V22.7C77.3346 21.512 76.3626 20.54 75.1386 20.54C73.9146 20.54 72.9786 21.512 72.9786 22.7V45.02ZM99.9114 22.7C99.9114 21.476 98.9394 20.54 97.7154 20.54C96.5274 20.54 95.5554 21.476 95.5554 22.7V30.944C94.1874 29.144 92.2074 27.596 89.0754 27.596C84.5394 27.596 80.2554 31.16 80.2554 37.46V37.532C80.2554 43.832 84.6114 47.396 89.0754 47.396C92.1714 47.396 94.1514 45.812 95.5554 43.832V45.02C95.5554 46.244 96.5274 47.18 97.7514 47.18C98.9394 47.18 99.9114 46.244 99.9114 45.02V22.7ZM90.1194 31.376C93.0354 31.376 95.6274 33.788 95.6274 37.46V37.532C95.6274 41.168 93.0354 43.616 90.1194 43.616C87.1674 43.616 84.6474 41.204 84.6474 37.532V37.46C84.6474 33.68 87.1314 31.376 90.1194 31.376ZM125.029 47.432C128.809 47.432 131.833 46.136 133.993 44.696C135.037 44.048 135.541 43.148 135.541 41.888V35.156C135.541 33.896 134.569 32.924 133.309 32.924H126.289C125.209 32.924 124.309 33.788 124.309 34.868C124.309 35.948 125.209 36.776 126.289 36.776H131.257V41.492C129.709 42.644 127.549 43.4 125.173 43.4C120.025 43.4 116.605 39.584 116.605 34.4V34.328C116.605 29.504 120.133 25.436 124.777 25.436C127.513 25.436 129.277 26.228 130.897 27.416C131.257 27.668 131.689 27.92 132.265 27.92C133.489 27.92 134.461 26.912 134.461 25.724C134.461 24.86 133.993 24.248 133.561 23.924C131.257 22.268 128.737 21.368 124.957 21.368C117.361 21.368 111.961 27.344 111.961 34.4V34.472C111.961 41.816 117.145 47.432 125.029 47.432ZM142.279 36.164C142.675 33.212 144.547 31.16 147.211 31.16C150.091 31.16 151.747 33.356 152.035 36.164H142.279ZM154.555 44.912C154.879 44.588 155.131 44.12 155.131 43.58C155.131 42.572 154.375 41.816 153.403 41.816C152.899 41.816 152.611 41.96 152.287 42.212C151.063 43.22 149.623 43.868 147.787 43.868C144.979 43.868 142.783 42.14 142.315 39.044H154.231C155.347 39.044 156.283 38.18 156.283 36.956C156.283 32.564 153.295 27.596 147.247 27.596C141.811 27.596 137.959 32.06 137.959 37.496V37.568C137.959 43.436 142.207 47.432 147.715 47.432C150.667 47.432 152.827 46.46 154.555 44.912ZM158.93 45.02C158.93 46.244 159.902 47.18 161.09 47.18C162.314 47.18 163.286 46.244 163.286 45.02V36.272C163.286 33.32 165.05 31.556 167.57 31.556C170.162 31.556 171.638 33.248 171.638 36.2V45.02C171.638 46.244 172.61 47.18 173.834 47.18C175.058 47.18 175.994 46.244 175.994 45.02V34.868C175.994 30.476 173.51 27.596 169.226 27.596C166.274 27.596 164.51 29.144 163.286 30.908V29.972C163.286 28.748 162.314 27.776 161.09 27.776C159.866 27.776 158.93 28.748 158.93 29.972V45.02ZM182.73 36.164C183.126 33.212 184.998 31.16 187.662 31.16C190.542 31.16 192.198 33.356 192.486 36.164H182.73ZM195.006 44.912C195.33 44.588 195.582 44.12 195.582 43.58C195.582 42.572 194.826 41.816 193.854 41.816C193.35 41.816 193.062 41.96 192.738 42.212C191.514 43.22 190.074 43.868 188.238 43.868C185.43 43.868 183.234 42.14 182.766 39.044H194.682C195.798 39.044 196.734 38.18 196.734 36.956C196.734 32.564 193.746 27.596 187.698 27.596C182.262 27.596 178.41 32.06 178.41 37.496V37.568C178.41 43.436 182.658 47.432 188.166 47.432C191.118 47.432 193.278 46.46 195.006 44.912ZM199.381 45.02C199.381 46.244 200.353 47.18 201.541 47.18C202.765 47.18 203.737 46.208 203.737 45.02V39.404C203.737 34.904 205.861 32.528 208.957 31.988C209.929 31.808 210.685 31.052 210.685 29.9C210.685 28.64 209.893 27.74 208.525 27.74C206.617 27.74 204.745 29.54 203.737 31.916V29.972C203.737 28.748 202.765 27.776 201.541 27.776C200.317 27.776 199.381 28.748 199.381 29.972V45.02ZM217.01 47.396C219.926 47.396 221.906 46.172 223.202 44.624V45.344C223.202 46.316 224.066 47.18 225.326 47.18C226.514 47.18 227.45 46.28 227.45 45.092V35.732C227.45 33.248 226.802 31.232 225.398 29.864C224.066 28.496 221.942 27.74 219.098 27.74C216.614 27.74 214.778 28.172 212.978 28.856C212.33 29.108 211.79 29.792 211.79 30.584C211.79 31.592 212.618 32.384 213.626 32.384C213.842 32.384 214.058 32.348 214.31 32.276C215.498 31.808 216.866 31.52 218.522 31.52C221.582 31.52 223.238 32.96 223.238 35.66V36.128C221.762 35.66 220.25 35.336 218.126 35.336C213.482 35.336 210.278 37.352 210.278 41.456V41.528C210.278 45.344 213.446 47.396 217.01 47.396ZM218.234 44.228C216.146 44.228 214.526 43.184 214.526 41.348V41.276C214.526 39.296 216.182 38.108 218.99 38.108C220.718 38.108 222.194 38.432 223.31 38.864V40.16C223.31 42.572 221.114 44.228 218.234 44.228ZM237.063 47.324C238.215 47.324 239.115 47.144 240.051 46.82C240.663 46.568 241.203 45.92 241.203 45.128C241.203 44.12 240.339 43.328 239.367 43.328C239.223 43.328 238.791 43.436 238.287 43.436C236.811 43.436 235.947 42.752 235.947 41.06V31.736H239.367C240.411 31.736 241.275 30.908 241.275 29.864C241.275 28.82 240.411 27.992 239.367 27.992H235.947V24.752C235.947 23.564 234.975 22.592 233.787 22.592C232.563 22.592 231.591 23.564 231.591 24.752V27.992H230.871C229.827 27.992 228.999 28.82 228.999 29.864C228.999 30.908 229.827 31.736 230.871 31.736H231.591V41.744C231.591 45.92 233.859 47.324 237.063 47.324ZM243.619 23.096C243.619 24.392 244.699 25.256 246.103 25.256C247.507 25.256 248.587 24.392 248.587 23.096V22.88C248.587 21.584 247.507 20.756 246.103 20.756C244.699 20.756 243.619 21.584 243.619 22.88V23.096ZM243.943 45.02C243.943 46.244 244.915 47.18 246.103 47.18C247.327 47.18 248.299 46.244 248.299 45.02V29.972C248.299 28.748 247.327 27.776 246.103 27.776C244.879 27.776 243.943 28.748 243.943 29.972V45.02ZM252.192 45.02C252.192 46.244 253.164 47.18 254.352 47.18C255.576 47.18 256.548 46.244 256.548 45.02V36.272C256.548 33.32 258.312 31.556 260.832 31.556C263.424 31.556 264.9 33.248 264.9 36.2V45.02C264.9 46.244 265.872 47.18 267.096 47.18C268.32 47.18 269.256 46.244 269.256 45.02V34.868C269.256 30.476 266.772 27.596 262.488 27.596C259.536 27.596 257.772 29.144 256.548 30.908V29.972C256.548 28.748 255.576 27.776 254.352 27.776C253.128 27.776 252.192 28.748 252.192 29.972V45.02ZM281.176 52.832C284.596 52.832 287.26 52.004 288.988 50.276C290.572 48.692 291.4 46.316 291.4 43.112V29.972C291.4 28.748 290.428 27.776 289.204 27.776C288.016 27.776 287.044 28.748 287.044 29.936V30.836C285.568 29.072 283.588 27.596 280.384 27.596C275.956 27.596 271.744 30.908 271.744 36.524V36.596C271.744 42.176 275.92 45.488 280.384 45.488C283.516 45.488 285.496 44.048 287.08 41.996V43.472C287.08 47.288 284.956 49.304 281.068 49.304C278.872 49.304 276.964 48.764 275.236 47.792C275.02 47.684 274.768 47.612 274.444 47.612C273.436 47.612 272.608 48.44 272.608 49.412C272.608 50.24 273.076 50.852 273.832 51.14C276.136 52.256 278.512 52.832 281.176 52.832ZM281.536 41.78C278.548 41.78 276.136 39.656 276.136 36.56V36.488C276.136 33.356 278.512 31.268 281.536 31.268C284.56 31.268 287.116 33.392 287.116 36.488V36.56C287.116 39.656 284.56 41.78 281.536 41.78Z" fill="#FF0000"/>
<path d="M304.566 44.984C304.566 46.208 305.538 47.18 306.798 47.18C308.022 47.18 308.994 46.208 308.994 44.984V38.9H313.998C319.542 38.9 324.078 35.948 324.078 30.296V30.224C324.078 25.148 320.406 21.8 314.502 21.8H306.798C305.538 21.8 304.566 22.772 304.566 24.032V44.984ZM308.994 34.904V25.832H314.142C317.454 25.832 319.578 27.38 319.578 30.332V30.404C319.578 33.032 317.49 34.904 314.142 34.904H308.994ZM335.169 47.432C341.037 47.432 345.357 42.932 345.357 37.532V37.46C345.357 32.024 341.073 27.596 335.241 27.596C329.409 27.596 325.089 32.096 325.089 37.532V37.604C325.089 43.004 329.373 47.432 335.169 47.432ZM335.241 43.616C331.857 43.616 329.445 40.844 329.445 37.532V37.46C329.445 34.148 331.677 31.412 335.169 31.412C338.589 31.412 341.001 34.184 341.001 37.532V37.604C341.001 40.88 338.769 43.616 335.241 43.616ZM347.993 45.02C347.993 46.244 348.965 47.18 350.153 47.18C351.377 47.18 352.349 46.208 352.349 45.02V39.404C352.349 34.904 354.473 32.528 357.569 31.988C358.541 31.808 359.297 31.052 359.297 29.9C359.297 28.64 358.505 27.74 357.137 27.74C355.229 27.74 353.357 29.54 352.349 31.916V29.972C352.349 28.748 351.377 27.776 350.153 27.776C348.929 27.776 347.993 28.748 347.993 29.972V45.02ZM367.436 47.324C368.588 47.324 369.488 47.144 370.424 46.82C371.036 46.568 371.576 45.92 371.576 45.128C371.576 44.12 370.712 43.328 369.74 43.328C369.596 43.328 369.164 43.436 368.66 43.436C367.184 43.436 366.32 42.752 366.32 41.06V31.736H369.74C370.784 31.736 371.648 30.908 371.648 29.864C371.648 28.82 370.784 27.992 369.74 27.992H366.32V24.752C366.32 23.564 365.348 22.592 364.16 22.592C362.936 22.592 361.964 23.564 361.964 24.752V27.992H361.244C360.2 27.992 359.372 28.82 359.372 29.864C359.372 30.908 360.2 31.736 361.244 31.736H361.964V41.744C361.964 45.92 364.232 47.324 367.436 47.324ZM375.037 45.02C375.037 46.208 376.009 47.18 377.197 47.18C378.421 47.18 379.393 46.208 379.393 45.02V31.736H382.705C383.713 31.736 384.541 30.944 384.541 29.936C384.541 28.928 383.749 28.136 382.705 28.136H379.321V27.092C379.321 25.112 380.185 24.212 381.841 24.212C382.129 24.212 382.489 24.248 382.741 24.284C383.749 24.32 384.577 23.492 384.577 22.484C384.577 21.512 383.857 20.792 383.065 20.684C382.453 20.576 381.733 20.504 380.869 20.504C378.997 20.504 377.593 21.008 376.585 22.016C375.577 23.024 375.037 24.608 375.037 26.696V28.1H374.281C373.273 28.1 372.445 28.928 372.445 29.936C372.445 30.944 373.273 31.736 374.281 31.736H375.037V45.02ZM394.484 47.432C400.352 47.432 404.672 42.932 404.672 37.532V37.46C404.672 32.024 400.388 27.596 394.556 27.596C388.724 27.596 384.404 32.096 384.404 37.532V37.604C384.404 43.004 388.688 47.432 394.484 47.432ZM394.556 43.616C391.172 43.616 388.76 40.844 388.76 37.532V37.46C388.76 34.148 390.992 31.412 394.484 31.412C397.904 31.412 400.316 34.184 400.316 37.532V37.604C400.316 40.88 398.084 43.616 394.556 43.616ZM407.561 45.02C407.561 46.244 408.533 47.18 409.721 47.18C410.945 47.18 411.917 46.244 411.917 45.02V22.7C411.917 21.512 410.945 20.54 409.721 20.54C408.497 20.54 407.561 21.512 407.561 22.7V45.02ZM415.737 23.096C415.737 24.392 416.817 25.256 418.221 25.256C419.625 25.256 420.705 24.392 420.705 23.096V22.88C420.705 21.584 419.625 20.756 418.221 20.756C416.817 20.756 415.737 21.584 415.737 22.88V23.096ZM416.061 45.02C416.061 46.244 417.033 47.18 418.221 47.18C419.445 47.18 420.417 46.244 420.417 45.02V29.972C420.417 28.748 419.445 27.776 418.221 27.776C416.997 27.776 416.061 28.748 416.061 29.972V45.02ZM433.346 47.432C439.214 47.432 443.534 42.932 443.534 37.532V37.46C443.534 32.024 439.25 27.596 433.418 27.596C427.586 27.596 423.266 32.096 423.266 37.532V37.604C423.266 43.004 427.55 47.432 433.346 47.432ZM433.418 43.616C430.034 43.616 427.622 40.844 427.622 37.532V37.46C427.622 34.148 429.854 31.412 433.346 31.412C436.766 31.412 439.178 34.184 439.178 37.532V37.604C439.178 40.88 436.946 43.616 433.418 43.616ZM452.686 47.36C456.646 47.36 459.742 45.38 459.742 41.384V41.312C459.742 37.892 456.61 36.632 453.838 35.768C451.606 35.048 449.554 34.472 449.554 33.068V32.996C449.554 31.916 450.526 31.124 452.218 31.124C453.55 31.124 455.134 31.628 456.682 32.42C456.97 32.564 457.186 32.636 457.546 32.636C458.554 32.636 459.346 31.88 459.346 30.872C459.346 30.116 458.914 29.54 458.302 29.216C456.466 28.244 454.342 27.668 452.326 27.668C448.546 27.668 445.558 29.864 445.558 33.464V33.536C445.558 37.172 448.69 38.324 451.498 39.116C453.73 39.8 455.746 40.304 455.746 41.78V41.852C455.746 43.112 454.666 43.904 452.794 43.904C451.066 43.904 449.158 43.292 447.322 42.068C447.07 41.924 446.746 41.816 446.386 41.816C445.378 41.816 444.622 42.608 444.622 43.58C444.622 44.3 444.982 44.84 445.45 45.092C447.646 46.604 450.274 47.36 452.686 47.36Z" fill="#00E59D"/>
<g filter="url(#filter0_f)">
<path d="M29.332 44.984C29.332 46.208 30.304 47.18 31.528 47.18C32.788 47.18 33.76 46.208 33.76 44.984V37.1L42.364 25.328C42.688 24.896 42.976 24.356 42.976 23.744C42.976 22.556 42.112 21.584 40.816 21.584C39.88 21.584 39.232 22.124 38.692 22.916L31.564 33.068L24.544 22.952C24.004 22.16 23.356 21.62 22.384 21.62C21.124 21.62 20.152 22.556 20.152 23.744C20.152 24.356 20.368 24.86 20.656 25.292L29.332 37.208V44.984ZM44.2273 23.096C44.2273 24.392 45.3073 25.256 46.7113 25.256C48.1153 25.256 49.1953 24.392 49.1953 23.096V22.88C49.1953 21.584 48.1153 20.756 46.7113 20.756C45.3073 20.756 44.2273 21.584 44.2273 22.88V23.096ZM44.5513 45.02C44.5513 46.244 45.5233 47.18 46.7113 47.18C47.9353 47.18 48.9073 46.244 48.9073 45.02V29.972C48.9073 28.748 47.9353 27.776 46.7113 27.776C45.4873 27.776 44.5513 28.748 44.5513 29.972V45.02ZM56.0761 36.164C56.4721 33.212 58.3441 31.16 61.0081 31.16C63.8881 31.16 65.5441 33.356 65.8321 36.164H56.0761ZM68.3521 44.912C68.6761 44.588 68.9281 44.12 68.9281 43.58C68.9281 42.572 68.1721 41.816 67.2001 41.816C66.6961 41.816 66.4081 41.96 66.0841 42.212C64.8601 43.22 63.4201 43.868 61.5841 43.868C58.7761 43.868 56.5801 42.14 56.1121 39.044H68.0281C69.1441 39.044 70.0801 38.18 70.0801 36.956C70.0801 32.564 67.0921 27.596 61.0441 27.596C55.6081 27.596 51.7561 32.06 51.7561 37.496V37.568C51.7561 43.436 56.0041 47.432 61.5121 47.432C64.4641 47.432 66.6241 46.46 68.3521 44.912ZM72.9786 45.02C72.9786 46.244 73.9506 47.18 75.1386 47.18C76.3626 47.18 77.3346 46.244 77.3346 45.02V22.7C77.3346 21.512 76.3626 20.54 75.1386 20.54C73.9146 20.54 72.9786 21.512 72.9786 22.7V45.02ZM99.9114 22.7C99.9114 21.476 98.9394 20.54 97.7154 20.54C96.5274 20.54 95.5554 21.476 95.5554 22.7V30.944C94.1874 29.144 92.2074 27.596 89.0754 27.596C84.5394 27.596 80.2554 31.16 80.2554 37.46V37.532C80.2554 43.832 84.6114 47.396 89.0754 47.396C92.1714 47.396 94.1514 45.812 95.5554 43.832V45.02C95.5554 46.244 96.5274 47.18 97.7514 47.18C98.9394 47.18 99.9114 46.244 99.9114 45.02V22.7ZM90.1194 31.376C93.0354 31.376 95.6274 33.788 95.6274 37.46V37.532C95.6274 41.168 93.0354 43.616 90.1194 43.616C87.1674 43.616 84.6474 41.204 84.6474 37.532V37.46C84.6474 33.68 87.1314 31.376 90.1194 31.376ZM125.029 47.432C128.809 47.432 131.833 46.136 133.993 44.696C135.037 44.048 135.541 43.148 135.541 41.888V35.156C135.541 33.896 134.569 32.924 133.309 32.924H126.289C125.209 32.924 124.309 33.788 124.309 34.868C124.309 35.948 125.209 36.776 126.289 36.776H131.257V41.492C129.709 42.644 127.549 43.4 125.173 43.4C120.025 43.4 116.605 39.584 116.605 34.4V34.328C116.605 29.504 120.133 25.436 124.777 25.436C127.513 25.436 129.277 26.228 130.897 27.416C131.257 27.668 131.689 27.92 132.265 27.92C133.489 27.92 134.461 26.912 134.461 25.724C134.461 24.86 133.993 24.248 133.561 23.924C131.257 22.268 128.737 21.368 124.957 21.368C117.361 21.368 111.961 27.344 111.961 34.4V34.472C111.961 41.816 117.145 47.432 125.029 47.432ZM142.279 36.164C142.675 33.212 144.547 31.16 147.211 31.16C150.091 31.16 151.747 33.356 152.035 36.164H142.279ZM154.555 44.912C154.879 44.588 155.131 44.12 155.131 43.58C155.131 42.572 154.375 41.816 153.403 41.816C152.899 41.816 152.611 41.96 152.287 42.212C151.063 43.22 149.623 43.868 147.787 43.868C144.979 43.868 142.783 42.14 142.315 39.044H154.231C155.347 39.044 156.283 38.18 156.283 36.956C156.283 32.564 153.295 27.596 147.247 27.596C141.811 27.596 137.959 32.06 137.959 37.496V37.568C137.959 43.436 142.207 47.432 147.715 47.432C150.667 47.432 152.827 46.46 154.555 44.912ZM158.93 45.02C158.93 46.244 159.902 47.18 161.09 47.18C162.314 47.18 163.286 46.244 163.286 45.02V36.272C163.286 33.32 165.05 31.556 167.57 31.556C170.162 31.556 171.638 33.248 171.638 36.2V45.02C171.638 46.244 172.61 47.18 173.834 47.18C175.058 47.18 175.994 46.244 175.994 45.02V34.868C175.994 30.476 173.51 27.596 169.226 27.596C166.274 27.596 164.51 29.144 163.286 30.908V29.972C163.286 28.748 162.314 27.776 161.09 27.776C159.866 27.776 158.93 28.748 158.93 29.972V45.02ZM182.73 36.164C183.126 33.212 184.998 31.16 187.662 31.16C190.542 31.16 192.198 33.356 192.486 36.164H182.73ZM195.006 44.912C195.33 44.588 195.582 44.12 195.582 43.58C195.582 42.572 194.826 41.816 193.854 41.816C193.35 41.816 193.062 41.96 192.738 42.212C191.514 43.22 190.074 43.868 188.238 43.868C185.43 43.868 183.234 42.14 182.766 39.044H194.682C195.798 39.044 196.734 38.18 196.734 36.956C196.734 32.564 193.746 27.596 187.698 27.596C182.262 27.596 178.41 32.06 178.41 37.496V37.568C178.41 43.436 182.658 47.432 188.166 47.432C191.118 47.432 193.278 46.46 195.006 44.912ZM199.381 45.02C199.381 46.244 200.353 47.18 201.541 47.18C202.765 47.18 203.737 46.208 203.737 45.02V39.404C203.737 34.904 205.861 32.528 208.957 31.988C209.929 31.808 210.685 31.052 210.685 29.9C210.685 28.64 209.893 27.74 208.525 27.74C206.617 27.74 204.745 29.54 203.737 31.916V29.972C203.737 28.748 202.765 27.776 201.541 27.776C200.317 27.776 199.381 28.748 199.381 29.972V45.02ZM217.01 47.396C219.926 47.396 221.906 46.172 223.202 44.624V45.344C223.202 46.316 224.066 47.18 225.326 47.18C226.514 47.18 227.45 46.28 227.45 45.092V35.732C227.45 33.248 226.802 31.232 225.398 29.864C224.066 28.496 221.942 27.74 219.098 27.74C216.614 27.74 214.778 28.172 212.978 28.856C212.33 29.108 211.79 29.792 211.79 30.584C211.79 31.592 212.618 32.384 213.626 32.384C213.842 32.384 214.058 32.348 214.31 32.276C215.498 31.808 216.866 31.52 218.522 31.52C221.582 31.52 223.238 32.96 223.238 35.66V36.128C221.762 35.66 220.25 35.336 218.126 35.336C213.482 35.336 210.278 37.352 210.278 41.456V41.528C210.278 45.344 213.446 47.396 217.01 47.396ZM218.234 44.228C216.146 44.228 214.526 43.184 214.526 41.348V41.276C214.526 39.296 216.182 38.108 218.99 38.108C220.718 38.108 222.194 38.432 223.31 38.864V40.16C223.31 42.572 221.114 44.228 218.234 44.228ZM237.063 47.324C238.215 47.324 239.115 47.144 240.051 46.82C240.663 46.568 241.203 45.92 241.203 45.128C241.203 44.12 240.339 43.328 239.367 43.328C239.223 43.328 238.791 43.436 238.287 43.436C236.811 43.436 235.947 42.752 235.947 41.06V31.736H239.367C240.411 31.736 241.275 30.908 241.275 29.864C241.275 28.82 240.411 27.992 239.367 27.992H235.947V24.752C235.947 23.564 234.975 22.592 233.787 22.592C232.563 22.592 231.591 23.564 231.591 24.752V27.992H230.871C229.827 27.992 228.999 28.82 228.999 29.864C228.999 30.908 229.827 31.736 230.871 31.736H231.591V41.744C231.591 45.92 233.859 47.324 237.063 47.324ZM243.619 23.096C243.619 24.392 244.699 25.256 246.103 25.256C247.507 25.256 248.587 24.392 248.587 23.096V22.88C248.587 21.584 247.507 20.756 246.103 20.756C244.699 20.756 243.619 21.584 243.619 22.88V23.096ZM243.943 45.02C243.943 46.244 244.915 47.18 246.103 47.18C247.327 47.18 248.299 46.244 248.299 45.02V29.972C248.299 28.748 247.327 27.776 246.103 27.776C244.879 27.776 243.943 28.748 243.943 29.972V45.02ZM252.192 45.02C252.192 46.244 253.164 47.18 254.352 47.18C255.576 47.18 256.548 46.244 256.548 45.02V36.272C256.548 33.32 258.312 31.556 260.832 31.556C263.424 31.556 264.9 33.248 264.9 36.2V45.02C264.9 46.244 265.872 47.18 267.096 47.18C268.32 47.18 269.256 46.244 269.256 45.02V34.868C269.256 30.476 266.772 27.596 262.488 27.596C259.536 27.596 257.772 29.144 256.548 30.908V29.972C256.548 28.748 255.576 27.776 254.352 27.776C253.128 27.776 252.192 28.748 252.192 29.972V45.02ZM281.176 52.832C284.596 52.832 287.26 52.004 288.988 50.276C290.572 48.692 291.4 46.316 291.4 43.112V29.972C291.4 28.748 290.428 27.776 289.204 27.776C288.016 27.776 287.044 28.748 287.044 29.936V30.836C285.568 29.072 283.588 27.596 280.384 27.596C275.956 27.596 271.744 30.908 271.744 36.524V36.596C271.744 42.176 275.92 45.488 280.384 45.488C283.516 45.488 285.496 44.048 287.08 41.996V43.472C287.08 47.288 284.956 49.304 281.068 49.304C278.872 49.304 276.964 48.764 275.236 47.792C275.02 47.684 274.768 47.612 274.444 47.612C273.436 47.612 272.608 48.44 272.608 49.412C272.608 50.24 273.076 50.852 273.832 51.14C276.136 52.256 278.512 52.832 281.176 52.832ZM281.536 41.78C278.548 41.78 276.136 39.656 276.136 36.56V36.488C276.136 33.356 278.512 31.268 281.536 31.268C284.56 31.268 287.116 33.392 287.116 36.488V36.56C287.116 39.656 284.56 41.78 281.536 41.78Z" fill="#FF0000"/>
<path d="M304.566 44.984C304.566 46.208 305.538 47.18 306.798 47.18C308.022 47.18 308.994 46.208 308.994 44.984V38.9H313.998C319.542 38.9 324.078 35.948 324.078 30.296V30.224C324.078 25.148 320.406 21.8 314.502 21.8H306.798C305.538 21.8 304.566 22.772 304.566 24.032V44.984ZM308.994 34.904V25.832H314.142C317.454 25.832 319.578 27.38 319.578 30.332V30.404C319.578 33.032 317.49 34.904 314.142 34.904H308.994ZM335.169 47.432C341.037 47.432 345.357 42.932 345.357 37.532V37.46C345.357 32.024 341.073 27.596 335.241 27.596C329.409 27.596 325.089 32.096 325.089 37.532V37.604C325.089 43.004 329.373 47.432 335.169 47.432ZM335.241 43.616C331.857 43.616 329.445 40.844 329.445 37.532V37.46C329.445 34.148 331.677 31.412 335.169 31.412C338.589 31.412 341.001 34.184 341.001 37.532V37.604C341.001 40.88 338.769 43.616 335.241 43.616ZM347.993 45.02C347.993 46.244 348.965 47.18 350.153 47.18C351.377 47.18 352.349 46.208 352.349 45.02V39.404C352.349 34.904 354.473 32.528 357.569 31.988C358.541 31.808 359.297 31.052 359.297 29.9C359.297 28.64 358.505 27.74 357.137 27.74C355.229 27.74 353.357 29.54 352.349 31.916V29.972C352.349 28.748 351.377 27.776 350.153 27.776C348.929 27.776 347.993 28.748 347.993 29.972V45.02ZM367.436 47.324C368.588 47.324 369.488 47.144 370.424 46.82C371.036 46.568 371.576 45.92 371.576 45.128C371.576 44.12 370.712 43.328 369.74 43.328C369.596 43.328 369.164 43.436 368.66 43.436C367.184 43.436 366.32 42.752 366.32 41.06V31.736H369.74C370.784 31.736 371.648 30.908 371.648 29.864C371.648 28.82 370.784 27.992 369.74 27.992H366.32V24.752C366.32 23.564 365.348 22.592 364.16 22.592C362.936 22.592 361.964 23.564 361.964 24.752V27.992H361.244C360.2 27.992 359.372 28.82 359.372 29.864C359.372 30.908 360.2 31.736 361.244 31.736H361.964V41.744C361.964 45.92 364.232 47.324 367.436 47.324ZM375.037 45.02C375.037 46.208 376.009 47.18 377.197 47.18C378.421 47.18 379.393 46.208 379.393 45.02V31.736H382.705C383.713 31.736 384.541 30.944 384.541 29.936C384.541 28.928 383.749 28.136 382.705 28.136H379.321V27.092C379.321 25.112 380.185 24.212 381.841 24.212C382.129 24.212 382.489 24.248 382.741 24.284C383.749 24.32 384.577 23.492 384.577 22.484C384.577 21.512 383.857 20.792 383.065 20.684C382.453 20.576 381.733 20.504 380.869 20.504C378.997 20.504 377.593 21.008 376.585 22.016C375.577 23.024 375.037 24.608 375.037 26.696V28.1H374.281C373.273 28.1 372.445 28.928 372.445 29.936C372.445 30.944 373.273 31.736 374.281 31.736H375.037V45.02ZM394.484 47.432C400.352 47.432 404.672 42.932 404.672 37.532V37.46C404.672 32.024 400.388 27.596 394.556 27.596C388.724 27.596 384.404 32.096 384.404 37.532V37.604C384.404 43.004 388.688 47.432 394.484 47.432ZM394.556 43.616C391.172 43.616 388.76 40.844 388.76 37.532V37.46C388.76 34.148 390.992 31.412 394.484 31.412C397.904 31.412 400.316 34.184 400.316 37.532V37.604C400.316 40.88 398.084 43.616 394.556 43.616ZM407.561 45.02C407.561 46.244 408.533 47.18 409.721 47.18C410.945 47.18 411.917 46.244 411.917 45.02V22.7C411.917 21.512 410.945 20.54 409.721 20.54C408.497 20.54 407.561 21.512 407.561 22.7V45.02ZM415.737 23.096C415.737 24.392 416.817 25.256 418.221 25.256C419.625 25.256 420.705 24.392 420.705 23.096V22.88C420.705 21.584 419.625 20.756 418.221 20.756C416.817 20.756 415.737 21.584 415.737 22.88V23.096ZM416.061 45.02C416.061 46.244 417.033 47.18 418.221 47.18C419.445 47.18 420.417 46.244 420.417 45.02V29.972C420.417 28.748 419.445 27.776 418.221 27.776C416.997 27.776 416.061 28.748 416.061 29.972V45.02ZM433.346 47.432C439.214 47.432 443.534 42.932 443.534 37.532V37.46C443.534 32.024 439.25 27.596 433.418 27.596C427.586 27.596 423.266 32.096 423.266 37.532V37.604C423.266 43.004 427.55 47.432 433.346 47.432ZM433.418 43.616C430.034 43.616 427.622 40.844 427.622 37.532V37.46C427.622 34.148 429.854 31.412 433.346 31.412C436.766 31.412 439.178 34.184 439.178 37.532V37.604C439.178 40.88 436.946 43.616 433.418 43.616ZM452.686 47.36C456.646 47.36 459.742 45.38 459.742 41.384V41.312C459.742 37.892 456.61 36.632 453.838 35.768C451.606 35.048 449.554 34.472 449.554 33.068V32.996C449.554 31.916 450.526 31.124 452.218 31.124C453.55 31.124 455.134 31.628 456.682 32.42C456.97 32.564 457.186 32.636 457.546 32.636C458.554 32.636 459.346 31.88 459.346 30.872C459.346 30.116 458.914 29.54 458.302 29.216C456.466 28.244 454.342 27.668 452.326 27.668C448.546 27.668 445.558 29.864 445.558 33.464V33.536C445.558 37.172 448.69 38.324 451.498 39.116C453.73 39.8 455.746 40.304 455.746 41.78V41.852C455.746 43.112 454.666 43.904 452.794 43.904C451.066 43.904 449.158 43.292 447.322 42.068C447.07 41.924 446.746 41.816 446.386 41.816C445.378 41.816 444.622 42.608 444.622 43.58C444.622 44.3 444.982 44.84 445.45 45.092C447.646 46.604 450.274 47.36 452.686 47.36Z" fill="#00E59D"/>
</g>
<path d="M22.24 98.02C22.24 99.244 23.176 100.18 24.4 100.18C25.624 100.18 26.596 99.244 26.596 98.02V82.936L32.716 92.116C33.184 92.836 33.76 93.268 34.552 93.268C35.38 93.268 35.956 92.836 36.424 92.116L42.58 82.864V97.984C42.58 99.172 43.588 100.18 44.776 100.18C46.036 100.18 47.008 99.208 47.008 97.984V76.888C47.008 75.664 46.036 74.656 44.776 74.656H44.308C43.408 74.656 42.76 75.052 42.292 75.808L34.624 87.796L26.992 75.844C26.56 75.16 25.912 74.656 24.94 74.656H24.472C23.212 74.656 22.24 75.664 22.24 76.888V98.02ZM56.6619 100.396C59.5779 100.396 61.5579 99.172 62.8539 97.624V98.344C62.8539 99.316 63.7179 100.18 64.9779 100.18C66.1659 100.18 67.1019 99.28 67.1019 98.092V88.732C67.1019 86.248 66.4539 84.232 65.0499 82.864C63.7179 81.496 61.5939 80.74 58.7499 80.74C56.2659 80.74 54.4299 81.172 52.6299 81.856C51.9819 82.108 51.4419 82.792 51.4419 83.584C51.4419 84.592 52.2699 85.384 53.2779 85.384C53.4939 85.384 53.7099 85.348 53.9619 85.276C55.1499 84.808 56.5179 84.52 58.1739 84.52C61.2339 84.52 62.8899 85.96 62.8899 88.66V89.128C61.4139 88.66 59.9019 88.336 57.7779 88.336C53.1339 88.336 49.9299 90.352 49.9299 94.456V94.528C49.9299 98.344 53.0979 100.396 56.6619 100.396ZM57.8859 97.228C55.7979 97.228 54.1779 96.184 54.1779 94.348V94.276C54.1779 92.296 55.8339 91.108 58.6419 91.108C60.3699 91.108 61.8459 91.432 62.9619 91.864V93.16C62.9619 95.572 60.7659 97.228 57.8859 97.228ZM70.5188 98.02C70.5188 99.244 71.4908 100.18 72.6788 100.18C73.9028 100.18 74.8748 99.244 74.8748 98.02V94.708L77.7548 91.972L83.1908 99.208C83.7308 99.892 84.2348 100.18 85.0988 100.18C86.2148 100.18 87.1508 99.388 87.1508 98.2C87.1508 97.696 86.9708 97.3 86.5748 96.76L80.8148 89.236L85.8548 84.592C86.4668 84.016 86.8268 83.476 86.8268 82.756C86.8268 81.712 86.0708 80.776 84.9188 80.776C84.1628 80.776 83.6228 81.136 83.0468 81.712L74.8748 89.74V75.7C74.8748 74.512 73.9028 73.54 72.6788 73.54C71.4548 73.54 70.5188 74.512 70.5188 75.7V98.02ZM92.3503 89.164C92.7463 86.212 94.6183 84.16 97.2823 84.16C100.162 84.16 101.818 86.356 102.106 89.164H92.3503ZM104.626 97.912C104.95 97.588 105.202 97.12 105.202 96.58C105.202 95.572 104.446 94.816 103.474 94.816C102.97 94.816 102.682 94.96 102.358 95.212C101.134 96.22 99.6943 96.868 97.8583 96.868C95.0503 96.868 92.8543 95.14 92.3863 92.044H104.302C105.418 92.044 106.354 91.18 106.354 89.956C106.354 85.564 103.366 80.596 97.3183 80.596C91.8823 80.596 88.0303 85.06 88.0303 90.496V90.568C88.0303 96.436 92.2783 100.432 97.7863 100.432C100.738 100.432 102.898 99.46 104.626 97.912ZM121.45 105.868C124.51 105.868 126.238 104.428 127.858 100.54L134.806 83.872C134.878 83.656 134.986 83.188 134.986 82.828C134.986 81.676 134.05 80.776 132.898 80.776C131.782 80.776 131.17 81.532 130.81 82.432L126.058 95.068L120.946 82.432C120.55 81.424 119.938 80.776 118.822 80.776C117.598 80.776 116.662 81.676 116.662 82.9C116.662 83.188 116.77 83.62 116.914 83.944L123.97 99.712L123.826 100.108C123.106 101.584 122.422 102.124 121.126 102.124C120.514 102.124 120.118 102.016 119.614 101.872C119.398 101.8 119.182 101.728 118.822 101.728C117.886 101.728 117.058 102.448 117.058 103.528C117.058 104.572 117.778 105.112 118.426 105.328C119.326 105.688 120.226 105.868 121.45 105.868ZM145.656 100.432C151.524 100.432 155.844 95.932 155.844 90.532V90.46C155.844 85.024 151.56 80.596 145.728 80.596C139.896 80.596 135.576 85.096 135.576 90.532V90.604C135.576 96.004 139.86 100.432 145.656 100.432ZM145.728 96.616C142.344 96.616 139.932 93.844 139.932 90.532V90.46C139.932 87.148 142.164 84.412 145.656 84.412C149.076 84.412 151.488 87.184 151.488 90.532V90.604C151.488 93.88 149.256 96.616 145.728 96.616ZM175.364 82.972C175.364 81.748 174.356 80.776 173.168 80.776C171.944 80.776 170.972 81.748 170.972 82.972V91.72C170.972 94.672 169.208 96.4 166.688 96.4C164.096 96.4 162.62 94.744 162.62 91.792V82.972C162.62 81.748 161.648 80.776 160.424 80.776C159.236 80.776 158.264 81.748 158.264 82.972V93.088C158.264 97.516 160.748 100.396 165.032 100.396C167.984 100.396 169.748 98.848 170.972 97.048V98.02C170.972 99.244 171.98 100.18 173.168 100.18C174.392 100.18 175.364 99.208 175.364 98.02V82.972ZM179.004 98.02C179.004 99.244 179.976 100.18 181.164 100.18C182.388 100.18 183.36 99.208 183.36 98.02V92.404C183.36 87.904 185.484 85.528 188.58 84.988C189.552 84.808 190.308 84.052 190.308 82.9C190.308 81.64 189.516 80.74 188.148 80.74C186.24 80.74 184.368 82.54 183.36 84.916V82.972C183.36 81.748 182.388 80.776 181.164 80.776C179.94 80.776 179.004 81.748 179.004 82.972V98.02ZM209.852 100.432C213.02 100.432 215.072 99.352 216.764 97.732C217.16 97.408 217.376 96.94 217.376 96.364C217.376 95.32 216.548 94.456 215.504 94.456C215 94.456 214.568 94.708 214.316 94.924C213.128 95.932 211.796 96.616 210.068 96.616C206.72 96.616 204.38 93.916 204.38 90.532V90.46C204.38 87.148 206.72 84.412 209.888 84.412C211.616 84.412 212.84 85.096 213.956 86.032C214.244 86.248 214.712 86.464 215.252 86.464C216.368 86.464 217.268 85.6 217.268 84.484C217.268 83.764 216.872 83.224 216.584 82.972C214.964 81.568 212.912 80.596 209.924 80.596C204.2 80.596 200.024 85.132 200.024 90.532V90.604C200.024 96.004 204.2 100.432 209.852 100.432ZM219.834 98.02C219.834 99.244 220.806 100.18 221.994 100.18C223.218 100.18 224.19 99.208 224.19 98.02V92.404C224.19 87.904 226.314 85.528 229.41 84.988C230.382 84.808 231.138 84.052 231.138 82.9C231.138 81.64 230.346 80.74 228.978 80.74C227.07 80.74 225.198 82.54 224.19 84.916V82.972C224.19 81.748 223.218 80.776 221.994 80.776C220.77 80.776 219.834 81.748 219.834 82.972V98.02ZM236.362 105.868C239.422 105.868 241.15 104.428 242.77 100.54L249.718 83.872C249.79 83.656 249.898 83.188 249.898 82.828C249.898 81.676 248.962 80.776 247.81 80.776C246.694 80.776 246.082 81.532 245.722 82.432L240.97 95.068L235.858 82.432C235.462 81.424 234.85 80.776 233.734 80.776C232.51 80.776 231.574 81.676 231.574 82.9C231.574 83.188 231.682 83.62 231.826 83.944L238.882 99.712L238.738 100.108C238.018 101.584 237.334 102.124 236.038 102.124C235.426 102.124 235.03 102.016 234.526 101.872C234.31 101.8 234.094 101.728 233.734 101.728C232.798 101.728 231.97 102.448 231.97 103.528C231.97 104.572 232.69 105.112 233.338 105.328C234.238 105.688 235.138 105.868 236.362 105.868ZM252.234 103.78C252.234 105.004 253.206 105.94 254.394 105.94C255.618 105.94 256.59 105.004 256.59 103.78V97.048C257.922 98.812 259.902 100.396 263.07 100.396C267.57 100.396 271.89 96.832 271.89 90.532V90.46C271.89 84.124 267.534 80.596 263.07 80.596C259.974 80.596 257.994 82.18 256.59 84.16V82.972C256.59 81.748 255.618 80.776 254.394 80.776C253.17 80.776 252.234 81.748 252.234 82.972V103.78ZM262.026 96.616C259.074 96.616 256.482 94.168 256.482 90.532V90.46C256.482 86.824 259.074 84.376 262.026 84.376C264.978 84.376 267.462 86.788 267.462 90.46V90.532C267.462 94.276 265.014 96.616 262.026 96.616ZM280.959 100.324C282.111 100.324 283.011 100.144 283.947 99.82C284.559 99.568 285.099 98.92 285.099 98.128C285.099 97.12 284.235 96.328 283.263 96.328C283.119 96.328 282.687 96.436 282.183 96.436C280.707 96.436 279.843 95.752 279.843 94.06V84.736H283.263C284.307 84.736 285.171 83.908 285.171 82.864C285.171 81.82 284.307 80.992 283.263 80.992H279.843V77.752C279.843 76.564 278.871 75.592 277.683 75.592C276.459 75.592 275.487 76.564 275.487 77.752V80.992H274.767C273.723 80.992 272.895 81.82 272.895 82.864C272.895 83.908 273.723 84.736 274.767 84.736H275.487V94.744C275.487 98.92 277.755 100.324 280.959 100.324ZM296.096 100.432C301.964 100.432 306.284 95.932 306.284 90.532V90.46C306.284 85.024 302 80.596 296.168 80.596C290.336 80.596 286.016 85.096 286.016 90.532V90.604C286.016 96.004 290.3 100.432 296.096 100.432ZM296.168 96.616C292.784 96.616 290.372 93.844 290.372 90.532V90.46C290.372 87.148 292.604 84.412 296.096 84.412C299.516 84.412 301.928 87.184 301.928 90.532V90.604C301.928 93.88 299.696 96.616 296.168 96.616ZM324.285 100.324H324.429C325.473 100.324 326.373 99.712 326.769 98.452L330.513 87.148L334.221 98.452C334.617 99.712 335.517 100.324 336.597 100.324H336.741C337.785 100.324 338.685 99.712 339.153 98.38L344.337 83.764C344.409 83.548 344.517 83.116 344.517 82.792C344.517 81.712 343.653 80.776 342.465 80.776C341.313 80.776 340.629 81.532 340.341 82.468L336.633 94.024L332.889 82.504C332.565 81.496 331.773 80.776 330.657 80.776H330.405C329.289 80.776 328.497 81.496 328.173 82.504L324.465 94.024L320.793 82.504C320.469 81.496 319.749 80.776 318.669 80.776C317.373 80.776 316.545 81.748 316.545 82.792C316.545 83.152 316.653 83.62 316.761 83.908L321.873 98.38C322.305 99.712 323.205 100.324 324.285 100.324ZM355.313 100.432C361.181 100.432 365.501 95.932 365.501 90.532V90.46C365.501 85.024 361.217 80.596 355.385 80.596C349.553 80.596 345.233 85.096 345.233 90.532V90.604C345.233 96.004 349.517 100.432 355.313 100.432ZM355.385 96.616C352.001 96.616 349.589 93.844 349.589 90.532V90.46C349.589 87.148 351.821 84.412 355.313 84.412C358.733 84.412 361.145 87.184 361.145 90.532V90.604C361.145 93.88 358.913 96.616 355.385 96.616ZM368.138 98.02C368.138 99.244 369.11 100.18 370.298 100.18C371.522 100.18 372.494 99.208 372.494 98.02V92.404C372.494 87.904 374.618 85.528 377.714 84.988C378.686 84.808 379.442 84.052 379.442 82.9C379.442 81.64 378.65 80.74 377.282 80.74C375.374 80.74 373.502 82.54 372.494 84.916V82.972C372.494 81.748 371.522 80.776 370.298 80.776C369.074 80.776 368.138 81.748 368.138 82.972V98.02ZM381.209 98.02C381.209 99.244 382.181 100.18 383.369 100.18C384.593 100.18 385.565 99.244 385.565 98.02V94.708L388.445 91.972L393.881 99.208C394.421 99.892 394.925 100.18 395.789 100.18C396.905 100.18 397.841 99.388 397.841 98.2C397.841 97.696 397.661 97.3 397.265 96.76L391.505 89.236L396.545 84.592C397.157 84.016 397.517 83.476 397.517 82.756C397.517 81.712 396.761 80.776 395.609 80.776C394.853 80.776 394.313 81.136 393.737 81.712L385.565 89.74V75.7C385.565 74.512 384.593 73.54 383.369 73.54C382.145 73.54 381.209 74.512 381.209 75.7V98.02ZM410.256 98.02C410.256 99.208 411.228 100.18 412.416 100.18C413.64 100.18 414.612 99.208 414.612 98.02V84.736H417.924C418.932 84.736 419.76 83.944 419.76 82.936C419.76 81.928 418.968 81.136 417.924 81.136H414.54V80.092C414.54 78.112 415.404 77.212 417.06 77.212C417.348 77.212 417.708 77.248 417.96 77.284C418.968 77.32 419.796 76.492 419.796 75.484C419.796 74.512 419.076 73.792 418.284 73.684C417.672 73.576 416.952 73.504 416.088 73.504C414.216 73.504 412.812 74.008 411.804 75.016C410.796 76.024 410.256 77.608 410.256 79.696V81.1H409.5C408.492 81.1 407.664 81.928 407.664 82.936C407.664 83.944 408.492 84.736 409.5 84.736H410.256V98.02ZM429.704 100.432C435.572 100.432 439.892 95.932 439.892 90.532V90.46C439.892 85.024 435.608 80.596 429.776 80.596C423.944 80.596 419.624 85.096 419.624 90.532V90.604C419.624 96.004 423.908 100.432 429.704 100.432ZM429.776 96.616C426.392 96.616 423.98 93.844 423.98 90.532V90.46C423.98 87.148 426.212 84.412 429.704 84.412C433.124 84.412 435.536 87.184 435.536 90.532V90.604C435.536 93.88 433.304 96.616 429.776 96.616ZM442.528 98.02C442.528 99.244 443.5 100.18 444.688 100.18C445.912 100.18 446.884 99.208 446.884 98.02V92.404C446.884 87.904 449.008 85.528 452.104 84.988C453.076 84.808 453.832 84.052 453.832 82.9C453.832 81.64 453.04 80.74 451.672 80.74C449.764 80.74 447.892 82.54 446.884 84.916V82.972C446.884 81.748 445.912 80.776 444.688 80.776C443.464 80.776 442.528 81.748 442.528 82.972V98.02ZM468.048 105.868C471.108 105.868 472.836 104.428 474.456 100.54L481.404 83.872C481.476 83.656 481.584 83.188 481.584 82.828C481.584 81.676 480.648 80.776 479.496 80.776C478.38 80.776 477.768 81.532 477.408 82.432L472.656 95.068L467.544 82.432C467.148 81.424 466.536 80.776 465.42 80.776C464.196 80.776 463.26 81.676 463.26 82.9C463.26 83.188 463.368 83.62 463.512 83.944L470.568 99.712L470.424 100.108C469.704 101.584 469.02 102.124 467.724 102.124C467.112 102.124 466.716 102.016 466.212 101.872C465.996 101.8 465.78 101.728 465.42 101.728C464.484 101.728 463.656 102.448 463.656 103.528C463.656 104.572 464.376 105.112 465.024 105.328C465.924 105.688 466.824 105.868 468.048 105.868ZM492.254 100.432C498.122 100.432 502.442 95.932 502.442 90.532V90.46C502.442 85.024 498.158 80.596 492.326 80.596C486.494 80.596 482.174 85.096 482.174 90.532V90.604C482.174 96.004 486.458 100.432 492.254 100.432ZM492.326 96.616C488.942 96.616 486.53 93.844 486.53 90.532V90.46C486.53 87.148 488.762 84.412 492.254 84.412C495.674 84.412 498.086 87.184 498.086 90.532V90.604C498.086 93.88 495.854 96.616 492.326 96.616ZM521.962 82.972C521.962 81.748 520.954 80.776 519.766 80.776C518.542 80.776 517.57 81.748 517.57 82.972V91.72C517.57 94.672 515.806 96.4 513.286 96.4C510.694 96.4 509.218 94.744 509.218 91.792V82.972C509.218 81.748 508.246 80.776 507.022 80.776C505.834 80.776 504.862 81.748 504.862 82.972V93.088C504.862 97.516 507.346 100.396 511.63 100.396C514.582 100.396 516.346 98.848 517.57 97.048V98.02C517.57 99.244 518.578 100.18 519.766 100.18C520.99 100.18 521.962 99.208 521.962 98.02V82.972Z" fill="black"/>
<path d="M22.24 93.02C22.24 94.244 23.176 95.18 24.4 95.18C25.624 95.18 26.596 94.244 26.596 93.02V77.936L32.716 87.116C33.184 87.836 33.76 88.268 34.552 88.268C35.38 88.268 35.956 87.836 36.424 87.116L42.58 77.864V92.984C42.58 94.172 43.588 95.18 44.776 95.18C46.036 95.18 47.008 94.208 47.008 92.984V71.888C47.008 70.664 46.036 69.656 44.776 69.656H44.308C43.408 69.656 42.76 70.052 42.292 70.808L34.624 82.796L26.992 70.844C26.56 70.16 25.912 69.656 24.94 69.656H24.472C23.212 69.656 22.24 70.664 22.24 71.888V93.02ZM56.6619 95.396C59.5779 95.396 61.5579 94.172 62.8539 92.624V93.344C62.8539 94.316 63.7179 95.18 64.9779 95.18C66.1659 95.18 67.1019 94.28 67.1019 93.092V83.732C67.1019 81.248 66.4539 79.232 65.0499 77.864C63.7179 76.496 61.5939 75.74 58.7499 75.74C56.2659 75.74 54.4299 76.172 52.6299 76.856C51.9819 77.108 51.4419 77.792 51.4419 78.584C51.4419 79.592 52.2699 80.384 53.2779 80.384C53.4939 80.384 53.7099 80.348 53.9619 80.276C55.1499 79.808 56.5179 79.52 58.1739 79.52C61.2339 79.52 62.8899 80.96 62.8899 83.66V84.128C61.4139 83.66 59.9019 83.336 57.7779 83.336C53.1339 83.336 49.9299 85.352 49.9299 89.456V89.528C49.9299 93.344 53.0979 95.396 56.6619 95.396ZM57.8859 92.228C55.7979 92.228 54.1779 91.184 54.1779 89.348V89.276C54.1779 87.296 55.8339 86.108 58.6419 86.108C60.3699 86.108 61.8459 86.432 62.9619 86.864V88.16C62.9619 90.572 60.7659 92.228 57.8859 92.228ZM70.5188 93.02C70.5188 94.244 71.4908 95.18 72.6788 95.18C73.9028 95.18 74.8748 94.244 74.8748 93.02V89.708L77.7548 86.972L83.1908 94.208C83.7308 94.892 84.2348 95.18 85.0988 95.18C86.2148 95.18 87.1508 94.388 87.1508 93.2C87.1508 92.696 86.9708 92.3 86.5748 91.76L80.8148 84.236L85.8548 79.592C86.4668 79.016 86.8268 78.476 86.8268 77.756C86.8268 76.712 86.0708 75.776 84.9188 75.776C84.1628 75.776 83.6228 76.136 83.0468 76.712L74.8748 84.74V70.7C74.8748 69.512 73.9028 68.54 72.6788 68.54C71.4548 68.54 70.5188 69.512 70.5188 70.7V93.02ZM92.3503 84.164C92.7463 81.212 94.6183 79.16 97.2823 79.16C100.162 79.16 101.818 81.356 102.106 84.164H92.3503ZM104.626 92.912C104.95 92.588 105.202 92.12 105.202 91.58C105.202 90.572 104.446 89.816 103.474 89.816C102.97 89.816 102.682 89.96 102.358 90.212C101.134 91.22 99.6943 91.868 97.8583 91.868C95.0503 91.868 92.8543 90.14 92.3863 87.044H104.302C105.418 87.044 106.354 86.18 106.354 84.956C106.354 80.564 103.366 75.596 97.3183 75.596C91.8823 75.596 88.0303 80.06 88.0303 85.496V85.568C88.0303 91.436 92.2783 95.432 97.7863 95.432C100.738 95.432 102.898 94.46 104.626 92.912ZM121.45 100.868C124.51 100.868 126.238 99.428 127.858 95.54L134.806 78.872C134.878 78.656 134.986 78.188 134.986 77.828C134.986 76.676 134.05 75.776 132.898 75.776C131.782 75.776 131.17 76.532 130.81 77.432L126.058 90.068L120.946 77.432C120.55 76.424 119.938 75.776 118.822 75.776C117.598 75.776 116.662 76.676 116.662 77.9C116.662 78.188 116.77 78.62 116.914 78.944L123.97 94.712L123.826 95.108C123.106 96.584 122.422 97.124 121.126 97.124C120.514 97.124 120.118 97.016 119.614 96.872C119.398 96.8 119.182 96.728 118.822 96.728C117.886 96.728 117.058 97.448 117.058 98.528C117.058 99.572 117.778 100.112 118.426 100.328C119.326 100.688 120.226 100.868 121.45 100.868ZM145.656 95.432C151.524 95.432 155.844 90.932 155.844 85.532V85.46C155.844 80.024 151.56 75.596 145.728 75.596C139.896 75.596 135.576 80.096 135.576 85.532V85.604C135.576 91.004 139.86 95.432 145.656 95.432ZM145.728 91.616C142.344 91.616 139.932 88.844 139.932 85.532V85.46C139.932 82.148 142.164 79.412 145.656 79.412C149.076 79.412 151.488 82.184 151.488 85.532V85.604C151.488 88.88 149.256 91.616 145.728 91.616ZM175.364 77.972C175.364 76.748 174.356 75.776 173.168 75.776C171.944 75.776 170.972 76.748 170.972 77.972V86.72C170.972 89.672 169.208 91.4 166.688 91.4C164.096 91.4 162.62 89.744 162.62 86.792V77.972C162.62 76.748 161.648 75.776 160.424 75.776C159.236 75.776 158.264 76.748 158.264 77.972V88.088C158.264 92.516 160.748 95.396 165.032 95.396C167.984 95.396 169.748 93.848 170.972 92.048V93.02C170.972 94.244 171.98 95.18 173.168 95.18C174.392 95.18 175.364 94.208 175.364 93.02V77.972ZM179.004 93.02C179.004 94.244 179.976 95.18 181.164 95.18C182.388 95.18 183.36 94.208 183.36 93.02V87.404C183.36 82.904 185.484 80.528 188.58 79.988C189.552 79.808 190.308 79.052 190.308 77.9C190.308 76.64 189.516 75.74 188.148 75.74C186.24 75.74 184.368 77.54 183.36 79.916V77.972C183.36 76.748 182.388 75.776 181.164 75.776C179.94 75.776 179.004 76.748 179.004 77.972V93.02ZM209.852 95.432C213.02 95.432 215.072 94.352 216.764 92.732C217.16 92.408 217.376 91.94 217.376 91.364C217.376 90.32 216.548 89.456 215.504 89.456C215 89.456 214.568 89.708 214.316 89.924C213.128 90.932 211.796 91.616 210.068 91.616C206.72 91.616 204.38 88.916 204.38 85.532V85.46C204.38 82.148 206.72 79.412 209.888 79.412C211.616 79.412 212.84 80.096 213.956 81.032C214.244 81.248 214.712 81.464 215.252 81.464C216.368 81.464 217.268 80.6 217.268 79.484C217.268 78.764 216.872 78.224 216.584 77.972C214.964 76.568 212.912 75.596 209.924 75.596C204.2 75.596 200.024 80.132 200.024 85.532V85.604C200.024 91.004 204.2 95.432 209.852 95.432ZM219.834 93.02C219.834 94.244 220.806 95.18 221.994 95.18C223.218 95.18 224.19 94.208 224.19 93.02V87.404C224.19 82.904 226.314 80.528 229.41 79.988C230.382 79.808 231.138 79.052 231.138 77.9C231.138 76.64 230.346 75.74 228.978 75.74C227.07 75.74 225.198 77.54 224.19 79.916V77.972C224.19 76.748 223.218 75.776 221.994 75.776C220.77 75.776 219.834 76.748 219.834 77.972V93.02ZM236.362 100.868C239.422 100.868 241.15 99.428 242.77 95.54L249.718 78.872C249.79 78.656 249.898 78.188 249.898 77.828C249.898 76.676 248.962 75.776 247.81 75.776C246.694 75.776 246.082 76.532 245.722 77.432L240.97 90.068L235.858 77.432C235.462 76.424 234.85 75.776 233.734 75.776C232.51 75.776 231.574 76.676 231.574 77.9C231.574 78.188 231.682 78.62 231.826 78.944L238.882 94.712L238.738 95.108C238.018 96.584 237.334 97.124 236.038 97.124C235.426 97.124 235.03 97.016 234.526 96.872C234.31 96.8 234.094 96.728 233.734 96.728C232.798 96.728 231.97 97.448 231.97 98.528C231.97 99.572 232.69 100.112 233.338 100.328C234.238 100.688 235.138 100.868 236.362 100.868ZM252.234 98.78C252.234 100.004 253.206 100.94 254.394 100.94C255.618 100.94 256.59 100.004 256.59 98.78V92.048C257.922 93.812 259.902 95.396 263.07 95.396C267.57 95.396 271.89 91.832 271.89 85.532V85.46C271.89 79.124 267.534 75.596 263.07 75.596C259.974 75.596 257.994 77.18 256.59 79.16V77.972C256.59 76.748 255.618 75.776 254.394 75.776C253.17 75.776 252.234 76.748 252.234 77.972V98.78ZM262.026 91.616C259.074 91.616 256.482 89.168 256.482 85.532V85.46C256.482 81.824 259.074 79.376 262.026 79.376C264.978 79.376 267.462 81.788 267.462 85.46V85.532C267.462 89.276 265.014 91.616 262.026 91.616ZM280.959 95.324C282.111 95.324 283.011 95.144 283.947 94.82C284.559 94.568 285.099 93.92 285.099 93.128C285.099 92.12 284.235 91.328 283.263 91.328C283.119 91.328 282.687 91.436 282.183 91.436C280.707 91.436 279.843 90.752 279.843 89.06V79.736H283.263C284.307 79.736 285.171 78.908 285.171 77.864C285.171 76.82 284.307 75.992 283.263 75.992H279.843V72.752C279.843 71.564 278.871 70.592 277.683 70.592C276.459 70.592 275.487 71.564 275.487 72.752V75.992H274.767C273.723 75.992 272.895 76.82 272.895 77.864C272.895 78.908 273.723 79.736 274.767 79.736H275.487V89.744C275.487 93.92 277.755 95.324 280.959 95.324ZM296.096 95.432C301.964 95.432 306.284 90.932 306.284 85.532V85.46C306.284 80.024 302 75.596 296.168 75.596C290.336 75.596 286.016 80.096 286.016 85.532V85.604C286.016 91.004 290.3 95.432 296.096 95.432ZM296.168 91.616C292.784 91.616 290.372 88.844 290.372 85.532V85.46C290.372 82.148 292.604 79.412 296.096 79.412C299.516 79.412 301.928 82.184 301.928 85.532V85.604C301.928 88.88 299.696 91.616 296.168 91.616ZM324.285 95.324H324.429C325.473 95.324 326.373 94.712 326.769 93.452L330.513 82.148L334.221 93.452C334.617 94.712 335.517 95.324 336.597 95.324H336.741C337.785 95.324 338.685 94.712 339.153 93.38L344.337 78.764C344.409 78.548 344.517 78.116 344.517 77.792C344.517 76.712 343.653 75.776 342.465 75.776C341.313 75.776 340.629 76.532 340.341 77.468L336.633 89.024L332.889 77.504C332.565 76.496 331.773 75.776 330.657 75.776H330.405C329.289 75.776 328.497 76.496 328.173 77.504L324.465 89.024L320.793 77.504C320.469 76.496 319.749 75.776 318.669 75.776C317.373 75.776 316.545 76.748 316.545 77.792C316.545 78.152 316.653 78.62 316.761 78.908L321.873 93.38C322.305 94.712 323.205 95.324 324.285 95.324ZM355.313 95.432C361.181 95.432 365.501 90.932 365.501 85.532V85.46C365.501 80.024 361.217 75.596 355.385 75.596C349.553 75.596 345.233 80.096 345.233 85.532V85.604C345.233 91.004 349.517 95.432 355.313 95.432ZM355.385 91.616C352.001 91.616 349.589 88.844 349.589 85.532V85.46C349.589 82.148 351.821 79.412 355.313 79.412C358.733 79.412 361.145 82.184 361.145 85.532V85.604C361.145 88.88 358.913 91.616 355.385 91.616ZM368.138 93.02C368.138 94.244 369.11 95.18 370.298 95.18C371.522 95.18 372.494 94.208 372.494 93.02V87.404C372.494 82.904 374.618 80.528 377.714 79.988C378.686 79.808 379.442 79.052 379.442 77.9C379.442 76.64 378.65 75.74 377.282 75.74C375.374 75.74 373.502 77.54 372.494 79.916V77.972C372.494 76.748 371.522 75.776 370.298 75.776C369.074 75.776 368.138 76.748 368.138 77.972V93.02ZM381.209 93.02C381.209 94.244 382.181 95.18 383.369 95.18C384.593 95.18 385.565 94.244 385.565 93.02V89.708L388.445 86.972L393.881 94.208C394.421 94.892 394.925 95.18 395.789 95.18C396.905 95.18 397.841 94.388 397.841 93.2C397.841 92.696 397.661 92.3 397.265 91.76L391.505 84.236L396.545 79.592C397.157 79.016 397.517 78.476 397.517 77.756C397.517 76.712 396.761 75.776 395.609 75.776C394.853 75.776 394.313 76.136 393.737 76.712L385.565 84.74V70.7C385.565 69.512 384.593 68.54 383.369 68.54C382.145 68.54 381.209 69.512 381.209 70.7V93.02ZM410.256 93.02C410.256 94.208 411.228 95.18 412.416 95.18C413.64 95.18 414.612 94.208 414.612 93.02V79.736H417.924C418.932 79.736 419.76 78.944 419.76 77.936C419.76 76.928 418.968 76.136 417.924 76.136H414.54V75.092C414.54 73.112 415.404 72.212 417.06 72.212C417.348 72.212 417.708 72.248 417.96 72.284C418.968 72.32 419.796 71.492 419.796 70.484C419.796 69.512 419.076 68.792 418.284 68.684C417.672 68.576 416.952 68.504 416.088 68.504C414.216 68.504 412.812 69.008 411.804 70.016C410.796 71.024 410.256 72.608 410.256 74.696V76.1H409.5C408.492 76.1 407.664 76.928 407.664 77.936C407.664 78.944 408.492 79.736 409.5 79.736H410.256V93.02ZM429.704 95.432C435.572 95.432 439.892 90.932 439.892 85.532V85.46C439.892 80.024 435.608 75.596 429.776 75.596C423.944 75.596 419.624 80.096 419.624 85.532V85.604C419.624 91.004 423.908 95.432 429.704 95.432ZM429.776 91.616C426.392 91.616 423.98 88.844 423.98 85.532V85.46C423.98 82.148 426.212 79.412 429.704 79.412C433.124 79.412 435.536 82.184 435.536 85.532V85.604C435.536 88.88 433.304 91.616 429.776 91.616ZM442.528 93.02C442.528 94.244 443.5 95.18 444.688 95.18C445.912 95.18 446.884 94.208 446.884 93.02V87.404C446.884 82.904 449.008 80.528 452.104 79.988C453.076 79.808 453.832 79.052 453.832 77.9C453.832 76.64 453.04 75.74 451.672 75.74C449.764 75.74 447.892 77.54 446.884 79.916V77.972C446.884 76.748 445.912 75.776 444.688 75.776C443.464 75.776 442.528 76.748 442.528 77.972V93.02ZM468.048 100.868C471.108 100.868 472.836 99.428 474.456 95.54L481.404 78.872C481.476 78.656 481.584 78.188 481.584 77.828C481.584 76.676 480.648 75.776 479.496 75.776C478.38 75.776 477.768 76.532 477.408 77.432L472.656 90.068L467.544 77.432C467.148 76.424 466.536 75.776 465.42 75.776C464.196 75.776 463.26 76.676 463.26 77.9C463.26 78.188 463.368 78.62 463.512 78.944L470.568 94.712L470.424 95.108C469.704 96.584 469.02 97.124 467.724 97.124C467.112 97.124 466.716 97.016 466.212 96.872C465.996 96.8 465.78 96.728 465.42 96.728C464.484 96.728 463.656 97.448 463.656 98.528C463.656 99.572 464.376 100.112 465.024 100.328C465.924 100.688 466.824 100.868 468.048 100.868ZM492.254 95.432C498.122 95.432 502.442 90.932 502.442 85.532V85.46C502.442 80.024 498.158 75.596 492.326 75.596C486.494 75.596 482.174 80.096 482.174 85.532V85.604C482.174 91.004 486.458 95.432 492.254 95.432ZM492.326 91.616C488.942 91.616 486.53 88.844 486.53 85.532V85.46C486.53 82.148 488.762 79.412 492.254 79.412C495.674 79.412 498.086 82.184 498.086 85.532V85.604C498.086 88.88 495.854 91.616 492.326 91.616ZM521.962 77.972C521.962 76.748 520.954 75.776 519.766 75.776C518.542 75.776 517.57 76.748 517.57 77.972V86.72C517.57 89.672 515.806 91.4 513.286 91.4C510.694 91.4 509.218 89.744 509.218 86.792V77.972C509.218 76.748 508.246 75.776 507.022 75.776C505.834 75.776 504.862 76.748 504.862 77.972V88.088C504.862 92.516 507.346 95.396 511.63 95.396C514.582 95.396 516.346 93.848 517.57 92.048V93.02C517.57 94.244 518.578 95.18 519.766 95.18C520.99 95.18 521.962 94.208 521.962 93.02V77.972Z" fill="#00E59D"/>
<g filter="url(#filter1_f)">
<path d="M22.24 93.02C22.24 94.244 23.176 95.18 24.4 95.18C25.624 95.18 26.596 94.244 26.596 93.02V77.936L32.716 87.116C33.184 87.836 33.76 88.268 34.552 88.268C35.38 88.268 35.956 87.836 36.424 87.116L42.58 77.864V92.984C42.58 94.172 43.588 95.18 44.776 95.18C46.036 95.18 47.008 94.208 47.008 92.984V71.888C47.008 70.664 46.036 69.656 44.776 69.656H44.308C43.408 69.656 42.76 70.052 42.292 70.808L34.624 82.796L26.992 70.844C26.56 70.16 25.912 69.656 24.94 69.656H24.472C23.212 69.656 22.24 70.664 22.24 71.888V93.02ZM56.6619 95.396C59.5779 95.396 61.5579 94.172 62.8539 92.624V93.344C62.8539 94.316 63.7179 95.18 64.9779 95.18C66.1659 95.18 67.1019 94.28 67.1019 93.092V83.732C67.1019 81.248 66.4539 79.232 65.0499 77.864C63.7179 76.496 61.5939 75.74 58.7499 75.74C56.2659 75.74 54.4299 76.172 52.6299 76.856C51.9819 77.108 51.4419 77.792 51.4419 78.584C51.4419 79.592 52.2699 80.384 53.2779 80.384C53.4939 80.384 53.7099 80.348 53.9619 80.276C55.1499 79.808 56.5179 79.52 58.1739 79.52C61.2339 79.52 62.8899 80.96 62.8899 83.66V84.128C61.4139 83.66 59.9019 83.336 57.7779 83.336C53.1339 83.336 49.9299 85.352 49.9299 89.456V89.528C49.9299 93.344 53.0979 95.396 56.6619 95.396ZM57.8859 92.228C55.7979 92.228 54.1779 91.184 54.1779 89.348V89.276C54.1779 87.296 55.8339 86.108 58.6419 86.108C60.3699 86.108 61.8459 86.432 62.9619 86.864V88.16C62.9619 90.572 60.7659 92.228 57.8859 92.228ZM70.5188 93.02C70.5188 94.244 71.4908 95.18 72.6788 95.18C73.9028 95.18 74.8748 94.244 74.8748 93.02V89.708L77.7548 86.972L83.1908 94.208C83.7308 94.892 84.2348 95.18 85.0988 95.18C86.2148 95.18 87.1508 94.388 87.1508 93.2C87.1508 92.696 86.9708 92.3 86.5748 91.76L80.8148 84.236L85.8548 79.592C86.4668 79.016 86.8268 78.476 86.8268 77.756C86.8268 76.712 86.0708 75.776 84.9188 75.776C84.1628 75.776 83.6228 76.136 83.0468 76.712L74.8748 84.74V70.7C74.8748 69.512 73.9028 68.54 72.6788 68.54C71.4548 68.54 70.5188 69.512 70.5188 70.7V93.02ZM92.3503 84.164C92.7463 81.212 94.6183 79.16 97.2823 79.16C100.162 79.16 101.818 81.356 102.106 84.164H92.3503ZM104.626 92.912C104.95 92.588 105.202 92.12 105.202 91.58C105.202 90.572 104.446 89.816 103.474 89.816C102.97 89.816 102.682 89.96 102.358 90.212C101.134 91.22 99.6943 91.868 97.8583 91.868C95.0503 91.868 92.8543 90.14 92.3863 87.044H104.302C105.418 87.044 106.354 86.18 106.354 84.956C106.354 80.564 103.366 75.596 97.3183 75.596C91.8823 75.596 88.0303 80.06 88.0303 85.496V85.568C88.0303 91.436 92.2783 95.432 97.7863 95.432C100.738 95.432 102.898 94.46 104.626 92.912ZM121.45 100.868C124.51 100.868 126.238 99.428 127.858 95.54L134.806 78.872C134.878 78.656 134.986 78.188 134.986 77.828C134.986 76.676 134.05 75.776 132.898 75.776C131.782 75.776 131.17 76.532 130.81 77.432L126.058 90.068L120.946 77.432C120.55 76.424 119.938 75.776 118.822 75.776C117.598 75.776 116.662 76.676 116.662 77.9C116.662 78.188 116.77 78.62 116.914 78.944L123.97 94.712L123.826 95.108C123.106 96.584 122.422 97.124 121.126 97.124C120.514 97.124 120.118 97.016 119.614 96.872C119.398 96.8 119.182 96.728 118.822 96.728C117.886 96.728 117.058 97.448 117.058 98.528C117.058 99.572 117.778 100.112 118.426 100.328C119.326 100.688 120.226 100.868 121.45 100.868ZM145.656 95.432C151.524 95.432 155.844 90.932 155.844 85.532V85.46C155.844 80.024 151.56 75.596 145.728 75.596C139.896 75.596 135.576 80.096 135.576 85.532V85.604C135.576 91.004 139.86 95.432 145.656 95.432ZM145.728 91.616C142.344 91.616 139.932 88.844 139.932 85.532V85.46C139.932 82.148 142.164 79.412 145.656 79.412C149.076 79.412 151.488 82.184 151.488 85.532V85.604C151.488 88.88 149.256 91.616 145.728 91.616ZM175.364 77.972C175.364 76.748 174.356 75.776 173.168 75.776C171.944 75.776 170.972 76.748 170.972 77.972V86.72C170.972 89.672 169.208 91.4 166.688 91.4C164.096 91.4 162.62 89.744 162.62 86.792V77.972C162.62 76.748 161.648 75.776 160.424 75.776C159.236 75.776 158.264 76.748 158.264 77.972V88.088C158.264 92.516 160.748 95.396 165.032 95.396C167.984 95.396 169.748 93.848 170.972 92.048V93.02C170.972 94.244 171.98 95.18 173.168 95.18C174.392 95.18 175.364 94.208 175.364 93.02V77.972ZM179.004 93.02C179.004 94.244 179.976 95.18 181.164 95.18C182.388 95.18 183.36 94.208 183.36 93.02V87.404C183.36 82.904 185.484 80.528 188.58 79.988C189.552 79.808 190.308 79.052 190.308 77.9C190.308 76.64 189.516 75.74 188.148 75.74C186.24 75.74 184.368 77.54 183.36 79.916V77.972C183.36 76.748 182.388 75.776 181.164 75.776C179.94 75.776 179.004 76.748 179.004 77.972V93.02ZM209.852 95.432C213.02 95.432 215.072 94.352 216.764 92.732C217.16 92.408 217.376 91.94 217.376 91.364C217.376 90.32 216.548 89.456 215.504 89.456C215 89.456 214.568 89.708 214.316 89.924C213.128 90.932 211.796 91.616 210.068 91.616C206.72 91.616 204.38 88.916 204.38 85.532V85.46C204.38 82.148 206.72 79.412 209.888 79.412C211.616 79.412 212.84 80.096 213.956 81.032C214.244 81.248 214.712 81.464 215.252 81.464C216.368 81.464 217.268 80.6 217.268 79.484C217.268 78.764 216.872 78.224 216.584 77.972C214.964 76.568 212.912 75.596 209.924 75.596C204.2 75.596 200.024 80.132 200.024 85.532V85.604C200.024 91.004 204.2 95.432 209.852 95.432ZM219.834 93.02C219.834 94.244 220.806 95.18 221.994 95.18C223.218 95.18 224.19 94.208 224.19 93.02V87.404C224.19 82.904 226.314 80.528 229.41 79.988C230.382 79.808 231.138 79.052 231.138 77.9C231.138 76.64 230.346 75.74 228.978 75.74C227.07 75.74 225.198 77.54 224.19 79.916V77.972C224.19 76.748 223.218 75.776 221.994 75.776C220.77 75.776 219.834 76.748 219.834 77.972V93.02ZM236.362 100.868C239.422 100.868 241.15 99.428 242.77 95.54L249.718 78.872C249.79 78.656 249.898 78.188 249.898 77.828C249.898 76.676 248.962 75.776 247.81 75.776C246.694 75.776 246.082 76.532 245.722 77.432L240.97 90.068L235.858 77.432C235.462 76.424 234.85 75.776 233.734 75.776C232.51 75.776 231.574 76.676 231.574 77.9C231.574 78.188 231.682 78.62 231.826 78.944L238.882 94.712L238.738 95.108C238.018 96.584 237.334 97.124 236.038 97.124C235.426 97.124 235.03 97.016 234.526 96.872C234.31 96.8 234.094 96.728 233.734 96.728C232.798 96.728 231.97 97.448 231.97 98.528C231.97 99.572 232.69 100.112 233.338 100.328C234.238 100.688 235.138 100.868 236.362 100.868ZM252.234 98.78C252.234 100.004 253.206 100.94 254.394 100.94C255.618 100.94 256.59 100.004 256.59 98.78V92.048C257.922 93.812 259.902 95.396 263.07 95.396C267.57 95.396 271.89 91.832 271.89 85.532V85.46C271.89 79.124 267.534 75.596 263.07 75.596C259.974 75.596 257.994 77.18 256.59 79.16V77.972C256.59 76.748 255.618 75.776 254.394 75.776C253.17 75.776 252.234 76.748 252.234 77.972V98.78ZM262.026 91.616C259.074 91.616 256.482 89.168 256.482 85.532V85.46C256.482 81.824 259.074 79.376 262.026 79.376C264.978 79.376 267.462 81.788 267.462 85.46V85.532C267.462 89.276 265.014 91.616 262.026 91.616ZM280.959 95.324C282.111 95.324 283.011 95.144 283.947 94.82C284.559 94.568 285.099 93.92 285.099 93.128C285.099 92.12 284.235 91.328 283.263 91.328C283.119 91.328 282.687 91.436 282.183 91.436C280.707 91.436 279.843 90.752 279.843 89.06V79.736H283.263C284.307 79.736 285.171 78.908 285.171 77.864C285.171 76.82 284.307 75.992 283.263 75.992H279.843V72.752C279.843 71.564 278.871 70.592 277.683 70.592C276.459 70.592 275.487 71.564 275.487 72.752V75.992H274.767C273.723 75.992 272.895 76.82 272.895 77.864C272.895 78.908 273.723 79.736 274.767 79.736H275.487V89.744C275.487 93.92 277.755 95.324 280.959 95.324ZM296.096 95.432C301.964 95.432 306.284 90.932 306.284 85.532V85.46C306.284 80.024 302 75.596 296.168 75.596C290.336 75.596 286.016 80.096 286.016 85.532V85.604C286.016 91.004 290.3 95.432 296.096 95.432ZM296.168 91.616C292.784 91.616 290.372 88.844 290.372 85.532V85.46C290.372 82.148 292.604 79.412 296.096 79.412C299.516 79.412 301.928 82.184 301.928 85.532V85.604C301.928 88.88 299.696 91.616 296.168 91.616ZM324.285 95.324H324.429C325.473 95.324 326.373 94.712 326.769 93.452L330.513 82.148L334.221 93.452C334.617 94.712 335.517 95.324 336.597 95.324H336.741C337.785 95.324 338.685 94.712 339.153 93.38L344.337 78.764C344.409 78.548 344.517 78.116 344.517 77.792C344.517 76.712 343.653 75.776 342.465 75.776C341.313 75.776 340.629 76.532 340.341 77.468L336.633 89.024L332.889 77.504C332.565 76.496 331.773 75.776 330.657 75.776H330.405C329.289 75.776 328.497 76.496 328.173 77.504L324.465 89.024L320.793 77.504C320.469 76.496 319.749 75.776 318.669 75.776C317.373 75.776 316.545 76.748 316.545 77.792C316.545 78.152 316.653 78.62 316.761 78.908L321.873 93.38C322.305 94.712 323.205 95.324 324.285 95.324ZM355.313 95.432C361.181 95.432 365.501 90.932 365.501 85.532V85.46C365.501 80.024 361.217 75.596 355.385 75.596C349.553 75.596 345.233 80.096 345.233 85.532V85.604C345.233 91.004 349.517 95.432 355.313 95.432ZM355.385 91.616C352.001 91.616 349.589 88.844 349.589 85.532V85.46C349.589 82.148 351.821 79.412 355.313 79.412C358.733 79.412 361.145 82.184 361.145 85.532V85.604C361.145 88.88 358.913 91.616 355.385 91.616ZM368.138 93.02C368.138 94.244 369.11 95.18 370.298 95.18C371.522 95.18 372.494 94.208 372.494 93.02V87.404C372.494 82.904 374.618 80.528 377.714 79.988C378.686 79.808 379.442 79.052 379.442 77.9C379.442 76.64 378.65 75.74 377.282 75.74C375.374 75.74 373.502 77.54 372.494 79.916V77.972C372.494 76.748 371.522 75.776 370.298 75.776C369.074 75.776 368.138 76.748 368.138 77.972V93.02ZM381.209 93.02C381.209 94.244 382.181 95.18 383.369 95.18C384.593 95.18 385.565 94.244 385.565 93.02V89.708L388.445 86.972L393.881 94.208C394.421 94.892 394.925 95.18 395.789 95.18C396.905 95.18 397.841 94.388 397.841 93.2C397.841 92.696 397.661 92.3 397.265 91.76L391.505 84.236L396.545 79.592C397.157 79.016 397.517 78.476 397.517 77.756C397.517 76.712 396.761 75.776 395.609 75.776C394.853 75.776 394.313 76.136 393.737 76.712L385.565 84.74V70.7C385.565 69.512 384.593 68.54 383.369 68.54C382.145 68.54 381.209 69.512 381.209 70.7V93.02ZM410.256 93.02C410.256 94.208 411.228 95.18 412.416 95.18C413.64 95.18 414.612 94.208 414.612 93.02V79.736H417.924C418.932 79.736 419.76 78.944 419.76 77.936C419.76 76.928 418.968 76.136 417.924 76.136H414.54V75.092C414.54 73.112 415.404 72.212 417.06 72.212C417.348 72.212 417.708 72.248 417.96 72.284C418.968 72.32 419.796 71.492 419.796 70.484C419.796 69.512 419.076 68.792 418.284 68.684C417.672 68.576 416.952 68.504 416.088 68.504C414.216 68.504 412.812 69.008 411.804 70.016C410.796 71.024 410.256 72.608 410.256 74.696V76.1H409.5C408.492 76.1 407.664 76.928 407.664 77.936C407.664 78.944 408.492 79.736 409.5 79.736H410.256V93.02ZM429.704 95.432C435.572 95.432 439.892 90.932 439.892 85.532V85.46C439.892 80.024 435.608 75.596 429.776 75.596C423.944 75.596 419.624 80.096 419.624 85.532V85.604C419.624 91.004 423.908 95.432 429.704 95.432ZM429.776 91.616C426.392 91.616 423.98 88.844 423.98 85.532V85.46C423.98 82.148 426.212 79.412 429.704 79.412C433.124 79.412 435.536 82.184 435.536 85.532V85.604C435.536 88.88 433.304 91.616 429.776 91.616ZM442.528 93.02C442.528 94.244 443.5 95.18 444.688 95.18C445.912 95.18 446.884 94.208 446.884 93.02V87.404C446.884 82.904 449.008 80.528 452.104 79.988C453.076 79.808 453.832 79.052 453.832 77.9C453.832 76.64 453.04 75.74 451.672 75.74C449.764 75.74 447.892 77.54 446.884 79.916V77.972C446.884 76.748 445.912 75.776 444.688 75.776C443.464 75.776 442.528 76.748 442.528 77.972V93.02ZM468.048 100.868C471.108 100.868 472.836 99.428 474.456 95.54L481.404 78.872C481.476 78.656 481.584 78.188 481.584 77.828C481.584 76.676 480.648 75.776 479.496 75.776C478.38 75.776 477.768 76.532 477.408 77.432L472.656 90.068L467.544 77.432C467.148 76.424 466.536 75.776 465.42 75.776C464.196 75.776 463.26 76.676 463.26 77.9C463.26 78.188 463.368 78.62 463.512 78.944L470.568 94.712L470.424 95.108C469.704 96.584 469.02 97.124 467.724 97.124C467.112 97.124 466.716 97.016 466.212 96.872C465.996 96.8 465.78 96.728 465.42 96.728C464.484 96.728 463.656 97.448 463.656 98.528C463.656 99.572 464.376 100.112 465.024 100.328C465.924 100.688 466.824 100.868 468.048 100.868ZM492.254 95.432C498.122 95.432 502.442 90.932 502.442 85.532V85.46C502.442 80.024 498.158 75.596 492.326 75.596C486.494 75.596 482.174 80.096 482.174 85.532V85.604C482.174 91.004 486.458 95.432 492.254 95.432ZM492.326 91.616C488.942 91.616 486.53 88.844 486.53 85.532V85.46C486.53 82.148 488.762 79.412 492.254 79.412C495.674 79.412 498.086 82.184 498.086 85.532V85.604C498.086 88.88 495.854 91.616 492.326 91.616ZM521.962 77.972C521.962 76.748 520.954 75.776 519.766 75.776C518.542 75.776 517.57 76.748 517.57 77.972V86.72C517.57 89.672 515.806 91.4 513.286 91.4C510.694 91.4 509.218 89.744 509.218 86.792V77.972C509.218 76.748 508.246 75.776 507.022 75.776C505.834 75.776 504.862 76.748 504.862 77.972V88.088C504.862 92.516 507.346 95.396 511.63 95.396C514.582 95.396 516.346 93.848 517.57 92.048V93.02C517.57 94.244 518.578 95.18 519.766 95.18C520.99 95.18 521.962 94.208 521.962 93.02V77.972Z" fill="#00E59D"/>
</g>
<defs>
<filter id="filter0_f" x="0.152344" y="0.503906" width="479.59" height="72.328" filterUnits="userSpaceOnUse" color-interpolation-filters="sRGB">
<feFlood flood-opacity="0" result="BackgroundImageFix"/>
<feBlend mode="normal" in="SourceGraphic" in2="BackgroundImageFix" result="shape"/>
<feGaussianBlur stdDeviation="10" result="effect1_foregroundBlur"/>
</filter>
<filter id="filter1_f" x="2.24023" y="48.5039" width="539.722" height="72.436" filterUnits="userSpaceOnUse" color-interpolation-filters="sRGB">
<feFlood flood-opacity="0" result="BackgroundImageFix"/>
<feBlend mode="normal" in="SourceGraphic" in2="BackgroundImageFix" result="shape"/>
<feGaussianBlur stdDeviation="10" result="effect1_foregroundBlur"/>
</filter>
</defs>
</svg>
